<svg width="400" height="400" viewBox="0 0 400 400" fill="none" xmlns="http://www.w3.org/2000/svg">
<g clip-path="url(#clip0_1_2)">
<rect width="400" height="400" fill="white"/>
<rect width="400" height="400" fill="#006BFF"/>
<path d="M273.755 170.285C254.891 170.285 229.801 184.674 222.75 184.674C215.699 184.674 190.61 170.288 171.745 170.288V137.653C171.745 128.005 194.548 120.205 222.75 120.208C250.955 120.208 273.755 128.008 273.755 137.655V170.285ZM332.931 109.779C333.327 109.508 333.635 109.127 333.817 108.684C333.999 108.24 334.046 107.752 333.954 107.282C333.862 106.811 333.634 106.377 333.299 106.035C332.963 105.692 332.534 105.455 332.066 105.354C315.575 101.769 264.941 89.5305 226.125 66.9085C225.1 66.3134 223.936 66 222.75 66C221.565 66 220.401 66.3134 219.375 66.9085C180.56 89.5306 129.925 101.769 113.435 105.354C112.966 105.455 112.537 105.692 112.202 106.035C111.866 106.377 111.638 106.811 111.546 107.282C111.454 107.752 111.502 108.24 111.684 108.684C111.866 109.127 112.174 109.508 112.57 109.779C128.137 120.483 144.866 129.391 162.437 136.332C163.822 118.704 193.391 110.818 222.738 110.818C252.06 110.818 281.679 118.704 283.088 136.307C295.19 131.516 306.9 125.79 318.113 119.182V157.143C316.651 157.846 315.416 158.948 314.552 160.321C313.689 161.695 313.23 163.285 313.23 164.908C313.23 166.531 313.689 168.121 314.552 169.494C315.416 170.868 316.651 171.97 318.113 172.673V174.34L311.972 202.213C311.97 207.801 331.83 207.801 331.83 202.213L325.689 174.34V172.673C327.151 171.97 328.385 170.868 329.249 169.494C330.113 168.121 330.571 166.531 330.571 164.908C330.571 163.285 330.113 161.695 329.249 160.321C328.385 158.948 327.151 157.846 325.689 157.143V114.55C328.126 112.997 330.547 111.417 332.931 109.779ZM295.434 333C297.007 333 298.516 332.375 299.629 331.262C300.742 330.149 301.367 328.64 301.367 327.067V166.452C301.367 164.879 300.742 163.37 299.629 162.257C298.516 161.144 297.007 160.519 295.434 160.519C293.86 160.519 292.351 161.144 291.238 162.257C290.125 163.37 289.5 164.879 289.5 166.452V321.133H78.8667V172.386H143.818C145.391 172.386 146.9 171.761 148.013 170.648C149.126 169.535 149.751 168.026 149.751 166.452C149.751 164.879 149.126 163.37 148.013 162.257C146.9 161.144 145.391 160.519 143.818 160.519H72.9333C71.3597 160.519 69.8506 161.144 68.7379 162.257C67.6252 163.37 67.0001 164.879 67 166.452V327.067C67.0001 328.64 67.6252 330.149 68.7379 331.262C69.8506 332.375 71.3597 333 72.9333 333H295.434ZM107.713 240.825V252.691H201.32V240.825H107.713ZM107.713 285.325H260.653V273.458H107.713V285.325Z" fill="white"/>
</g>
<defs>
<clipPath id="clip0_1_2">
<rect width="400" height="400" fill="white"/>
</clipPath>
</defs>
</svg>
