<svg width="400" height="400" viewBox="0 0 400 400" fill="none" xmlns="http://www.w3.org/2000/svg">
<g clip-path="url(#clip0_1_2)">
<rect width="400" height="400" fill="white"/>
<rect width="400" height="400" fill="#006BFF"/>
<path d="M220.048 273.354H53.981C50.912 273.354 48.525 275.739 48.525 278.806V299.595C48.525 302.662 50.912 305.048 53.981 305.048H223.799C221.412 297.21 220.389 289.03 220.389 280.51C220.048 278.125 220.048 275.739 220.048 273.354Z" fill="white"/>
<path d="M271.88 201.445V159.526H240.508V224.96C248.692 215.077 259.604 206.898 271.88 201.445Z" fill="white"/>
<path d="M216.297 159.526H184.925V258.018H216.297V159.526Z" fill="white"/>
<path d="M160.714 159.526H129.342V258.018H160.714V159.526Z" fill="white"/>
<path d="M105.472 159.526H74.1V258.018H105.472V159.526Z" fill="white"/>
<path d="M53.981 144.19H291.999C295.068 144.19 297.455 141.805 297.455 138.738V115.904C297.455 113.859 296.432 112.155 294.386 111.133L175.377 52.856C174.013 52.1744 172.308 52.1744 170.603 52.856L51.594 111.133C49.889 112.155 48.525 113.859 48.525 115.904V138.738C48.525 141.805 50.912 144.19 53.981 144.19ZM172.99 83.528C182.538 83.528 190.381 91.3664 190.381 100.909C190.381 110.451 182.538 118.29 172.99 118.29C163.442 118.29 155.599 110.451 155.599 100.909C155.599 91.3664 163.442 83.528 172.99 83.528Z" fill="white"/>
<path d="M306.321 214.395C269.834 214.395 240.167 244.045 240.167 280.51C240.167 316.976 269.834 346.626 306.321 346.626C342.808 346.626 372.475 316.976 372.475 280.51C372.475 244.045 342.808 214.395 306.321 214.395ZM339.739 271.99L305.98 307.434C303.934 309.478 301.547 310.501 298.478 310.501C295.75 310.501 293.022 309.478 290.976 307.434L271.88 287.326C268.129 283.237 268.129 276.762 272.221 273.013C276.313 269.264 282.792 269.264 286.543 273.354L298.137 285.622L324.394 258.018C328.145 253.928 334.624 253.928 338.716 257.677C343.149 261.426 343.49 267.901 339.739 271.99Z" fill="white"/>
</g>
<defs>
<clipPath id="clip0_1_2">
<rect width="400" height="400" fill="white"/>
</clipPath>
</defs>
</svg>
