<svg width="400" height="400" viewBox="0 0 400 400" fill="none" xmlns="http://www.w3.org/2000/svg">
<g clip-path="url(#clip0_1_2)">
<rect width="400" height="400" fill="white"/>
<rect width="400" height="400" fill="#006BFF"/>
<path d="M259.488 132.584H113.31V145.001H259.488V132.584Z" fill="white"/>
<path d="M259.488 166.133H113.31V178.55H259.488V166.133Z" fill="white"/>
<path d="M259.488 199.682H113.31V212.099H259.488V199.682Z" fill="white"/>
<path d="M113.31 245.866H216.353C218.75 241.291 221.8 237.152 225.067 233.449H113.31V245.866Z" fill="white"/>
<path d="M102.417 303.814V74.6353H270.163V210.356C272.341 210.139 274.737 209.921 276.916 209.921C278.877 209.921 280.619 209.921 282.58 210.139V68.3177C282.58 64.8321 279.748 62 276.262 62H96.0998C92.8321 62.2179 90 64.8321 90 68.3177V310.132C90 313.618 92.8321 316.45 96.3177 316.45H218.532C216.136 312.528 213.957 308.389 212.214 304.032H102.417V303.814Z" fill="white"/>
<path d="M276.916 220.813C244.674 220.813 218.532 246.955 218.532 279.197C218.532 311.439 244.674 337.581 276.916 337.581C309.158 337.581 335.3 311.439 335.3 279.197C335.3 246.955 309.158 220.813 276.916 220.813ZM305.89 266.562L270.816 301.636C269.509 302.943 267.766 303.597 266.023 303.597C264.063 303.597 262.32 302.943 261.013 301.636L248.16 288.783C246.853 287.476 246.199 285.733 246.199 283.99C246.199 282.029 246.853 280.504 248.16 279.197C250.774 276.583 255.131 276.583 257.963 279.197L266.023 287.258L296.305 256.976C297.612 255.669 299.355 255.016 301.097 255.016C302.84 255.016 304.583 255.669 305.89 256.976C307.197 258.284 307.851 260.026 307.851 261.769C307.851 263.512 307.197 265.255 305.89 266.562Z" fill="white"/>
</g>
<defs>
<clipPath id="clip0_1_2">
<rect width="400" height="400" fill="white"/>
</clipPath>
</defs>
</svg>
