<svg width="400" height="400" viewBox="0 0 400 400" fill="none" xmlns="http://www.w3.org/2000/svg">
<g clip-path="url(#clip0_1_2)">
<rect width="400" height="400" fill="white"/>
<rect width="400" height="400" fill="#006BFF"/>
<path d="M289.432 223.814C288.201 222.691 287.225 221.314 286.574 219.778C285.922 218.243 285.609 216.584 285.656 214.915C285.63 208.572 283.727 202.379 280.189 197.119C276.651 191.859 271.636 187.769 265.778 185.365C264.857 185.022 264.055 184.42 263.467 183.631C262.879 182.841 262.532 181.899 262.465 180.916C262.361 178.627 261.704 176.398 260.55 174.42C259.396 172.442 257.779 170.774 255.84 169.561C252.957 167.901 252.229 167.337 253.256 165.643L283.535 128.755C285.478 126.399 286.938 123.682 287.833 120.759C288.728 117.837 289.04 114.767 288.75 111.724C288.461 108.681 287.577 105.725 286.148 103.024C284.719 100.324 282.773 97.9316 280.421 95.9848C278.07 94.038 275.359 92.5744 272.443 91.6776C269.527 90.7809 266.464 90.4685 263.427 90.7583C260.391 91.0481 257.441 91.9344 254.747 93.3667C252.052 94.799 249.666 96.7491 247.723 99.1058L218.57 134.466C209.316 145.689 200.051 156.933 190.775 168.2C189.946 169.163 189.019 170.026 187.793 171.321L185.375 168.001C179.901 159.919 172.887 153.002 164.735 147.648C155.989 142.335 147.111 141.206 138.232 146.652C134.064 149.019 130.677 152.555 128.488 156.826C126.298 161.097 125.402 165.915 125.908 170.69C126.57 177.289 128.65 183.666 132.004 189.383C141.28 206.881 144.692 224.411 134.886 243.37C127.83 257.049 122.794 271.658 116.732 285.67C115.705 287.994 188.191 348.754 190.245 346.961C200.183 337.897 210.652 329.032 220.69 319.934C228.596 312.067 237.769 305.59 247.823 300.777C264.387 293.771 275.883 281.42 285.722 267.176C289.431 261.64 292.53 255.718 294.965 249.512C296.967 245.211 297.511 240.37 296.512 235.73C295.513 231.09 293.027 226.905 289.432 223.814ZM209.625 98.5414C211.047 98.9662 212.54 99.1024 214.016 98.9421C215.492 98.7819 216.92 98.3283 218.219 97.608C219.518 96.8876 220.66 95.915 221.579 94.7469C222.498 93.5789 223.176 92.2388 223.572 90.8052L236.393 46.0817C236.912 44.6246 237.126 43.0761 237.023 41.5325C236.919 39.9889 236.5 38.4831 235.792 37.1085C235.084 35.7339 234.101 34.52 232.905 33.5419C231.709 32.5639 230.325 31.8427 228.839 31.4231C227.353 31.0035 225.797 30.8945 224.268 31.1028C222.738 31.3111 221.267 31.8322 219.947 32.6339C218.627 33.4356 217.485 34.5008 216.593 35.7632C215.701 37.0256 215.077 38.4583 214.76 39.9725L201.906 84.5964C201.088 87.4714 201.441 90.5543 202.888 93.1686C204.335 95.7829 206.758 97.7151 209.625 98.5414ZM154.333 122.049C156.749 122.056 159.103 121.285 161.048 119.849C162.994 118.413 164.427 116.388 165.136 114.074C165.845 111.759 165.793 109.277 164.987 106.995C164.181 104.712 162.664 102.749 160.661 101.397L121.999 75.333C120.778 74.4197 119.384 73.7643 117.902 73.4065C116.421 73.0487 114.882 72.996 113.38 73.2515C111.877 73.5069 110.442 74.0653 109.161 74.8928C107.88 75.7203 106.78 76.7997 105.928 78.0657C105.075 79.3317 104.488 80.7579 104.201 82.258C103.914 83.7581 103.934 85.3008 104.26 86.7929C104.586 88.285 105.21 89.6954 106.095 90.9386C106.98 92.1818 108.108 93.2321 109.41 94.0259L147.873 120.123C149.783 121.403 152.035 122.074 154.333 122.049ZM169.307 93.561C170.101 95.7398 171.544 97.6215 173.44 98.9517C175.336 100.282 177.594 100.996 179.908 100.998C181.209 100.993 182.499 100.757 183.718 100.301C186.505 99.2631 188.768 97.1598 190.01 94.4523C191.252 91.7448 191.372 88.6542 190.344 85.8581L174.475 42.0974C173.962 40.7044 173.18 39.4263 172.174 38.3361C171.167 37.246 169.957 36.3651 168.611 35.7439C167.265 35.1226 165.81 34.7731 164.33 34.7154C162.849 34.6576 161.371 34.8927 159.981 35.4072C158.591 35.9217 157.316 36.7055 156.228 37.714C155.141 38.7224 154.262 39.9357 153.642 41.2846C153.022 42.6335 152.673 44.0915 152.616 45.5754C152.558 47.0593 152.793 48.5401 153.306 49.9332L169.307 93.561Z" fill="white"/>
</g>
<defs>
<clipPath id="clip0_1_2">
<rect width="400" height="400" fill="white"/>
</clipPath>
</defs>
</svg>
