<svg width="400" height="400" viewBox="0 0 400 400" fill="none" xmlns="http://www.w3.org/2000/svg">
<g clip-path="url(#clip0_1_2)">
<rect width="400" height="400" fill="white"/>
<rect width="400" height="400" fill="#006BFF"/>
<path fill-rule="evenodd" clip-rule="evenodd" d="M86.3479 298.668C86.3704 289.649 91.514 280.831 99.8921 270.962L51.4432 240.435C48.3884 239.115 48.4558 237.257 50.2303 235.064L60.4951 226.336C62.3593 225.194 64.3359 224.702 66.4697 225.284L126.262 235.355L176.081 181.598L59.7763 103.201C56.8339 101.478 56.5868 99.5306 59.6191 97.2702L76.3976 83.9317L228.011 126.387L272.799 78.6724C287.825 65.7144 302.425 59.9179 313.633 62.6707C319.81 64.1925 321.989 66.0277 323.898 71.8017C327.604 83.126 321.854 98.3444 308.265 114.01L260.378 158.636L302.987 309.701L289.6 326.419C287.331 329.418 285.377 329.172 283.648 326.263L204.943 210.401L150.991 260.018L161.099 319.593C161.683 321.697 161.211 323.667 160.043 325.547L151.283 335.774C149.105 337.542 147.218 337.609 145.893 334.566L115.256 286.292C105.305 294.662 96.4555 299.787 87.3587 299.787C86.5276 299.765 86.3479 299.474 86.3479 298.668Z" fill="white"/>
</g>
<defs>
<clipPath id="clip0_1_2">
<rect width="400" height="400" fill="white"/>
</clipPath>
</defs>
</svg>
