<svg width="1150" height="536" viewBox="0 0 1150 536" fill="none" xmlns="http://www.w3.org/2000/svg">
<path d="M34.3839 533.722C34.3839 533.722 -49.006 346.589 47.4428 229.967C126.731 134.094 234.495 115.248 318.219 172.992C353.879 197.588 453.46 191.752 573.434 74.752C729.252 -77.1983 1119.84 7.04303 1044.41 310.834C1007.91 457.848 1164.22 387.078 1089.02 534.034L34.3839 533.722Z" fill="#EBF3FA"/>
<path d="M1148.65 535.011H10.2574C9.54592 535.011 8.96454 534.408 8.96454 533.668V533.211C8.96454 532.473 9.54592 531.866 10.2574 531.866H1148.65C1149.35 531.866 1149.94 532.473 1149.94 533.211V533.668C1149.94 534.408 1149.35 535.011 1148.65 535.011Z" fill="#2E3552"/>
<path d="M163.068 315.359L159.251 358.74L164.925 359.655L180.981 321.059L163.068 315.359Z" fill="#FFB27D"/>
<path d="M165.663 355.191C165.663 355.191 164.344 359.73 165.167 363.112C165.716 365.371 162.34 368.47 158.609 372.751C158.233 373.183 157.534 372.747 157.615 372.172C157.657 371.869 157.749 371.515 157.919 371.103C158.595 369.473 160.533 366.644 160.533 366.644C160.377 366.011 156.401 368.241 154.157 369.785C152.854 370.679 149.08 374.914 148.075 374.286C147.07 373.653 148.695 369.577 150.44 366.577C152.186 363.574 158.465 361.04 159.251 358.74C160.037 356.435 165.663 355.191 165.663 355.191Z" fill="#FFB27D"/>
<path d="M183.994 158.028L225.558 139.612L263.879 158.602L225.558 178.816L183.994 158.028Z" fill="#233862"/>
<path d="M190.718 179.194L191.31 178.379C182.941 171.835 184.566 160.894 185.069 158.394C185.134 158.074 185.009 157.745 184.752 157.554C184.494 157.362 184.133 157.516 184.072 157.837C183.521 160.753 181.989 172.368 190.718 179.194Z" fill="#EFCBAB"/>
<path d="M191.31 178.379L192.562 178.861L191.516 180.255L190.718 179.194L191.31 178.379Z" fill="#D8A987"/>
<path d="M192.562 178.861C192.562 178.861 194.113 180.035 194.657 179.673C194.657 179.673 194.151 181.208 193.393 181.37C193.393 181.37 191.986 180.879 191.516 180.255L192.562 178.861Z" fill="#EFCBAB"/>
<path d="M210.855 487.238L208.036 499.564L204.294 515.913H192.601L191.904 500.251L191.366 488.174L210.855 487.238Z" fill="#FFB27D"/>
<path d="M187.977 533.872C187.977 533.872 187.977 527.923 188.793 525.943C189.608 523.967 192.6 515.913 192.6 515.913H204.293C204.293 515.913 206.468 523.259 206.604 525.66C206.74 528.064 206.604 533.872 206.604 533.872H187.977Z" fill="#233862"/>
<path d="M262.22 533.872C262.22 533.872 262.22 527.923 261.405 525.943C260.589 523.967 257.597 515.913 257.597 515.913H245.904C245.904 515.913 243.729 523.259 243.593 525.66C243.457 528.064 243.593 533.872 243.593 533.872H262.22Z" fill="#233862"/>
<path d="M215.374 199.978C215.374 199.978 214.962 213.223 213.331 219.155L200.418 248.08L228.993 289.197L249.026 236.078L237.434 219.434C237.434 219.434 233.934 201.671 235.769 195.102C237.605 188.529 215.374 199.978 215.374 199.978Z" fill="#FFB27D"/>
<path d="M215.304 201.804C215.304 201.8 219.147 211.422 226.388 211.21C233.628 210.997 235.276 202.49 235.276 202.49L215.304 201.804Z" fill="#ED985F"/>
<path d="M210.982 194.021C210.982 194.021 208.644 181.89 207.013 178.217C205.381 174.543 204.021 158.153 222.105 157.304C222.105 157.304 229.039 158.153 232.846 155.749C232.846 155.749 232.846 158.153 231.894 159.002C231.894 159.002 236.603 155.923 241.498 161.573C246.393 167.226 239.781 188.529 240.189 193.193L210.982 194.021Z" fill="#132644"/>
<path d="M225.558 207.495C220.312 207.395 210.656 200.136 210.656 191.146V177.118C210.656 173.836 212.859 171.153 215.551 171.153H235.565C238.258 171.153 240.46 173.836 240.46 177.118V190.355C240.46 199.782 231.575 207.603 225.558 207.495Z" fill="#FFB27D"/>
<path d="M210.656 184.61C210.656 184.61 210.683 176.182 217.108 174.884C223.532 173.591 237.911 178.994 239.95 172.846C241.99 166.702 212.158 166.806 210.656 170.729C209.154 174.647 210.656 184.61 210.656 184.61Z" fill="#132644"/>
<path d="M213.332 219.155C213.331 219.155 225.29 221.946 225.29 221.946L237.376 218.918L240.46 238.195L226.896 286.181L212.057 228.681L213.332 219.155Z" fill="white"/>
<path d="M212.745 223.099L222.246 230.466L225.354 225.175L228.235 230.466L238.355 221.31L236.359 218.918L225.29 221.946L213.332 221.381L212.745 223.099Z" fill="#D2E3FC"/>
<path d="M262.5 327.744L234.045 329.591C233.882 329.312 233.698 329.312 233.494 329.628L225.122 330.169L189.443 327.856C189.443 327.856 180.469 370.421 183.995 427.143C185.119 445.239 187.633 498.828 190.027 517.781L214.484 518.047C217.653 496.615 221.32 443.13 223.292 433.944C224.187 429.776 225.019 425.637 225.794 421.547C226.501 426.207 226.954 429.988 226.945 432.347C226.929 436.116 227.987 442.114 229.453 449.345C231.51 459.528 237.56 506.478 239.365 518.738H265.026C265.333 501.848 266.727 444.486 267.019 427.143C267.796 380.888 262.5 327.744 262.5 327.744Z" fill="#EE9849"/>
<path d="M282.141 477.287C269.059 484.413 179.974 492.858 164.005 473.281C161.287 469.949 199.248 221.946 199.248 221.946C199.248 221.946 201.693 221.21 205.82 220.403C207.926 219.991 210.462 219.563 213.337 219.201C213.37 220.128 219.521 260.406 227.889 276.114C227.889 276.114 237.377 254.436 237.436 219.43C237.436 219.255 237.398 219.084 237.377 218.918C239.17 219.122 240.992 219.376 242.818 219.704C243.59 219.841 244.363 219.991 245.135 220.158C248.068 220.769 251.021 221.564 253.958 222.57C253.958 222.57 284.867 475.802 282.141 477.287Z" fill="#1C468A"/>
<path d="M209.579 219.667C209.579 219.667 195.947 328.48 190.718 336.638C188.529 340.049 185.328 340.606 181.556 339.841C180.837 339.699 180.094 339.508 179.338 339.275L168.883 335.111L168.838 335.094C167.144 334.391 165.434 333.726 163.728 333.177C152.989 329.72 153.823 320.326 156.714 307.518C159.606 294.709 178.541 233.033 184.931 228.681C196.224 220.994 209.579 219.667 209.579 219.667Z" fill="#1C468A"/>
<path d="M237.376 218.918C228.398 217.92 219.975 218.373 213.336 219.201C213.332 219.172 213.332 219.155 213.332 219.155C213.332 219.155 235.583 204.853 237.376 218.918Z" fill="#FFB27D"/>
<path d="M229.542 286.177C215.774 275.644 205.82 220.403 205.82 220.403C207.926 219.991 210.463 219.563 213.337 219.201C213.37 220.129 219.178 258.188 227.547 273.897C227.547 273.897 237.378 254.436 237.436 219.43C237.436 219.255 237.398 219.084 237.378 218.918C239.171 219.122 240.992 219.376 242.818 219.704C243.59 219.842 244.363 219.991 245.135 220.158C245.157 249.64 229.542 286.177 229.542 286.177Z" fill="#BC3F3F"/>
<path d="M220.912 197.095C220.912 197.095 227.189 196.442 230.101 197.178C230.101 197.178 228.527 199.811 225.981 199.786C223.435 199.765 221.519 198.779 220.912 197.095Z" fill="#FFF0E6"/>
<path d="M205.753 164.451L206.127 170.804C206.127 170.804 220.21 161.023 243.311 170.005L242.989 160.815C242.65 159.027 241.586 157.475 240.063 156.564C235.73 153.972 225.585 149.163 209.554 157.209C207.307 158.336 205.9 161.864 205.753 164.451Z" fill="#1C468A"/>
<path d="M214.381 213.314L209.579 219.667L222.28 228.682L225.29 221.946L214.381 213.314Z" fill="white"/>
<path d="M236.4 213.314L225.29 221.946L228.476 228.682L239.41 219.172L236.4 213.314Z" fill="white"/>
<path d="M224.931 236.835C225.273 236.482 225.828 236.482 226.17 236.835C226.512 237.193 226.512 237.767 226.17 238.125C225.828 238.478 225.273 238.478 224.931 238.125C224.588 237.767 224.588 237.193 224.931 236.835Z" fill="#D2E3FC"/>
<path d="M224.931 246.636C225.273 246.282 225.828 246.282 226.17 246.636C226.512 246.994 226.512 247.572 226.17 247.926C225.828 248.279 225.273 248.279 224.931 247.926C224.588 247.572 224.588 246.994 224.931 246.636Z" fill="#D2E3FC"/>
<path d="M224.931 256.724C225.273 256.371 225.828 256.371 226.17 256.724C226.512 257.082 226.512 257.656 226.17 258.014C225.828 258.367 225.273 258.367 224.931 258.014C224.588 257.656 224.588 257.082 224.931 256.724Z" fill="#D2E3FC"/>
<path d="M253.957 222.57C253.957 222.57 262.519 226.269 267.097 237.168C271.676 248.067 290.677 277.836 290.126 291.78C289.575 305.721 286.996 318.409 274.223 318.841C265.457 319.132 256.53 310.218 256.53 296.885C256.53 283.552 253.957 222.57 253.957 222.57Z" fill="#1C468A"/>
<path d="M281.154 311.025C280.811 314.785 279.456 317.818 276.218 318.658C265.978 321.321 261.447 311.05 263.603 300.986C263.673 300.654 263.756 300.329 263.85 300.021C266.036 292.667 273.9 291.539 276.804 291.377C277.486 291.335 277.895 291.352 277.895 291.352C277.895 291.352 277.953 291.518 278.056 291.826C278.791 294.081 281.811 303.865 281.154 311.025Z" fill="#233862"/>
<path d="M281.154 311.025C281.154 311.025 251.297 297.059 239.479 281.027C238.606 279.841 240.843 278.394 240.843 278.394L276.804 291.377L278.056 291.826C278.791 294.081 281.811 303.865 281.154 311.025Z" fill="#FFB27D"/>
<path d="M246.033 333.177H206.585V279.155H246.033V333.177Z" fill="#FCECDB"/>
<path d="M222.794 317.235L218.359 324.936L221.164 324.52L222.366 326.837L226.134 319.756L222.794 317.235Z" fill="#932424"/>
<path d="M228.672 316.757L233.107 324.457L230.302 324.041L229.1 326.362L225.332 319.282L228.672 316.757Z" fill="#932424"/>
<path d="M221.232 315.534C221.73 312.164 223.467 310.846 226.155 310.421C229.667 309.864 231.078 312.709 231.078 315.534C231.078 318.363 228.874 320.651 226.155 320.651C223.436 320.651 220.819 318.33 221.232 315.534Z" fill="#BC3F3F"/>
<path d="M226.793 311.869C226.598 311.869 226.395 311.886 226.184 311.919C224.053 312.256 223.003 313.346 222.676 315.563C222.559 316.354 222.794 317.148 223.337 317.805C224.014 318.625 225.092 319.137 226.149 319.137C228.063 319.137 229.62 317.518 229.62 315.526C229.62 314.224 229.216 313.113 228.512 312.485C228.053 312.073 227.476 311.869 226.793 311.869ZM226.149 319.611C224.962 319.611 223.751 319.037 222.989 318.113C222.359 317.352 222.086 316.42 222.224 315.492C222.582 313.063 223.782 311.815 226.115 311.449C227.209 311.274 228.115 311.503 228.81 312.123C229.616 312.843 230.078 314.082 230.078 315.526C230.078 317.78 228.316 319.611 226.149 319.611Z" fill="#932424"/>
<path d="M231.799 285.657H220.819C220.637 285.657 220.489 285.503 220.489 285.316C220.489 285.124 220.637 284.97 220.819 284.97H231.799C231.98 284.97 232.129 285.124 232.129 285.316C232.129 285.503 231.98 285.657 231.799 285.657Z" fill="#1C468A"/>
<path d="M233.928 287.096H218.689C218.507 287.096 218.359 286.942 218.359 286.751C218.359 286.564 218.507 286.41 218.689 286.41H233.928C234.11 286.41 234.259 286.564 234.259 286.751C234.259 286.942 234.11 287.096 233.928 287.096Z" fill="#1C468A"/>
<path d="M237.549 299.023H215.068C214.861 299.023 214.691 298.844 214.691 298.628C214.691 298.411 214.861 298.237 215.068 298.237H237.549C237.757 298.237 237.927 298.411 237.927 298.628C237.927 298.844 237.757 299.023 237.549 299.023Z" fill="#1C468A"/>
<path d="M237.549 300.987H215.068C214.861 300.987 214.691 300.808 214.691 300.591C214.691 300.375 214.861 300.2 215.068 300.2H237.549C237.757 300.2 237.927 300.375 237.927 300.591C237.927 300.808 237.757 300.987 237.549 300.987Z" fill="#1C468A"/>
<path d="M237.549 302.7H215.068C214.861 302.7 214.691 302.526 214.691 302.309C214.691 302.093 214.861 301.918 215.068 301.918H237.549C237.757 301.918 237.927 302.093 237.927 302.309C237.927 302.526 237.757 302.7 237.549 302.7Z" fill="#1C468A"/>
<path d="M237.549 304.581H215.068C214.861 304.581 214.691 304.406 214.691 304.19C214.691 303.973 214.861 303.799 215.068 303.799H237.549C237.757 303.799 237.927 303.973 237.927 304.19C237.927 304.406 237.757 304.581 237.549 304.581Z" fill="#1C468A"/>
<path d="M236.438 318.658C236.323 318.434 236.489 318.155 236.679 317.972C236.604 318.201 236.524 318.434 236.438 318.658ZM236.088 315.347C236.086 315.23 236.144 315.022 236.271 315.022C236.214 315.151 236.155 315.28 236.093 315.409C236.091 315.388 236.089 315.368 236.088 315.347ZM239.442 315.73C238.733 316.341 237.974 316.849 237.175 317.314C237.243 317.094 237.299 316.865 237.289 316.661C237.275 316.383 237.059 316.258 236.844 316.141C236.791 316.112 236.741 316.083 236.691 316.054C236.775 315.967 236.818 315.85 236.763 315.721C236.672 315.509 236.417 315.542 236.33 315.738C236.314 315.775 236.305 315.813 236.301 315.846C236.266 315.825 236.239 315.804 236.217 315.775C236.348 315.521 236.472 315.264 236.586 314.997C236.611 314.939 236.579 314.868 236.533 314.831C236.344 314.681 236.085 314.731 235.933 314.918C235.753 315.139 235.798 315.476 235.885 315.725C235.891 315.742 235.897 315.759 235.904 315.779C235.737 316.091 235.555 316.399 235.36 316.695C235.342 316.674 235.324 316.657 235.305 316.636C235.254 316.586 235.2 316.52 235.153 316.445C235.242 316.204 235.299 315.95 235.321 315.688C235.33 315.567 235.217 315.509 235.122 315.546C234.86 315.646 234.718 315.925 234.752 316.208C234.764 316.308 234.794 316.399 234.838 316.487C234.779 316.62 234.709 316.749 234.627 316.869C234.574 316.953 234.612 317.032 234.675 317.069C234.589 317.369 234.473 317.672 234.275 317.889C234.113 318.063 233.812 318.196 233.616 317.988C233.491 317.855 233.475 317.635 233.458 317.46C233.416 317.032 233.385 316.586 233.4 316.158C233.408 315.954 233.428 315.746 233.496 315.551C233.537 315.43 233.596 315.251 233.652 315.455C233.679 315.559 233.641 315.717 233.632 315.817C233.614 316.004 233.889 316.025 233.907 315.842C233.928 315.626 234.02 315.172 233.786 315.035C233.591 314.922 233.411 315.085 233.321 315.251C232.996 315.858 233.125 316.69 233.174 317.352C233.213 317.876 233.402 318.521 234.048 318.354C234.655 318.196 234.879 317.402 235.018 316.853C235.027 316.819 235.025 316.786 235.014 316.761C235.017 316.757 235.019 316.753 235.022 316.749C235.047 316.774 235.072 316.799 235.098 316.828C235.134 316.861 235.168 316.894 235.201 316.932C235.137 317.023 235.072 317.115 235.006 317.202C234.968 317.256 234.979 317.331 235.016 317.377C235.221 317.635 235.588 317.443 235.581 317.131C235.579 317.057 235.562 316.994 235.535 316.932C235.727 316.645 235.906 316.349 236.073 316.05C236.159 316.137 236.269 316.191 236.404 316.187C236.413 316.187 236.422 316.183 236.432 316.183C236.502 316.262 236.591 316.324 236.672 316.374C236.751 316.42 236.841 316.449 236.912 316.507C237.043 316.62 237.004 316.745 236.975 316.903C236.937 317.111 236.873 317.319 236.815 317.522C236.537 317.689 236.263 317.897 236.169 318.23C236.084 318.533 236.16 318.854 236.41 319.041C236.485 319.099 236.585 319.053 236.617 318.97C236.774 318.571 236.916 318.163 237.037 317.747C237.041 317.735 237.045 317.722 237.049 317.71C237.295 317.564 237.551 317.435 237.794 317.29C238.438 316.89 239.048 316.441 239.624 315.942C239.76 315.825 239.578 315.609 239.442 315.73Z" fill="#1C468A"/>
<path d="M208.821 331.205H244.069V281.455H208.821V331.205ZM244.482 331.633H208.408V281.027H244.482V331.633Z" fill="#1C468A"/>
<path d="M232.129 275.045C232.129 275.045 224.862 281.534 227.478 282.508C230.094 283.485 237.116 279.155 238.493 279.155C239.87 279.155 243.037 279.155 243.037 279.155C243.037 279.155 238.548 273.755 236.18 273.901C233.812 274.042 232.129 275.045 232.129 275.045Z" fill="#FFB27D"/>
<path d="M190.718 263.522L181.556 339.841C180.837 339.7 180.094 339.508 179.338 339.275L168.883 335.111L168.838 335.094C168.838 335.094 172.06 331.633 176.43 319.611C180.801 307.588 190.718 263.522 190.718 263.522Z" fill="#233862"/>
<path d="M417.085 349.658C417.085 349.658 420.94 358.311 420.732 360.674C420.528 363.037 417.085 370.546 417.085 370.546L412.922 350.665L417.085 349.658Z" fill="#FFB27D"/>
<path d="M414.055 312.447L417.085 349.659L412.922 350.665L401.941 316.919L414.055 312.447Z" fill="#FFB27D"/>
<path d="M324.545 192.926L365.897 167.559L394.303 188.246L354.953 212.087L324.545 192.926Z" fill="#233862"/>
<path d="M345.789 204.616C345.789 204.616 344.728 210.864 338.948 214.084C333.163 217.304 328.208 218.248 329.448 228.615C330.685 238.982 323.87 241.341 322.631 248.209C321.392 255.081 321.544 267.632 338.119 263.879C354.696 260.127 392.658 262.806 396.781 257.223C400.908 251.645 398.018 240.055 390.993 231.257C383.971 222.454 393.266 216.697 389.96 208.955C386.657 201.209 380.316 193.238 380.316 193.238C380.316 193.238 353.043 187.851 345.789 204.616Z" fill="#132644"/>
<path d="M353.619 490.046L359.212 514.528L367.59 514.478L367.899 490.046H353.619Z" fill="#FFB27D"/>
<path d="M424.094 491.09L440.007 514.528L446.212 506.253L436.632 487.87L424.094 491.09Z" fill="#FFB27D"/>
<path d="M375.625 243.337C375.685 243.362 374.604 270.589 370.112 270.639C369.167 270.648 362.226 251.574 361.341 251.325C356.538 249.96 355.861 237.746 355.925 237.734C357.959 237.314 358.547 234.41 358.503 221.926L359.424 222.113L374.884 225.295C374.884 225.295 374.532 230.354 374.524 235.117C374.512 239.115 374.744 242.909 375.625 243.337Z" fill="#FFB27D"/>
<path d="M313.17 216.018L312.666 214.92C323.916 209.358 324.521 196.208 324.505 193.167C324.501 192.781 324.725 192.427 325.065 192.269C325.409 192.111 325.798 192.373 325.794 192.768C325.77 196.3 324.901 210.215 313.17 216.018Z" fill="#EFCBAB"/>
<path d="M312.666 214.92L311.097 215.178L311.999 217.058L313.17 216.018L312.666 214.92Z" fill="#D8A987"/>
<path d="M311.097 215.178C311.097 215.178 309.023 216.156 308.47 215.607C308.47 215.607 308.71 217.516 309.557 217.891C309.557 217.891 311.308 217.67 311.999 217.059L311.097 215.178Z" fill="#EFCBAB"/>
<path d="M374.884 225.295C374.884 225.295 374.532 230.354 374.524 235.117C365.869 234.863 361.297 226.66 359.424 222.113L374.884 225.295Z" fill="#EF9E67"/>
<path d="M356.241 222.679C356.241 222.679 350.381 216.31 348.103 210.294C346.478 205.997 345.457 189.024 361.89 188.059C361.89 188.059 366.618 187.564 371.573 189.711C375.512 191.416 381.533 195.622 378.735 211.205L378.227 216.376L356.241 222.679Z" fill="#132644"/>
<path d="M444.718 500.899C444.718 500.899 440.611 501.636 437.237 501.902C436.488 501.96 435.776 501.998 435.155 501.998C433.53 501.998 430.603 501.361 428.638 500.883L428.49 500.85C427.625 500.637 426.969 500.463 426.724 500.396L426.62 500.371C426.62 500.371 406.124 476.663 394.635 438.658C394.367 437.771 394.083 436.877 393.783 435.974C387.49 416.913 374.452 392.989 367.578 371.332C366.485 367.883 365.505 364.634 364.624 361.564C364.34 360.578 364.064 359.613 363.803 358.661C358.739 340.373 357.274 328.368 355.921 315.538L397.241 326.462C397.241 326.462 414.591 404.616 444.718 500.899Z" fill="#A53D38"/>
<path d="M377.59 227.837C377.59 227.837 357.591 232.384 355.057 219.396C352.523 206.409 348.235 198.251 360.897 194.798C373.563 191.346 377.018 195.776 378.875 199.899C380.737 204.021 382.726 226.319 377.59 227.837Z" fill="#FFB27D"/>
<path d="M369.976 192.564C369.976 192.564 367.438 208.955 359.444 212.978C351.45 216.996 347.335 215.415 347.335 215.415C347.335 215.415 352.767 208.718 352.302 199.116C352.302 199.116 364.424 186.183 369.976 192.564Z" fill="#132644"/>
<path d="M368.855 194.087C368.855 194.087 373.619 196.633 375.26 199.728C376.902 202.827 380.316 203.925 380.536 208.913C380.536 208.913 382.666 197.685 376.878 192.802C370.741 187.622 368.855 194.087 368.855 194.087Z" fill="#132644"/>
<path d="M358.932 513.159C358.932 513.159 359.608 518.01 357.863 523.197C357.863 523.197 356.494 529.691 362.646 529.811C368.799 529.932 370.308 529.329 369.612 525.348C368.915 521.367 367.59 514.478 367.59 514.478L358.932 513.159Z" fill="#FFB27D"/>
<path d="M357.863 523.197C357.863 523.197 356.726 529.329 357.422 532.586C357.422 532.586 359.28 534.034 363.751 534.034C367.987 534.034 370.192 532.586 370.192 532.586C370.192 532.586 370.324 525.868 369.192 523.031C369.192 523.031 364.832 529.832 357.863 523.197Z" fill="#C45446"/>
<path d="M461.039 525.997C461.039 525.997 449.694 512.909 446.212 506.253L437.773 510.742L456.632 529.146L461.043 528.543L461.039 525.997Z" fill="#FFB27D"/>
<path d="M468.245 533.668C468.245 533.668 456.055 533.668 453.966 533.422C451.876 533.185 450.191 530.049 447.929 525.339C447 523.417 444.923 522.357 442.789 521.774V532.669H439.571L436.52 521.088C434.511 517.252 436.36 513.775 437.773 510.742C439.418 510.742 443.842 511.911 452.224 521.72C454.979 524.944 458.017 526.092 461.039 525.997C461.079 526.026 461.123 526.047 461.163 526.063C468.129 529.325 468.245 533.668 468.245 533.668Z" fill="#C45446"/>
<path d="M437.237 501.902C436.488 501.96 435.776 501.998 435.155 501.998C433.53 501.998 430.603 501.361 428.638 500.883L428.49 500.85L426.724 500.396L426.62 500.371C426.62 500.371 406.124 476.663 394.635 438.658C394.367 437.771 394.083 436.877 393.783 435.974C387.49 416.913 374.452 392.989 367.578 371.332C366.485 367.883 365.505 364.634 364.624 361.564C364.34 360.578 364.064 359.613 363.803 358.661L371.109 352.895C371.109 352.895 393.05 389.815 399.843 424.559C405.476 453.359 429.715 490.695 437.237 501.902Z" fill="#912F2F"/>
<path d="M371.878 427.8C372.002 444.694 371.177 483.54 369.06 499.622C369.06 499.622 367.054 501.469 362.074 501.49C356.974 501.511 354.692 499.556 354.692 499.556C349.38 471.596 345.601 448.459 342.851 428.524C340.593 412.162 338.588 398.135 337.043 386.059C335.677 375.363 344.316 346.385 344.316 346.385L376.75 343.098C376.209 372.705 371.806 417.978 371.878 427.8Z" fill="#A53D38"/>
<path d="M362.074 501.49C357.735 501.752 354.692 499.556 354.692 499.556C349.38 471.596 345.601 448.459 342.851 428.524C340.593 412.163 338.588 398.135 337.043 386.059C335.677 375.363 344.316 346.385 344.316 346.385L355.313 353.694C355.313 353.694 339.717 368.437 343.548 396.309C347.379 424.177 356.738 497.542 362.074 501.49Z" fill="#912F2F"/>
<path d="M413.158 323.047C411.132 323.754 408.846 324.17 406.589 324.511C402.998 325.056 399.487 325.406 397.241 326.462C390.616 329.586 374.544 237.372 374.544 237.372C374.544 237.372 386.241 237.488 391.613 246.282C396.981 255.081 417.878 298.524 419.739 312.447C420.572 318.708 417.449 321.541 413.158 323.047Z" fill="#1C468A"/>
<path d="M437.237 447.414C437.237 447.414 436.16 450.202 433.214 454.116C431.745 456.067 429.811 458.293 427.317 460.593C420.748 466.638 410.272 473.181 394.095 476.426C393.234 476.597 392.366 476.759 391.473 476.917C386.597 477.753 381.914 478.352 377.454 478.76C368.383 479.588 360.225 479.634 353.287 479.297C348.54 479.072 344.36 478.664 340.854 478.207C332.931 477.183 328.416 475.915 328.416 475.915C328.416 475.915 328.416 392.581 335.021 343.098C338.684 315.692 350.953 237.75 350.953 237.75L357.054 236.777L371.682 270.639L374.544 237.372L381.197 239.589C384.464 240.683 386.958 243.445 387.794 246.902L437.237 447.414Z" fill="#1C468A"/>
<path d="M390.088 319.411L356.149 315.834L361.65 264.736L395.588 268.31L390.088 319.411Z" fill="#BC3F3F"/>
<path d="M361.65 264.736L359.472 264.566L354.36 315.621L356.149 315.833L361.65 264.736Z" fill="#9B2323"/>
<path d="M333.183 291.069C333.183 291.069 357.014 298.636 379.784 302.022C379.784 302.022 387.302 305.396 383.771 306.324C382.866 306.561 337.263 316.894 330.501 310.188L333.183 291.069Z" fill="#FFB27D"/>
<path d="M356.998 236.777C356.998 236.777 339.168 239.019 336.17 242.759C326.686 254.586 318.087 305.088 325.522 316.749C334.404 330.676 348.083 308.816 352.37 295.94C354.596 289.264 358.219 248.92 356.998 236.777Z" fill="#1C468A"/>
<path d="M377.542 301.673C377.542 301.673 380.34 301.402 380.873 300.475C381.934 298.615 383.615 298.636 385.016 298.391C386.417 298.145 387.99 296.552 388.266 296.876C388.547 297.197 387.234 298.952 386.501 299.605C386.501 299.605 388.006 299.701 388.999 299.21C389.996 298.715 393.487 294.576 393.503 296.356C393.543 300.65 393.222 301.336 389.684 304.373C386.777 306.865 376.918 307.788 376.918 307.788L377.542 301.673Z" fill="#FFB27D"/>
<path d="M356.95 289.954L356.254 297.209C355.153 296.964 353.868 296.56 352.371 295.94C342.595 291.872 346.454 271.679 346.454 271.679C347.975 279.758 352.875 285.998 356.95 289.954Z" fill="#233862"/>
<path d="M380.316 193.238C380.316 193.238 365.861 187.531 345.789 204.616L346.198 200.714C346.566 197.224 348.295 194.037 351.01 191.945C354.068 189.59 358.944 186.99 366.269 185.917C371.301 185.18 376.313 187.41 379.268 191.707L380.316 193.238Z" fill="#1C468A"/>
<path d="M413.158 323.047C411.132 323.754 408.847 324.17 406.589 324.511L397.209 281.493C397.209 281.493 412.994 314.561 413.158 323.047Z" fill="#233862"/>
<path d="M370.428 220.698C370.428 220.698 371.349 222.545 372.702 222.558C374.055 222.566 377.506 222.209 377.758 221.88C378.006 221.551 378.663 219.592 378.663 219.592C378.663 219.592 372.982 219.484 370.428 220.698Z" fill="white"/>
<path d="M835.519 275.398C835.519 275.398 834.017 273.21 832.313 271.841C830.603 270.473 828.804 267.906 829.33 267.074C829.857 266.242 834.987 262.328 834.987 262.328L837.722 269.354L835.519 275.398Z" fill="#FFB27D"/>
<path d="M879.761 193.436L924.399 175.05L949.373 200.071L906.936 217.272L879.761 193.436Z" fill="#233862"/>
<path d="M855.403 292.559L837.627 268.842L835.518 275.399C835.518 275.399 853.715 318.421 862.054 314.419C865.943 312.555 855.403 292.559 855.403 292.559Z" fill="#FFB27D"/>
<path d="M910.959 215.197C910.959 215.197 902.291 220.506 907.609 230.792C907.609 230.792 900.018 229.348 898.378 226.992C898.378 226.992 898.57 227.973 898.854 228.468C898.854 228.468 889.951 227.294 888.31 223.846C884.935 216.742 893.133 217.186 896.681 209.809C901.319 200.171 908.588 192.597 918.866 197.915C918.866 197.915 933.243 197.101 926.742 216.244C920.247 235.386 926.383 237.077 926.383 237.077C926.383 237.077 924.457 237.481 923.633 237.254C923.633 237.254 922.544 236.445 922.488 235.687C922.488 235.687 922.445 236.84 922.668 237.272C922.668 237.272 915.869 236.101 913.225 232.589C910.575 229.078 908.99 218.973 910.959 215.197Z" fill="#C94C43"/>
<path d="M898.438 246.016C898.426 246.02 898.42 246.024 898.408 246.028C898.355 246.02 898.366 246.016 898.438 246.016Z" fill="#FFB27D"/>
<path d="M919.514 239.711C919.765 242.085 920.071 244.214 920.206 245.228C920.31 245.956 921.889 258.901 918.994 259.03C916.098 259.16 908.941 274.501 905.721 274.375C902.115 274.234 898.913 246.019 898.436 246.018C899.36 245.6 902.176 236.32 903.064 232.781C904.148 228.486 904.993 223.848 904.993 223.848L919.649 224.81L920.518 224.867C919.979 226.943 919.594 228.904 919.33 230.724C919.294 230.969 919.257 231.217 919.226 231.458C918.963 233.478 919.202 236.781 919.514 239.711Z" fill="#FFB27D"/>
<path d="M902.978 222.312C902.978 222.312 900.597 214.482 901.081 208.477C901.422 204.191 907.995 192.032 922.116 198.255C922.116 198.255 925.564 197.399 928.857 201.312C931.468 204.426 934.842 210.518 926.327 222.347L923.846 226.454L902.978 222.312Z" fill="#C94C43"/>
<path d="M919.514 239.712C909.26 236.591 904.911 224.285 904.911 224.285C909.248 224.417 914.897 227.545 919.325 230.724C919.294 230.968 919.258 231.217 919.227 231.458C918.964 233.478 919.197 236.781 919.514 239.712Z" fill="#ED975D"/>
<path d="M920.247 235.386C920.247 235.386 901.724 230.629 904.755 218.689C907.781 206.748 907.428 198.092 919.381 200.625C931.341 203.157 932.467 208.34 932.392 212.581C932.312 216.822 925.141 236.316 920.247 235.386Z" fill="#FFB27D"/>
<path d="M927.853 202.644C927.853 202.644 919.237 215.259 910.96 215.198C902.683 215.137 899.875 212.055 899.875 212.055C899.875 212.055 907.068 208.783 910.486 200.558C910.486 200.558 925.741 194.93 927.853 202.644Z" fill="#C94C43"/>
<path d="M926.309 203.437C926.309 203.437 929.285 207.602 929.427 210.894C929.576 214.186 928.396 220.558 930.204 220.828C930.204 220.828 936.434 212.356 933.527 205.795C930.446 198.838 926.309 203.437 926.309 203.437Z" fill="#C94C43"/>
<path d="M926.89 204.102C926.89 204.102 919.559 217.777 908.585 219.785C908.585 219.785 920.661 213.464 923.954 204.011C927.253 194.559 926.89 204.102 926.89 204.102Z" fill="#C94C43"/>
<path d="M917.354 227.732C917.354 227.732 917.587 229.55 918.698 229.98C919.815 230.41 922.78 231.189 923.074 230.996C923.375 230.803 924.486 229.386 924.486 229.386C924.486 229.386 919.821 227.525 917.354 227.732Z" fill="white"/>
<path d="M910.439 410.385C910.201 411.405 909.969 412.415 909.737 413.418C908.339 419.446 907.039 425.037 906.221 429.721C905.153 435.807 904.903 440.338 906.301 442.239C909.908 447.152 908.993 473.435 907.802 492.358C907.1 503.62 906.301 512.273 906.301 512.273L899.757 519.278C899.757 519.278 897.682 508.1 895.069 494.539C891.553 476.309 887.06 453.774 885.29 448.254C883.886 443.878 881.841 425.199 880.034 406.13C879.943 405.177 879.851 404.225 879.766 403.267C879.455 399.931 879.149 396.608 878.862 393.363C877.245 375.325 879.589 358.335 879.589 358.335C879.589 358.335 888.104 351.051 899.067 350.069C905.525 349.487 911.605 351.621 914.608 359.874C918.979 371.876 914.547 392.597 910.439 410.385Z" fill="#FFB27D"/>
<path d="M910.439 410.382C901.472 403.651 888.849 391.674 884.271 372.039C883.398 362.275 890.802 353.003 899.067 350.07C905.526 349.483 911.605 351.621 914.609 359.871C918.979 371.872 914.554 392.601 910.439 410.382Z" fill="#ED975D"/>
<path d="M943.144 291.784L987.218 303.62V308.965C987.218 308.965 943.359 308.433 940.528 303.353C937.697 298.274 943.144 291.784 943.144 291.784Z" fill="#FFB27D"/>
<path d="M987.218 468.077L985.164 476.913C985.164 476.913 976.051 472.025 964.499 465.706C946.483 455.851 922.519 442.51 917.822 438.766C914.724 436.294 910.628 422.887 906.844 407.719C901.196 385.106 896.219 358.59 896.219 358.59C896.219 358.59 904.574 325.181 926.954 345.628C940.339 357.862 938.258 381.441 936.791 399.778C935.812 412.079 935.114 422.026 939.556 424.601C945.929 428.299 961.382 441.811 972.301 455.035C976.221 459.778 979.548 464.483 981.674 468.685L987.218 468.077Z" fill="#FFB27D"/>
<path d="M987.218 303.619C987.218 303.619 995.312 299.48 998.528 299.076C1001.74 298.677 1007.14 298.544 1007.14 299.076C1007.14 299.613 1001.35 303.349 999.81 303.619C998.262 303.889 995.312 306.161 996.209 306.427C997.106 306.694 1001.87 305.558 1001.93 306.427C1002 307.296 999.039 307.829 998.528 308.499C998.009 309.164 996.209 309.968 993.318 309.568C990.421 309.164 987.218 308.965 987.218 308.965V303.619Z" fill="#FFB27D"/>
<path d="M987.219 429.551C958.76 472.137 885.326 476.913 885.326 476.913C873.409 431.693 878.288 317.36 881.021 274.861C880.851 267.44 881.125 261.164 882.299 258.75C884.126 254.986 894.047 248.461 897.615 245.219C897.615 245.219 898.443 244.871 899.154 244.814C899.689 246.761 906.303 270.094 906.962 269.607C907.608 269.129 918.775 246.959 919.949 244.339C921.149 244.376 921.971 244.404 922.206 244.42C924.176 244.518 934.795 246.728 935.682 248.509C935.995 249.129 939.048 257.526 942.87 268.642C942.87 268.642 942.87 268.651 942.877 268.671C950.058 289.525 960.593 285.611 964.774 291.788C967.402 295.666 966.267 302.904 961.395 309.161C960.977 309.693 960.54 310.213 960.071 310.725C956.366 314.806 951.33 317.218 943.137 315.966C941.102 315.655 936.986 313.608 933.621 310.588C941.683 342.05 987.219 429.551 987.219 429.551Z" fill="#1C468A"/>
<path d="M899.647 243.726L895.792 246.016C895.792 246.016 906.31 276.945 906.832 276.808C907.353 276.67 923.155 244.526 923.155 244.526L919.931 243.129L906.96 269.606L899.647 243.726Z" fill="#F99746"/>
<path d="M932.447 203.851C932.447 203.851 918.96 195.991 896.681 209.811L897.64 206.012C898.5 202.618 900.659 199.73 903.647 198.079C907.001 196.217 912.197 194.395 919.591 194.456C924.67 194.498 929.316 197.475 931.624 202.179L932.447 203.851Z" fill="#1C468A"/>
<path d="M865.236 213.931L864.901 212.764C876.852 209.084 879.412 196.193 879.847 193.188C879.906 192.802 880.176 192.49 880.534 192.39C880.898 192.288 881.245 192.611 881.18 192.998C880.628 196.485 877.692 210.092 865.236 213.931Z" fill="#EFCBAB"/>
<path d="M864.903 212.763H863.315L863.928 214.765L865.238 213.929L864.903 212.763Z" fill="#D8A987"/>
<path d="M863.316 212.762C863.316 212.762 861.125 213.395 860.663 212.762C860.663 212.762 860.611 214.689 861.395 215.196C861.395 215.196 863.154 215.258 863.927 214.765L863.316 212.762Z" fill="#EFCBAB"/>
<path d="M900.43 246.511C900.43 246.511 903.955 253.241 917.981 247.11L906.961 269.607L900.43 246.511Z" fill="white"/>
<path d="M895.789 246.014C895.789 246.014 893.959 310.038 878.762 322.447C877.695 323.325 876.556 323.945 875.345 324.265C867.667 326.299 862.092 321.548 858.318 314.963C853.066 305.815 851.289 293.136 852.184 290.211C853.877 284.65 857.782 294.487 865.979 291.788C874.177 289.084 876.383 254.771 882.112 249.766C883.603 248.463 895.789 246.014 895.789 246.014Z" fill="#1C468A"/>
<path d="M821.636 291.577C821.636 291.577 819.348 290.292 817.163 288.64C816.165 287.87 815.184 287.034 814.462 286.202C814.054 285.728 813.727 285.266 813.527 284.817C813.527 284.817 832.079 261.609 833.553 258.879C835.027 256.15 849.026 233.639 849.026 233.639C849.026 233.639 850.741 234.475 852.794 235.859C853.557 236.375 854.371 236.971 855.157 237.624C856.608 238.835 857.979 240.259 858.805 241.793C858.805 241.793 838.422 263.254 836.989 266.347C835.549 269.446 821.636 291.577 821.636 291.577Z" fill="#EFCBAB"/>
<path d="M817.162 288.641C816.163 287.871 815.18 287.035 814.46 286.203C814.055 285.728 813.723 285.267 813.523 284.818C813.523 284.818 832.078 261.609 833.552 258.88C835.026 256.15 849.022 233.639 849.022 233.639C849.022 233.639 850.735 234.476 852.792 235.859C853.558 236.376 854.374 236.971 855.157 237.624C849.439 243.692 833.986 260.235 832.666 263.072C831.393 265.831 821.333 281.985 817.162 288.641Z" fill="#DDB08E"/>
<path d="M836.251 254.348C836.251 254.348 830.774 259.865 830.148 263.627L835.873 268.397C835.873 268.397 840.877 263.303 842.466 259.532L836.251 254.348Z" fill="#C94C43"/>
<path d="M837.629 268.843C837.629 268.843 838.016 265.099 837.186 263.779C836.356 262.461 836.283 258.83 835.515 259.216C834.741 259.602 835.24 262.576 834.747 264.013C834.259 265.453 833.547 272.138 835.515 273.406C837.477 274.68 837.629 268.843 837.629 268.843Z" fill="#FFB27D"/>
<path d="M832.078 259.446C832.078 259.446 829.799 259.08 828.969 260.652C828.139 262.223 827.108 264.779 828.674 265.79C830.245 266.801 832.078 259.446 832.078 259.446Z" fill="#FFB27D"/>
<path d="M907.802 492.359C907.101 503.62 906.299 512.273 906.299 512.273L899.756 519.278C899.756 519.278 897.68 508.1 895.066 494.539C895.066 494.539 902.406 497.189 907.802 492.359Z" fill="white"/>
<path d="M912.881 522.398L909.346 524.383C908.062 524.857 907.004 524.99 905.708 525.51C903.73 526.297 902.343 527.84 902.276 528.118C901.279 532.328 899.867 532.058 899.867 532.058L885.679 532.199C885.01 531.85 886.141 528.876 886.689 528.318C888.027 526.945 892.037 527.636 893.503 523.318C894.33 520.893 898.407 513.346 898.407 513.346L898.431 513.322C898.571 513.246 899.326 513.093 903.426 513.978C905.543 514.432 906.426 509.964 906.426 509.964C906.426 509.964 907.095 510.102 907.831 510.651C908.415 511.083 909.042 511.778 909.401 512.864C909.912 514.395 911.993 516.599 913.489 518.043C914.396 518.913 915.083 519.508 915.083 519.508C915.083 519.508 915.71 520.293 912.881 522.398Z" fill="#233862"/>
<path d="M987.219 468.077L985.164 476.913C985.164 476.913 976.052 472.025 964.5 465.706C968.994 462.744 971.212 458.351 972.301 455.035C976.221 459.778 979.548 464.483 981.674 468.685L987.219 468.077Z" fill="white"/>
<path d="M999.002 471.505C999.002 471.505 998.988 471.505 998.949 471.493C998.683 471.426 997.459 471.006 996.642 468.976C996.11 467.644 995.95 466.546 995.459 465.228L993.444 461.616C991.337 458.734 990.599 459.408 990.599 459.408C990.599 459.408 990.047 460.144 989.236 461.109C987.894 462.706 985.833 464.932 984.377 465.506C983.34 465.91 982.688 466.576 982.296 467.199C981.784 467.977 981.671 468.685 981.671 468.685C981.671 468.685 985.992 469.467 985.613 471.68C984.882 475.964 985.055 476.746 985.135 476.884L985.155 476.913C985.155 476.913 992.527 480.923 994.887 481.713C999.088 483.107 1001.28 486.073 1002.64 487.426C1003.18 487.974 1003.95 488.228 1004.7 488.103C1005.81 487.92 1007.24 487.55 1007.56 486.847L999.002 471.505Z" fill="#233862"/>
<path d="M904.053 289.362C904.053 288.144 905.001 287.149 906.179 287.149C907.357 287.149 908.311 288.144 908.311 289.362C908.311 290.586 907.357 291.576 906.179 291.576C905.001 291.576 904.053 290.586 904.053 289.362Z" fill="#233862"/>
<path d="M904.053 305.79C904.053 304.568 905.001 303.577 906.179 303.577C907.357 303.577 908.311 304.568 908.311 305.79C908.311 307.014 907.357 308.003 906.179 308.003C905.001 308.003 904.053 307.014 904.053 305.79Z" fill="#233862"/>
<path d="M961.392 309.162C960.978 309.694 960.539 310.214 960.068 310.726C956.358 314.806 951.33 317.22 943.139 315.967C941.103 315.655 936.978 313.609 933.618 310.588C933.618 310.588 926.865 291.411 927.776 288.707C928.686 286.003 941.694 307.027 952.495 308.005C956.714 308.392 959.572 308.746 961.392 309.162Z" fill="#233862"/>
<path d="M881.982 294.251L878.761 322.447C877.697 323.325 876.551 323.945 875.346 324.265C867.665 326.299 862.088 321.549 858.314 314.964C862.252 315.533 871.797 316.415 873.877 312.097C876.516 306.623 881.982 294.251 881.982 294.251Z" fill="#233862"/>
<path d="M695.627 140.663C695.627 140.663 699.457 137.08 700.387 134.568C701.321 132.05 701.207 127.833 701.207 125.093C701.207 125.093 700.058 124.671 699.776 125.98C699.49 127.283 698.98 130.301 697.916 130.911C696.853 131.52 694.478 131.451 693.93 134.568C693.381 137.68 695.627 140.663 695.627 140.663Z" fill="#B56F40"/>
<path d="M686.873 141.274C686.873 141.274 683.396 133.874 684.099 131.465C684.802 129.056 695.49 126.415 696.896 127.551C698.307 128.686 696.896 142.513 696.896 142.513L686.873 141.274Z" fill="#B56F40"/>
<path d="M799.333 364.198C799.333 364.198 798.82 370.309 800.864 373.229C802.907 376.15 804.019 378.808 804.7 377.477C805.382 376.15 803.589 371.549 804.188 371.636C804.782 371.723 806.439 377.123 807.273 378.808C808.106 380.489 809.894 383.147 811.087 381.816C812.281 380.489 809.981 367.917 809.044 366.324C808.106 364.731 806.15 361.19 806.15 361.19L799.333 364.198Z" fill="#B56F40"/>
<path d="M725.851 180.054L766.526 156.278L793.86 191.47L756.616 210.246L725.851 180.054Z" fill="#233862"/>
<path d="M742.931 191.267C742.931 191.267 742.081 195.063 739.698 196.41C737.309 197.756 741.054 201.406 740.12 204.096C739.181 206.787 742.968 210.248 742.968 210.248L769.24 213.392C769.24 213.392 773.089 211.656 773.428 206.964C773.767 202.272 774.174 196.41 774.174 196.41L762.699 187.31L746.17 188.122L742.931 191.267Z" fill="#C94C43"/>
<path d="M654.661 145.739C654.661 145.739 653.447 142.777 652.597 139.554C652.218 138.067 651.903 136.53 651.825 135.197C651.786 134.441 651.815 133.756 651.948 133.184C651.948 133.184 685.814 125.916 689.137 124.511C692.459 123.111 721.592 112.967 721.592 112.967C721.592 112.967 722.59 115.072 723.514 117.947C723.853 119.015 724.188 120.2 724.448 121.416C724.935 123.663 725.19 126.043 724.861 128.112C724.861 128.112 690.547 132.346 686.994 134.119C683.44 135.891 654.661 145.739 654.661 145.739Z" fill="#EFCBAB"/>
<path d="M652.593 139.555C652.215 138.07 651.9 136.534 651.822 135.202C651.783 134.447 651.812 133.758 651.945 133.187C651.945 133.187 685.814 125.92 689.134 124.516C692.458 123.113 721.588 112.968 721.588 112.968C721.588 112.968 722.585 115.075 723.509 117.949C723.852 119.02 724.181 120.204 724.446 121.414C714.782 122.649 688.574 126.114 685.318 127.736C682.155 129.313 661.231 136.58 652.593 139.555Z" fill="#DDB08E"/>
<path d="M694.886 122.379C694.886 122.379 685.847 123.286 682.57 126.302L684.486 135.162C684.486 135.162 692.79 134.29 696.963 132.004L694.886 122.379Z" fill="#C94C43"/>
<path d="M703.099 532.199C703.099 532.199 703.099 526.545 703.876 524.665C704.653 522.785 707.494 515.134 707.494 515.134H718.602C718.602 515.134 720.67 522.115 720.797 524.398C720.929 526.678 720.797 532.199 720.797 532.199H703.099Z" fill="#233862"/>
<path d="M773.633 532.2C773.633 532.2 773.633 526.547 772.856 524.666C772.084 522.786 769.244 515.136 769.244 515.136H758.131C758.131 515.136 756.061 522.116 755.936 524.4C755.806 526.679 755.936 532.2 755.936 532.2H773.633Z" fill="#233862"/>
<path d="M745.843 214.04C745.843 214.04 743.615 226.417 741.258 231.744L727.828 238.596L746.624 277.2L772.425 252.992L763.853 235.622C763.853 235.622 763.041 218.418 765.674 212.524C768.308 206.63 745.843 214.04 745.843 214.04Z" fill="#B56F40"/>
<path d="M745.525 215.746C745.525 215.742 747.798 225.353 754.623 226.241C761.452 227.129 764.184 219.387 764.184 219.387L745.525 215.746Z" fill="#99592E"/>
<path d="M754.364 222.629C749.447 221.751 741.394 213.485 742.639 205.043L744.592 191.87C745.045 188.788 747.488 186.597 750.015 187L768.808 190.006C771.339 190.41 773.032 193.262 772.574 196.345L770.74 208.772C769.428 217.623 759.995 223.635 754.364 222.629Z" fill="#B56F40"/>
<path d="M704.493 336.467C704.452 334.928 706.424 397.698 703.53 433.337C700.666 468.535 703.55 517.506 703.55 517.506C703.55 517.506 712.843 522.835 722.923 517.506C722.923 517.506 733.971 449.519 733.901 433.337C733.825 416.106 745.927 339.154 745.927 339.154L704.493 336.467Z" fill="#F99746"/>
<path d="M773.231 517.505C773.231 517.505 763.941 522.834 753.867 517.505C753.867 517.505 742.82 449.518 742.888 433.336C742.919 426.06 740.781 408.126 738.293 389.843C734.894 364.829 730.859 339.153 730.859 339.153L773.901 336.362C773.901 336.362 770.351 398.147 773.258 433.336C776.164 468.53 773.231 517.505 773.231 517.505Z" fill="#F99746"/>
<path d="M748.446 198.347C747.445 198.187 746.515 198.428 745.892 199.008C745.34 199.525 745.069 200.281 745.11 201.195C745.192 202.948 746.26 204.23 748.288 205.008C749.831 205.6 751.379 205.66 751.394 205.66L751.415 205.662C752.973 205.911 754.214 205.144 755.323 203.252C755.578 202.828 756.355 201.367 755.895 200.337C755.64 199.765 755.032 199.4 754.087 199.249L748.446 198.347ZM750.332 205.933C748.497 205.64 744.891 204.629 744.737 201.213C744.691 200.178 745.008 199.316 745.647 198.718C746.352 198.059 747.394 197.784 748.503 197.962L754.148 198.864C755.221 199.035 755.921 199.476 756.232 200.172C756.759 201.346 755.997 202.859 755.645 203.455C754.444 205.495 753.085 206.319 751.369 206.049C751.292 206.045 750.899 206.024 750.332 205.933Z" fill="#2C3A64"/>
<path d="M761.692 200.464C760.752 200.314 760.067 200.474 759.656 200.939C758.919 201.777 759.241 203.414 759.355 203.895C759.869 206.049 760.835 207.167 762.388 207.416L762.409 207.421C762.424 207.426 763.914 207.852 765.56 207.77C767.726 207.662 769.112 206.772 769.694 205.125C769.995 204.266 769.959 203.461 769.574 202.794C769.154 202.047 768.333 201.527 767.336 201.367L761.692 200.464ZM763.343 208.013C762.777 207.923 762.393 207.82 762.32 207.8C760.607 207.521 759.547 206.31 758.992 203.99C758.831 203.311 758.54 201.631 759.381 200.675C759.88 200.109 760.679 199.907 761.749 200.08L767.393 200.981C768.505 201.159 769.419 201.748 769.901 202.596C770.338 203.367 770.39 204.287 770.047 205.259C768.915 208.47 765.176 208.306 763.343 208.013Z" fill="#2C3A64"/>
<path d="M755.525 201.859C755.443 201.846 755.366 201.783 755.346 201.693C755.31 201.569 755.382 201.439 755.495 201.404C755.597 201.375 757.961 200.699 759.766 202.092C759.864 202.169 759.884 202.315 759.807 202.419C759.736 202.522 759.597 202.544 759.495 202.467C757.869 201.209 755.643 201.846 755.623 201.853C755.587 201.863 755.556 201.864 755.525 201.859Z" fill="#2C3A64"/>
<path d="M750.559 238.57L737.84 232.846C737.84 232.846 731.266 287.175 740.043 290.537C740.043 290.537 765.085 244.324 763.382 238.392L750.559 238.57Z" fill="white"/>
<path d="M742.512 229.401C742.512 229.401 738.928 230.04 737.053 231.9C737.053 231.9 739.78 241.108 747.022 243.852L750.129 238.57C750.129 238.57 744.22 235.667 742.512 229.401Z" fill="#D2E3FC"/>
<path d="M750.128 238.571C750.128 238.571 761.97 238.098 763.736 232.167C763.736 232.167 766.103 234.734 766.02 238.896C766.02 238.896 762.269 244.777 752.898 244.846L750.128 238.571Z" fill="#D2E3FC"/>
<path d="M751.118 213.389C751.118 213.389 757.423 213.679 760.204 214.842C760.204 214.842 758.28 217.211 755.766 216.809C753.253 216.406 751.488 215.146 751.118 213.389Z" fill="#FFF0E6"/>
<path d="M706.489 194.096C700.772 197.839 692.966 202.913 686.596 206.922C686.279 205.802 686.049 204.788 685.919 203.9C683.802 189.898 686.874 141.273 686.874 141.273C686.874 141.273 688.996 140.161 691.19 139.971C695.338 139.622 696.898 142.51 696.898 142.51C696.898 142.51 704.123 185.288 706.489 194.096Z" fill="#B56F40"/>
<path d="M807.726 363.215L803.415 365.079C796.515 367.629 789.076 364.189 786.826 356.95C783.785 347.199 783.474 336.695 782.346 328.051C781.795 323.799 781.158 315.034 778.678 308.207C778.673 308.203 778.673 308.199 778.673 308.199L783.005 459.34C718.092 464.12 686.424 425.345 686.424 425.345C684.751 384.427 700.479 292.229 706.212 260.276C703.449 253.786 683.813 235.151 680.527 216.857C679.001 208.362 683.78 202.353 689.579 198.296C696.876 193.184 705.798 191.166 705.798 191.166L726.774 220.312C727.668 221.359 728.295 222.183 728.54 222.703C730.158 226.129 738.557 231.812 738.557 231.812C738.535 231.992 739.461 280.947 741.178 282.511C743.647 281.537 760.198 247.098 763.86 235.62C769.125 237.126 774.814 239.17 780.814 241.917C780.814 241.917 792.177 248.218 793.785 275.684C795.153 298.976 808.843 328.708 811.949 355.719C812.32 358.918 810.592 361.984 807.726 363.215Z" fill="#1C468A"/>
<path d="M736.208 230.124C736.208 230.124 737.742 277.594 739.702 289.475L768.83 237.165L764.813 235.62L741.79 278.971L739.52 231.81L736.208 230.124Z" fill="#C94C43"/>
<path d="M742.512 228.28C742.512 228.28 738.928 228.919 737.053 230.779C737.053 230.779 739.78 239.986 747.022 242.73L750.129 238.57C750.129 238.57 744.22 234.546 742.512 228.28Z" fill="white"/>
<path d="M750.128 238.571C750.128 238.571 761.97 236.977 763.736 231.045C763.736 231.045 766.103 233.613 766.02 237.774C766.02 237.774 762.269 243.655 752.898 243.725L750.128 238.571Z" fill="white"/>
<path d="M732.748 294.548C732.748 293.312 733.716 292.31 734.898 292.31C736.09 292.31 737.053 293.312 737.053 294.548C737.053 295.779 736.09 296.782 734.898 296.782C733.716 296.782 732.748 295.779 732.748 294.548Z" fill="#233862"/>
<path d="M728.704 314.681C728.704 313.45 729.667 312.447 730.853 312.447C732.044 312.447 733.007 313.45 733.007 314.681C733.007 315.917 732.044 316.919 730.853 316.919C729.667 316.919 728.704 315.917 728.704 314.681Z" fill="#233862"/>
<path d="M728.793 202.334L729.51 201.63C722.3 193.732 725.65 183.226 726.55 180.847C726.663 180.541 726.589 180.197 726.372 179.965C726.149 179.732 725.769 179.818 725.655 180.125C724.647 182.906 721.277 194.096 728.793 202.334Z" fill="#EFCBAB"/>
<path d="M729.507 201.631L730.665 202.326L729.408 203.517L728.789 202.335L729.507 201.631Z" fill="#D8A987"/>
<path d="M730.661 202.327C730.661 202.327 732.006 203.747 732.596 203.489C732.596 203.489 731.852 204.913 731.078 204.941C731.078 204.941 729.769 204.216 729.406 203.518L730.661 202.327Z" fill="#EFCBAB"/>
<path d="M743.589 194.126C743.589 194.126 748.634 194.481 750.127 191.824C750.127 191.824 754.229 192.886 756.031 191.293C756.031 191.293 762.36 192.621 762.527 189.965C762.527 189.965 767.358 200.011 772.654 197.91C777.946 195.808 764.183 185.627 764.183 185.627L746.172 188.122L743.589 194.126Z" fill="#C94C43"/>
<path d="M743.964 186.602L742.932 191.268C742.932 191.268 756.999 186.077 774.174 196.41L773.976 188.891C773.934 187.422 773.287 186.042 772.203 185.108C769.094 182.45 761.667 177.228 747.907 181.384C745.978 181.967 744.413 184.569 743.964 186.602Z" fill="#1C468A"/>
<path d="M682.472 129.04C682.42 128.755 681.495 126.743 682.765 124.877C684.036 123.007 692.368 120.15 693.147 121.657C693.922 123.169 693.431 128.411 690.753 129.57C688.074 130.733 682.675 130.208 682.472 129.04Z" fill="#B56F40"/>
<path d="M706.209 260.278C703.445 253.788 683.808 235.154 680.525 216.859C678.999 208.365 683.774 202.355 689.576 198.299C689.576 198.299 686.86 211.146 694.567 222.74C702.283 234.334 706.209 260.278 706.209 260.278Z" fill="#233862"/>
<path d="M803.413 365.079C796.518 367.629 789.078 364.189 786.823 356.95C783.785 347.199 783.473 336.695 782.35 328.05C781.795 323.799 781.158 315.034 778.676 308.207C778.908 308.582 786.381 320.854 793.087 340.714C799.906 360.89 797.775 363.831 803.413 365.079Z" fill="#233862"/>
<path d="M1066.89 531.866H1030.28C1028.32 530.136 1031.64 526.208 1035.1 525.946C1036.61 525.83 1038.51 526.155 1040.69 526.633C1041.2 519.682 1044.07 488.42 1054.91 489.676C1067.11 491.081 1054.91 503.441 1051.47 510.758C1048.92 516.179 1046.22 523.954 1044.99 527.623C1045.98 527.843 1047.01 528.064 1048.05 528.263C1049.67 523.105 1055.68 505.763 1063.32 506.773C1072.31 507.959 1068.69 514.91 1062.34 519.037C1057.66 522.074 1051.93 526.388 1049.21 528.472C1051.52 528.863 1053.93 529.129 1056.37 529.067C1062.64 528.913 1065.7 530.835 1066.89 531.866Z" fill="#82B378"/>
<path d="M138.275 531.867C138.275 531.867 121.392 483.681 109.537 487.791C97.6829 491.897 138.275 531.867 138.275 531.867Z" fill="#82B378"/>
<path d="M131.809 531.867C130.372 531.867 103.431 502.813 101.634 510.418C99.8381 518.026 131.809 531.867 131.809 531.867Z" fill="#82B378"/>
<path d="M160.547 531.867C160.547 531.867 149.405 521.25 135.297 524.017C121.19 526.779 115.165 529.807 106.304 527.711C97.4435 525.618 92.9167 531.867 92.9167 531.867H160.547Z" fill="#82B378"/>
<path d="M548.972 411.821C551.57 407.591 529.681 360.811 541.43 334.766C542.895 331.521 570.177 336.367 570.177 336.367C570.177 336.367 575.757 402.149 572.622 419.555C570.409 431.852 566.069 468.144 563.719 488.386C563.711 488.453 563.703 488.515 563.695 488.582C563.139 493.395 562.691 497.284 562.414 499.701C562.202 501.532 562.41 503.379 563.019 505.109C564.76 510.06 568.535 520.31 570.425 521.72C570.425 521.72 560.101 524.79 558.119 523.584C556.138 522.386 551.098 503.474 551.098 503.474C551.974 501.715 552.283 499.714 551.986 497.754C551.598 495.179 551.002 491.144 550.333 486.173C550.333 486.173 550.333 486.173 550.333 486.177V486.173C541.43 448.737 542.771 421.926 548.972 411.821Z" fill="#FFB27D"/>
<path d="M490.662 495.766C492.084 494.443 493.056 492.688 493.441 490.745C493.953 488.191 494.77 484.197 495.834 479.301C500.238 441.012 510.606 416.427 519.845 409.251C523.712 406.247 519.145 354.443 538.992 334.391C541.466 331.895 565.341 346.451 565.341 346.451C565.341 346.451 548.187 410.033 539.34 425.167C533.088 435.858 516.687 468.214 507.604 486.29L507.608 486.294C505.402 490.666 503.633 494.206 502.536 496.398C501.719 498.029 501.283 499.839 501.263 501.677C501.207 506.948 500.526 521.067 502.528 522.299C503.769 523.064 504.849 523.909 505.746 524.77C505.746 524.77 496.331 523.929 495.182 523.863C494.045 523.8 486.827 500.325 486.687 499.876C486.687 499.872 486.687 499.872 486.687 499.872C488.132 498.241 489.598 496.76 490.662 495.766Z" fill="#FFB27D"/>
<path d="M482.012 508.508L479.646 522.902L480.899 523.867L488.305 512.751L482.012 508.508Z" fill="#233862"/>
<path d="M482.268 509.606C490.354 514.012 491.547 528.701 492.836 531.862L507.608 531.908C509.837 531.126 508.961 527.844 505.746 524.77C505.746 524.77 496.331 523.929 495.182 523.863C494.045 523.8 486.827 500.325 486.687 499.876C483.293 503.703 480.006 508.375 482.268 509.606Z" fill="#1C468A"/>
<path d="M495.182 460.926C495.835 479.305 531.018 475.773 531.018 475.773L535.67 452.398L538.752 436.881L539.781 431.739L538.236 430.978L515.854 419.938L508.845 416.476L508.56 417.396L496.491 456.666L496.487 456.683L495.182 460.926Z" fill="#F99746"/>
<path d="M496.487 456.683C506.651 445.821 535.669 452.398 535.669 452.398L538.752 436.881L538.235 430.978L515.854 419.938L508.56 417.396L496.491 456.666L496.487 456.683Z" fill="#EF7E29"/>
<path d="M548.427 518.139L550.353 531.858H552.487L553.491 521.225L548.427 518.139Z" fill="#233862"/>
<path d="M548.425 518.143C552.912 520.293 557.821 529.379 560.099 531.862L578.739 532C581.077 530.015 572.922 523.6 570.423 521.72C570.423 521.72 560.099 524.791 558.12 523.584C556.136 522.386 551.097 503.475 551.097 503.475C548.892 507.909 545.115 516.553 548.425 518.143Z" fill="#1C468A"/>
<path d="M539.785 424.962L544.413 477.748C553.012 489.076 575.725 482.116 575.725 482.116C575.725 482.116 577.451 438.511 578.33 436.793L575.038 435.786L539.785 424.962Z" fill="#F99746"/>
<path d="M539.779 424.964L544.406 477.75C544.647 451.771 576.979 454.383 576.979 454.383L575.032 435.788L539.779 424.964Z" fill="#EF7E29"/>
<path d="M579.387 177.007L531.95 157.473L505.417 184.06L550.51 202.336L579.387 177.007Z" fill="#233862"/>
<path d="M557.17 186.008C557.17 186.008 557.27 191.882 561.422 193.713C570.012 197.498 561.838 201.887 570.261 208.077C572.198 209.504 573.599 218.361 560.181 219.679C546.766 220.998 545.097 222.184 545.097 222.184C545.097 222.184 535.137 228.819 524.104 221.996C517.715 218.044 525.766 207.029 522.831 204.225C518.88 200.456 518.356 188.088 524.104 182.98C529.853 177.876 539.048 174.914 539.048 174.914L557.17 186.008Z" fill="#132644"/>
<path d="M594.817 198.782L595.171 197.541C582.481 193.63 579.759 179.933 579.29 176.741C579.232 176.33 578.948 176.001 578.557 175.894C578.174 175.787 577.811 176.129 577.873 176.54C578.462 180.245 581.579 194.704 594.817 198.782Z" fill="#EFCBAB"/>
<path d="M595.166 197.545H596.855L596.207 199.677L594.811 198.785L595.166 197.545Z" fill="#D8A987"/>
<path d="M596.862 197.541C596.862 197.541 599.196 198.217 599.685 197.541C599.685 197.541 599.739 199.591 598.91 200.13C598.91 200.13 597.036 200.194 596.211 199.669L596.862 197.541Z" fill="#EFCBAB"/>
<path d="M560.077 223.319C559.136 223.194 556.286 220.832 554.997 217.212C553.444 212.861 552.106 208.127 552.106 208.127L547.987 208.826L536.971 210.698L536.07 210.852C536.947 213.265 537.611 215.544 538.084 217.641C538.952 221.439 539.22 224.65 539.116 227.038C539.004 229.476 537.775 230.125 537.115 230.612C536.807 230.816 548.736 271.45 554.488 269.429C559.484 267.673 560.561 223.182 560.077 223.319Z" fill="#FFB27D"/>
<path d="M539.112 227.038C545.729 224.259 552.11 208.127 552.11 208.127C550.793 207.961 549.396 208.235 547.987 208.826C544.336 210.348 540.621 213.984 538.087 217.641C538.952 221.439 539.224 224.65 539.112 227.038Z" fill="#ED975D"/>
<path d="M534.889 220.474C534.889 220.474 554.556 217.163 552.383 204.466C550.209 191.77 551.282 182.788 538.632 184.369C525.982 185.946 524.381 191.242 524.113 195.664C523.848 200.086 529.717 221.011 534.889 220.474Z" fill="#FFB27D"/>
<path d="M533.14 232.268C533.14 232.268 499.954 221.888 497.596 219.005C495.234 216.118 489.498 177.801 489.494 172.284L484.666 173.004C484.666 173.004 481.087 216.589 485.234 226.477C489.377 236.361 531.23 251.936 531.23 251.936L533.14 232.268Z" fill="#FFB27D"/>
<path d="M559.08 222.828C559.08 222.828 555.005 236.032 539.048 227.725L555.805 266.03L560.181 231.781L559.08 222.828Z" fill="#F99746"/>
<path d="M572.641 226.718C572.641 226.718 570.631 233.588 609.057 255.354L637.404 235.185L640.808 238.146C640.808 238.146 613.631 272.186 609.387 271.463C605.143 270.739 575.965 250.769 575.965 250.769L572.641 226.718Z" fill="#FFB27D"/>
<path d="M468.174 396.966C468.174 396.966 469.218 400.385 471.591 405.323C475.683 413.822 483.713 426.826 497.148 434.626C512.386 443.483 561.746 460.406 595.648 452.211C595.648 452.211 592.439 340.71 585.316 294.866C585.155 293.802 584.985 292.774 584.815 291.788C586.883 300.021 597.49 302.729 601.84 301.211C611.395 297.87 614.714 290.153 615.168 281.987C615.869 269.416 609.761 255.766 609.06 255.353C593.394 246.111 590.49 231.439 582.88 226.199C576.084 221.523 559.874 222.75 559.08 222.833L555.528 259.468L539.05 227.725C539.025 227.716 512.454 225.317 497.593 219C497.593 219 453.148 282.902 508.183 282.062C508.183 296.78 501.566 310.155 495.182 330.048C488.854 349.775 468.174 396.966 468.174 396.966Z" fill="#1C468A"/>
<path d="M539.164 211.222C539.164 211.222 538.944 213.294 537.691 213.805C536.434 214.321 533.092 215.282 532.747 215.07C532.403 214.858 531.11 213.281 531.11 213.281C531.11 213.281 536.362 211.051 539.164 211.222Z" fill="white"/>
<path d="M489.606 172.309C489.606 172.309 491.639 170.841 490.566 166.806C489.85 164.106 490.334 161.914 489.782 161.98C489.197 162.051 488.741 165.554 488.397 166.415C488.108 167.147 483.693 158.465 482.56 159.147C481.427 159.825 479.23 163.257 484.506 175.122L489.606 172.309Z" fill="#FFB27D"/>
<path d="M637.406 235.184C637.406 235.184 640.425 227.743 641.432 226.21C643.422 223.174 649.091 221.276 649.46 222.62C649.826 223.958 645.822 225.941 645.649 229.035C645.604 229.893 647.296 228.227 648.338 227.579C648.971 227.189 649.345 227.513 649.015 228.009C647.35 230.53 646.441 233.117 644.852 234.073C643.257 235.029 640.808 238.145 640.808 238.145L637.406 235.184Z" fill="#FFB27D"/>
<path d="M559.08 222.828L555.529 259.47L539.112 227.038L533.14 227.063L557.29 272.724L563.487 222.637L559.08 222.828Z" fill="#AA443E"/>
<path d="M526.771 184.835C526.771 184.835 521.002 191.89 539.164 195.343C545.001 196.454 547.931 202.315 546.338 207.266C543.98 214.608 549.945 222.512 558.716 219.667C565.701 217.399 554.324 183.495 548.127 182.98C541.926 182.468 526.771 184.835 526.771 184.835Z" fill="#132644"/>
<path d="M533.14 186.457C533.14 186.457 527.307 190.813 526.811 194.299C526.314 197.789 524.953 202.773 522.724 199.249C520.494 195.73 520.121 190.963 522.724 187.747C525.326 184.527 531.146 183.08 532.387 184.19C533.628 185.301 533.14 186.457 533.14 186.457Z" fill="#132644"/>
<path d="M522.832 184.436C522.832 184.436 533.98 174.46 557.655 189.145L557.971 183.08C557.058 179.473 555.949 179.498 552.783 177.746C549.212 175.766 543.696 173.828 535.838 173.894C530.433 173.94 527.283 173.22 524.829 178.217L522.832 184.436Z" fill="#1C468A"/>
<path d="M670.391 254.114C670.391 254.114 672.488 251.744 674.322 248.999C675.163 247.729 675.948 246.392 676.452 245.163C676.733 244.465 676.927 243.81 676.983 243.224C676.983 243.224 647.409 224.602 644.725 222.126C642.045 219.649 617.858 199.967 617.858 199.967C617.858 199.967 616.241 201.603 614.444 203.991C613.778 204.881 613.086 205.881 612.443 206.934C611.265 208.883 610.258 211.041 609.898 213.103C609.898 213.103 640.877 229.021 643.658 231.924C646.439 234.829 670.391 254.114 670.391 254.114Z" fill="#EFCBAB"/>
<path d="M674.322 248.999C675.163 247.729 675.948 246.392 676.452 245.163C676.733 244.465 676.927 243.81 676.983 243.224C676.983 243.224 647.409 224.602 644.725 222.126C642.045 219.649 617.858 199.967 617.858 199.967C617.858 199.967 616.241 201.603 614.444 203.991C613.779 204.881 613.086 205.881 612.443 206.934C621.156 211.452 644.743 223.828 647.289 226.488C649.76 229.076 667.139 243.192 674.322 248.999Z" fill="#DDB08E"/>
<path d="M639.998 218.113C639.998 218.113 648.224 222.111 650.341 226.092L645.684 233.778C645.684 233.778 638.14 230.066 634.941 226.464L639.998 218.113Z" fill="#C94C43"/>
<path d="M644.846 234.074C644.846 234.074 646.925 233.192 648.169 231.577C649.414 229.961 651.104 227.351 649.017 228.01C646.925 228.669 643.204 231.392 641.799 231.646C640.394 231.9 640.902 233.031 640.809 233.354C640.706 233.677 644.846 234.074 644.846 234.074Z" fill="#FFB27D"/>
<path d="M468.173 396.966C468.173 396.966 469.218 400.386 471.591 405.323C480.498 395.535 492.912 379.943 501.563 361.19C516.487 328.838 508.184 282.063 508.184 282.063C508.184 296.781 501.567 310.155 495.182 330.048C488.853 349.775 468.173 396.966 468.173 396.966Z" fill="#233862"/>
<path d="M560.181 285.944C560.181 285.091 559.516 284.401 558.696 284.401C557.879 284.401 557.21 285.091 557.21 285.944C557.21 286.793 557.879 287.487 558.696 287.487C559.516 287.487 560.181 286.793 560.181 285.944Z" fill="#233862"/>
<path d="M560.181 313.995C560.181 313.142 559.516 312.451 558.696 312.451C557.879 312.451 557.21 313.142 557.21 313.995C557.21 314.848 557.879 315.538 558.696 315.538C559.516 315.538 560.181 314.848 560.181 313.995Z" fill="#233862"/>
<path d="M585.319 294.866C585.154 293.801 584.988 292.773 584.819 291.787C586.884 300.02 597.493 302.728 601.843 301.21C611.397 297.869 614.717 290.152 615.171 281.986C614.14 282.543 598.638 290.776 591.429 285.942C584.081 281.013 579.535 269.855 579.395 269.51L585.319 294.866Z" fill="#233862"/>
<path d="M897.694 144.288C897.694 144.288 893.333 147.697 888.297 147.414C884.563 147.204 880.746 143.803 880.591 143.574L877.866 149.07C877.866 149.07 884.838 153.013 890.591 151.562C892.353 151.119 895.155 149.142 896.398 147.702C897.766 146.116 897.694 144.288 897.694 144.288Z" fill="#6BB7BF"/>
<path d="M897.074 133.144L904.369 129.58C904.369 129.58 904.069 145.709 891.504 151.24C891.504 151.24 899.089 139.843 897.074 133.144Z" fill="#86D1CD"/>
<path d="M123.258 291.044C123.258 291.044 118.897 294.451 113.866 294.168C110.131 293.956 106.309 290.557 106.156 290.329L103.432 295.824C103.432 295.824 110.399 299.768 116.154 298.316C117.918 297.871 120.722 295.895 121.963 294.455C123.332 292.87 123.258 291.044 123.258 291.044Z" fill="#6BB7BF"/>
<path d="M122.638 279.899L129.938 276.334C129.938 276.334 129.636 292.463 117.07 297.991C117.07 297.991 124.655 286.597 122.638 279.899Z" fill="#86D1CD"/>
<path d="M710.647 39.3487C710.647 39.3487 721.259 31.6891 729.224 43.111L737.973 39.1982C737.973 39.1982 733.653 32.1095 716.695 35.2543C705.604 37.3093 710.647 39.3487 710.647 39.3487Z" fill="#5685D8"/>
<path d="M700.201 46.8379C700.201 46.8379 703.09 34.4514 724.851 34.4514C724.851 34.4514 716.695 35.253 710.328 46.2507L700.201 46.8379Z" fill="#739AF0"/>
<path d="M641.095 89.1184C641.095 89.1184 635.235 85.2736 634.619 80.6241C634.619 80.6241 628.909 80.9441 627.677 82.8688C627.677 82.8688 630.299 90.5631 633.383 92.0032C633.383 92.0032 640.321 92.4833 641.095 89.1184Z" fill="#ED7D2B"/>
<path d="M1029.61 413.178C1029.61 413.178 1023.74 409.33 1023.13 404.683C1023.13 404.683 1017.42 405.003 1016.19 406.926C1016.19 406.926 1018.81 414.617 1021.89 416.061C1021.89 416.061 1028.84 416.543 1029.61 413.178Z" fill="#ED7D2B"/>
<path d="M73.0092 402.416C73.0092 402.416 67.149 398.568 66.5321 393.921C66.5321 393.921 60.826 394.241 59.5923 396.167C59.5923 396.167 62.2143 403.859 65.2983 405.298C65.2983 405.298 72.2382 405.781 73.0092 402.416Z" fill="#ED7D2B"/>
</svg>
