<?xml version="1.0" encoding="UTF-8" standalone="no"?>
<!-- Created with Inkscape (http://www.inkscape.org/) -->

<svg
   version="1.1"
   id="svg2"
   width="666.66669"
   height="666.66669"
   viewBox="0 0 666.66669 666.66669"
   sodipodi:docname="4544310.eps"
   xmlns:inkscape="http://www.inkscape.org/namespaces/inkscape"
   xmlns:sodipodi="http://sodipodi.sourceforge.net/DTD/sodipodi-0.dtd"
   xmlns="http://www.w3.org/2000/svg"
   xmlns:svg="http://www.w3.org/2000/svg">
  <defs
     id="defs6">
    <clipPath
       clipPathUnits="userSpaceOnUse"
       id="clipPath28">
      <path
         d="m 4772.93,942.871 c -15.28,-17.98 -54.72,-31.34 -108.14,-41.101 -53.41,-9.93 -120.95,-16.27 -192.27,-20.211 -215.71,-12.161 -465.62,-2.399 -465.62,-2.399 l -201.88,4.969 -252.09,6.16 c 0,0 -3347.813,82.723 -3347.828,82.723 -28.547,0.269 -34.157,338.648 -33.5,373.838 2.121,113.64 8.414,227.16 18.882,340.15 10.895,117.58 1.895,251.96 70.418,348.93 32.536,46.03 76.918,74.68 101.817,128.38 25.851,55.75 33.527,122.19 35.152,184.82 3.004,115.45 -10.359,231.17 -2.668,346.32 5.832,87.17 25.305,177.48 69.731,249.02 47.605,76.67 124.793,77.99 199.367,94.62 57.445,12.81 119.508,40.83 144.027,103.28 27.41,69.8 4.934,149.18 26.539,220.46 19.313,63.72 77.852,93.76 127.848,118.95 116.035,58.45 243.795,72.32 364.115,114.18 32.75,11.4 66.44,26.03 89.15,56.02 57.93,76.51 46.29,184.92 118.05,257.84 72.94,74.13 175.16,93.38 271.54,93.58 98.31,0.21 194.62,-5.31 292.85,0.8 104.13,6.47 214.05,3.64 315.83,-24.62 134.35,-37.29 256.84,-121.22 395.77,-137.18 152.77,-17.55 306.17,17.49 458.22,29.76 201.93,16.29 416.74,3.76 615.73,-40.46 83.83,-18.62 173.62,-56.73 217.01,-149.57 31.34,-67.08 35.48,-149.83 73.91,-211.6 71.99,-115.72 200.85,-87.1 298.63,-144.07 107.98,-62.9 152.14,-213.64 186.18,-349.63 25.81,-103.1 70.96,-236.38 25.86,-340.02 -23.93,-54.99 -70.08,-91.39 -101.82,-140.61 -50.4,-78.14 -45.85,-167.09 -47.68,-259.87 -2.39,-120.7 2.59,-203.04 100.51,-262.94 99.14,-60.65 146.56,-120.96 160.5,-254.33 17.93,-171.65 31.15,-345.57 31.15,-518.62 0.01,-84.71 -0.64,-193.28 -55.29,-257.569 z"
         id="path26" />
    </clipPath>
  </defs>
  <sodipodi:namedview
     id="namedview4"
     pagecolor="#ffffff"
     bordercolor="#000000"
     borderopacity="0.25"
     inkscape:showpageshadow="2"
     inkscape:pageopacity="0.0"
     inkscape:pagecheckerboard="0"
     inkscape:deskcolor="#d1d1d1" />
  <g
     id="g8"
     inkscape:groupmode="layer"
     inkscape:label="ink_ext_XXXXXX"
     transform="matrix(1.3333333,0,0,-1.3333333,0,666.66667)">
    <g
       id="g10"
       transform="scale(0.1)">
      <path
         d="M 5000,0 H 0 V 5000 H 5000 V 0"
         style="fill:#f9fbfc;fill-opacity:1;fill-rule:nonzero;stroke:none"
         id="path12" />
      <path
         d="m 4772.93,942.871 c -15.28,-17.98 -54.72,-31.34 -108.14,-41.101 -53.41,-9.93 -120.95,-16.27 -192.27,-20.211 -215.71,-12.161 -465.62,-2.399 -465.62,-2.399 l -201.88,4.969 -252.09,6.16 c 0,0 -3347.813,82.723 -3347.828,82.723 -28.547,0.269 -34.157,338.648 -33.5,373.838 2.121,113.64 8.414,227.16 18.882,340.15 10.895,117.58 1.895,251.96 70.418,348.93 32.536,46.03 76.918,74.68 101.817,128.38 25.851,55.75 33.527,122.19 35.152,184.82 3.004,115.45 -10.359,231.17 -2.668,346.32 5.832,87.17 25.305,177.48 69.731,249.02 47.605,76.67 124.793,77.99 199.367,94.62 57.445,12.81 119.508,40.83 144.027,103.28 27.41,69.8 4.934,149.18 26.539,220.46 19.313,63.72 77.852,93.76 127.848,118.95 116.035,58.45 243.795,72.32 364.115,114.18 32.75,11.4 66.44,26.03 89.15,56.02 57.93,76.51 46.29,184.92 118.05,257.84 72.94,74.13 175.16,93.38 271.54,93.58 98.31,0.21 194.62,-5.31 292.85,0.8 104.13,6.47 214.05,3.64 315.83,-24.62 134.35,-37.29 256.84,-121.22 395.77,-137.18 152.77,-17.55 306.17,17.49 458.22,29.76 201.93,16.29 416.74,3.76 615.73,-40.46 83.83,-18.62 173.62,-56.73 217.01,-149.57 31.34,-67.08 35.48,-149.83 73.91,-211.6 71.99,-115.72 200.85,-87.1 298.63,-144.07 107.98,-62.9 152.14,-213.64 186.18,-349.63 25.81,-103.1 70.96,-236.38 25.86,-340.02 -23.93,-54.99 -70.08,-91.39 -101.82,-140.61 -50.4,-78.14 -45.85,-167.09 -47.68,-259.87 -2.39,-120.7 2.59,-203.04 100.51,-262.94 99.14,-60.65 146.56,-120.96 160.5,-254.33 17.93,-171.65 31.15,-345.57 31.15,-518.62 0.01,-84.71 -0.64,-193.28 -55.29,-257.569"
         style="fill:#d9e9f6;fill-opacity:1;fill-rule:nonzero;stroke:none"
         id="path14" />
      <path
         d="m 2659.35,3747.37 c 1.18,-29.42 -17.27,-51.49 -41.04,-49.1 -23.78,2.39 -44.24,27.94 -45.89,56.89 -1.64,28.95 16.62,50.81 40.84,48.89 24.22,-1.93 44.89,-27.26 46.09,-56.68"
         style="fill:#f9fbfc;fill-opacity:1;fill-rule:nonzero;stroke:none"
         id="path16" />
      <path
         d="m 4775.71,2417.72 c 5.46,-14.44 6.04,-30.72 5.96,-46.52 -0.06,-14.48 -0.61,-28.96 -1.64,-43.39 -1.04,-14.68 -2.74,-29.84 -9.34,-42.34 -4.09,-7.73 -9.87,-14.04 -16.16,-19.32 -56.16,-47.09 -126.09,-3.94 -144.43,67.93 -17.2,67.37 33.4,118.16 87.24,125.72 29.46,4.14 65.34,-7.67 78.37,-42.08"
         style="fill:#d9e9f6;fill-opacity:1;fill-rule:nonzero;stroke:none"
         id="path18" />
      <path
         d="m 766.57,2963.7 c 20.801,-1.46 44.86,-6.23 54.95,-27.69 4.027,-8.56 5.089,-18.63 5.062,-28.42 -0.043,-15.92 -3.074,-32.48 -11.699,-44.76 -9.973,-14.2 -25.828,-20.62 -41.207,-24.06 -16.063,-3.6 -32.449,-4.67 -48.789,-5.57 -13.508,-0.73 -27.813,-1.15 -39.645,6.58 -6.418,4.18 -11.637,10.51 -16.316,17.17 -7.434,10.57 -13.883,22.59 -16.016,36.08 -13.441,85.03 70.41,73.69 113.66,70.67"
         style="fill:#f9fbfc;fill-opacity:1;fill-rule:nonzero;stroke:none"
         id="path20" />
      <g
         id="g22">
        <g
           id="g24"
           clip-path="url(#clipPath28)">
          <path
             d="m 200.746,3104.01 -23.613,18.51 c 157.125,200.48 418.105,301.95 664.914,258.42 43.109,-7.59 85.781,-19.43 127.047,-30.88 51.526,-14.3 104.806,-29.08 158.086,-35.19 112.28,-12.84 227.62,12.72 324.82,72.02 55.71,34.01 105.98,79.3 154.6,123.11 51.84,46.7 105.45,95 166.76,131 128.97,75.71 290.08,92.08 430.98,43.79 49.29,-16.9 96.08,-41.3 141.33,-64.89 53.07,-27.67 107.94,-56.28 165.51,-71.72 123.1,-32.98 253.69,-5.8 379.98,20.49 44.27,9.23 90.06,18.76 135.08,25.64 217.77,33.27 440.94,6.45 645.4,-77.57 73.26,-30.1 144.31,-67.72 213.03,-104.09 66.45,-35.18 135.17,-71.56 205.24,-100.73 198.38,-82.6 415.41,-111.3 627.66,-83.01 l 3.96,-29.74 c -217.49,-28.99 -439.88,0.41 -643.16,85.05 -71.34,29.71 -140.68,66.42 -207.74,101.91 -68.08,36.05 -138.48,73.31 -210.4,102.87 -199.41,81.94 -417.1,108.1 -629.46,75.65 -44.22,-6.75 -89.61,-16.21 -133.5,-25.35 -129.72,-27 -263.86,-54.93 -393.85,-20.09 -60.76,16.29 -117.12,45.67 -171.61,74.09 -44.27,23.08 -90.05,46.94 -137.2,63.11 -132.73,45.5 -284.52,30.06 -406.07,-41.28 -58.68,-34.46 -111.13,-81.72 -161.86,-127.42 -49.63,-44.72 -100.96,-90.97 -159.06,-126.42 -102.86,-62.76 -224.97,-89.83 -343.86,-76.22 -55.62,6.37 -110.05,21.47 -162.69,36.08 -40.582,11.26 -82.539,22.9 -124.23,30.25 -232.399,40.96 -488.027,-58.46 -636.094,-247.39"
             style="fill:#f9fbfc;fill-opacity:1;fill-rule:nonzero;stroke:none"
             id="path30" />
          <path
             d="m 4531.68,2991.86 c -121.61,0 -231.15,12.41 -334.03,37.36 -160.07,38.82 -311.7,111.2 -458.34,181.21 -58.57,27.96 -119.13,56.87 -179.31,83.19 -266.25,116.47 -476.28,150.4 -660.94,106.82 -50.21,-11.85 -100.39,-30.13 -148.93,-47.82 -86.14,-31.38 -175.09,-63.86 -268.4,-61.97 -78.68,1.59 -154.17,27.65 -227.17,52.86 -42.57,14.69 -86.6,29.89 -130.57,39.96 -124.71,28.55 -258.58,16.99 -376.94,-32.53 -58.09,-24.31 -113.72,-58.06 -167.5,-90.71 -74.52,-45.21 -151.56,-91.96 -237.02,-114.92 -145.18,-39.01 -298.38,-6.21 -446.53,25.51 -172.305,36.89 -335.055,71.74 -486.43,3.71 l -8.191,18.24 c 157.348,70.72 330.93,33.55 498.812,-2.39 145.839,-31.23 296.629,-63.51 437.159,-25.76 82.7,22.23 158.51,68.23 231.82,112.71 54.42,33.03 110.69,67.17 170.16,92.05 122.18,51.14 260.36,63.06 389.13,33.58 45.02,-10.3 89.56,-25.68 132.63,-40.55 71.54,-24.7 145.51,-50.24 221.04,-51.76 89.54,-1.8 176.74,30.01 261.15,60.77 49.08,17.88 99.83,36.37 151.18,48.49 248.4,58.66 503.39,-33.52 673.56,-107.97 60.47,-26.45 121.19,-55.43 179.9,-83.46 145.72,-69.56 296.4,-141.5 454.45,-179.83 180.23,-43.69 381.71,-48.34 634.07,-14.59 l 2.65,-19.83 c -111.38,-14.89 -213.04,-22.37 -307.41,-22.37"
             style="fill:#f9fbfc;fill-opacity:1;fill-rule:nonzero;stroke:none"
             id="path32" />
          <path
             d="m 1188.34,3640 c -66.5,0 -132.37,6.37 -194.223,12.36 l 1.922,19.9 c 125.141,-12.11 266.991,-25.83 394.651,15.95 80.68,26.38 154.21,74.35 225.33,120.74 41.27,26.93 83.95,54.77 127.94,78.43 185.8,99.89 409.41,128.9 613.48,79.53 66.8,-16.15 132.72,-40.6 196.46,-64.23 103.6,-38.42 210.73,-78.15 321.23,-81.39 54.56,-1.56 110.13,5.78 163.86,12.92 50.65,6.73 102.81,13.77 155.21,13.32 94.9,-0.67 188.18,-25.44 278.39,-49.39 20.62,-5.46 41.21,-10.93 61.81,-16.12 241.42,-60.76 489.62,-83.72 737.64,-68.24 l 1.25,-19.96 c -250.12,-15.62 -500.35,7.53 -743.77,68.81 -20.68,5.2 -41.36,10.7 -62.05,16.19 -89.01,23.62 -181.05,48.05 -273.41,48.71 -50.66,0.28 -102.45,-6.5 -152.43,-13.15 -54.54,-7.24 -110.97,-14.74 -167.09,-13.08 -113.78,3.33 -222.48,43.64 -327.6,82.62 -63.19,23.44 -128.55,47.67 -194.2,63.55 -199.36,48.22 -417.79,19.88 -599.3,-77.71 -43.25,-23.25 -85.57,-50.86 -126.5,-77.56 -72.19,-47.1 -146.85,-95.8 -230.03,-123.01 -67.58,-22.1 -138.43,-29.19 -208.57,-29.19"
             style="fill:#f9fbfc;fill-opacity:1;fill-rule:nonzero;stroke:none"
             id="path34" />
          <path
             d="m 4177.19,2574.32 c -114.46,0 -227.3,11.9 -335.77,35.92 -151.66,33.61 -299.34,91.01 -442.16,146.51 -160.99,62.57 -327.47,127.27 -499.05,157.4 -192.96,33.87 -394.8,23.84 -583.7,-29.02 -75.55,-21.15 -151.39,-49.64 -224.74,-77.2 -154.38,-57.99 -314.01,-117.88 -480.6,-113.17 -75.58,2.17 -150.73,17.84 -223.4,32.99 -74.18,15.46 -150.87,31.44 -227.11,32.72 -108.97,1.99 -217.508,-26.26 -322.461,-53.41 -68.433,-17.69 -139.191,-36 -210.125,-46.17 -183.394,-26.3 -404.113,24.06 -483.683,195.78 l 18.144,8.41 c 75.242,-162.39 286.613,-209.62 462.699,-184.39 69.84,10.01 140.055,28.17 207.954,45.74 106.253,27.48 216.112,55.91 327.802,54.04 78.14,-1.31 155.78,-17.49 230.86,-33.14 71.82,-14.97 146.08,-30.46 219.9,-32.58 162.7,-4.69 320.41,54.59 472.99,111.91 73.74,27.7 149.99,56.34 226.38,77.72 191.76,53.68 396.66,63.87 592.55,29.47 173.53,-30.47 340.93,-95.53 502.83,-158.45 142.12,-55.24 289.08,-112.35 439.24,-145.62 302.57,-67.05 639.88,-38.42 949.8,80.59 l 7.17,-18.67 c -202.52,-77.77 -416.7,-117.38 -625.52,-117.38"
             style="fill:#f9fbfc;fill-opacity:1;fill-rule:nonzero;stroke:none"
             id="path36" />
          <path
             d="m 4098.61,2442.24 c -179.85,0 -359.65,26.24 -532.05,78.9 -101.39,30.97 -201.78,71.37 -298.86,110.45 -166.19,66.88 -338.03,136.03 -516.6,157.91 -191.17,23.43 -403.21,-6.04 -630.26,-87.58 -31.16,-11.19 -62.95,-23.41 -93.69,-35.24 -131.06,-50.42 -266.61,-102.52 -408.45,-97.1 -94.83,3.63 -187.03,33.12 -276.19,61.64 -105.34,33.68 -204.82,65.54 -309.59,59.29 -92.561,-5.49 -177.959,-40.09 -268.373,-76.73 -62.176,-25.19 -126.461,-51.24 -192.785,-66.55 -214.321,-49.51 -453.321,21.61 -608.8206,181.19 l 21.4805,20.94 c 148.3361,-152.23 376.2151,-220.09 580.5941,-172.9 64.004,14.78 127.175,40.38 188.265,65.13 88.684,35.93 180.387,73.09 277.869,78.87 110.39,6.52 217.17,-27.63 320.5,-60.67 87.24,-27.91 177.46,-56.76 268.2,-60.23 135.77,-5.3 268.31,45.8 396.53,95.12 30.9,11.88 62.84,24.17 94.32,35.48 231.5,83.12 448.17,113.14 644.05,89.11 182.47,-22.35 356.17,-92.25 524.15,-159.85 96.49,-38.83 196.27,-78.99 296.43,-109.59 366.8,-112.05 767.81,-102.5 1129.17,26.91 l 10.12,-28.24 c -197.56,-70.75 -406.81,-106.26 -616.01,-106.26"
             style="fill:#f9fbfc;fill-opacity:1;fill-rule:nonzero;stroke:none"
             id="path38" />
          <path
             d="m 4070.58,2086.53 c -60.18,0 -120.22,4.19 -179.46,12.67 -154.46,22.12 -305.14,72.57 -450.86,121.35 -126.9,42.49 -258.13,86.42 -390.94,111.27 -380.69,71.2 -771.8,-13.11 -1104.15,-104.95 l -3.73,-1.04 c -145.26,-40.15 -309.92,-85.68 -455.78,-28.44 -36.87,14.48 -71.2,35.11 -104.41,55.06 -18.3,11 -37.22,22.36 -56.2,32.47 -161.07,85.73 -357.077,93.89 -524.347,21.82 -38.828,-16.74 -76.933,-38 -113.785,-58.57 -62.191,-34.71 -126.504,-70.6 -197.195,-86.52 -165.77,-37.34 -333.125,40.89 -460.3949,113.19 l 9.8828,17.39 C 163.34,2221.7 326.25,2145.35 485.328,2181.16 c 67.871,15.29 130.895,50.46 191.84,84.47 37.297,20.82 75.855,42.34 115.625,59.47 172.777,74.46 375.287,66.03 541.647,-22.52 19.45,-10.35 38.6,-21.86 57.11,-32.99 32.5,-19.52 66.11,-39.72 101.42,-53.58 139.68,-54.82 293.94,-12.15 443.14,29.1 l 3.73,1.03 c 334.57,92.46 728.46,177.24 1113.16,105.34 134.17,-25.09 266.06,-69.25 393.61,-111.97 144.87,-48.49 294.67,-98.65 447.35,-120.51 243.53,-34.87 500.77,3.93 724.35,109.21 l 8.53,-18.08 c -172.7,-81.34 -365.18,-123.6 -556.26,-123.6"
             style="fill:#f9fbfc;fill-opacity:1;fill-rule:nonzero;stroke:none"
             id="path40" />
          <path
             d="m 197.867,1663.44 c -110.1131,0 -230.0506,33.78 -302.105,131.42 l 16.0935,11.88 C 4.18359,1681.62 181.887,1668.22 306.023,1694.71 c 86.692,18.52 170.504,54.15 251.567,88.59 53.215,22.62 108.246,46.01 163.98,64.57 167.551,55.79 348.01,70 521.85,41.09 70.97,-11.81 142.01,-30.93 210.71,-49.43 120.99,-32.57 246.11,-66.25 371.64,-59.47 133.89,7.23 261.98,60.08 385.87,111.2 79.03,32.61 160.75,66.33 244.15,88.52 316.92,84.27 643.93,2.79 960.15,-76.05 154.27,-38.47 313.81,-78.23 470.69,-98.51 312.09,-40.37 633.7,-4.24 930.04,104.38 l 6.88,-18.77 c -299.34,-109.75 -624.19,-146.2 -939.49,-105.45 -158.02,20.43 -318.13,60.34 -472.96,98.95 -313.76,78.22 -638.19,159.09 -950.17,76.11 -82.13,-21.85 -163.23,-55.31 -241.67,-87.68 -125.42,-51.74 -255.12,-105.26 -392.42,-112.68 -128.69,-6.94 -255.39,27.17 -377.91,60.14 -68.23,18.37 -138.78,37.36 -208.79,49.01 -170.64,28.37 -347.773,14.44 -512.249,-40.34 -54.977,-18.31 -109.629,-41.54 -162.481,-64 -81.93,-34.81 -166.64,-70.81 -255.207,-89.73 -34.383,-7.36 -72.723,-11.72 -112.336,-11.72"
             style="fill:#f9fbfc;fill-opacity:1;fill-rule:nonzero;stroke:none"
             id="path42" />
          <path
             d="m 104.617,1490.13 c -64.8943,0 -129.4568,9.81 -192.0623,33.69 l 7.1289,18.69 c 188.1644,-71.77 397.1524,-11.34 576.7574,57.28 22.801,8.71 45.653,17.64 68.571,26.61 165.078,64.6 335.746,131.4 513.168,120.03 74.92,-4.81 148.68,-23.71 220.02,-41.99 61.96,-15.89 126.04,-32.3 190.08,-39.19 187.61,-20.1 373.44,40.12 553.17,98.4 88.64,28.74 180.3,58.47 271.76,78.57 359.38,78.97 731.64,13.78 1091.63,-49.27 57.02,-9.99 115.98,-20.32 173.7,-29.85 400.27,-66.11 860.18,-104.61 1236.31,110.94 l 9.94,-17.34 C 4443.23,1638 3979.04,1676.66 3575.28,1743.37 c -57.81,9.54 -116.82,19.88 -173.89,29.88 -358.09,62.72 -728.37,127.59 -1083.89,49.44 -90.5,-19.9 -181.69,-49.47 -269.88,-78.06 -181.74,-58.94 -369.63,-119.9 -561.48,-99.26 -65.47,7.03 -130.26,23.64 -192.91,39.7 -70.44,18.05 -143.28,36.72 -216.33,41.39 -172.959,11.07 -341.548,-54.88 -504.603,-118.69 -22.961,-8.98 -45.867,-17.95 -68.719,-26.68 -124.176,-47.42 -262.289,-90.96 -398.961,-90.96"
             style="fill:#f9fbfc;fill-opacity:1;fill-rule:nonzero;stroke:none"
             id="path44" />
          <path
             d="m 1278.14,996.539 c -181.23,-0.008 -358.761,60.041 -531.253,118.371 -56.653,19.16 -115.239,38.98 -172.699,56.19 -188.512,56.48 -536.7232,120.3 -750.676,-87.02 l -20.879,21.54 c 224.949,217.98 585.351,152.6 780.172,94.21 57.961,-17.36 116.797,-37.25 173.695,-56.5 196.57,-66.46 399.81,-135.21 604.3,-112.26 149.16,16.76 290.23,81.92 426.65,144.94 89.46,41.31 181.98,84.05 277.14,113.61 342.63,106.45 704.02,41.61 1053.5,-21.09 175.1,-31.42 356.17,-63.91 533.1,-74.64 453.6,-27.46 917.16,91.26 1305.29,334.41 l 15.93,-25.43 C 4579.02,1256.44 4109.16,1136 3649.37,1163.95 c -178.68,10.83 -360.62,43.47 -536.58,75.04 -345.93,62.06 -703.64,126.24 -1039.3,21.98 -93.28,-28.98 -184.88,-71.28 -273.46,-112.2 -138.59,-64.01 -281.9,-130.22 -435.88,-147.5 -28.75,-3.231 -57.44,-4.731 -86.01,-4.731"
             style="fill:#f9fbfc;fill-opacity:1;fill-rule:nonzero;stroke:none"
             id="path46" />
        </g>
      </g>
      <path
         d="M 2493.56,836.121 H 282.516 V 2706.62 H 2493.56 V 836.121"
         style="fill:#c7dcea;fill-opacity:1;fill-rule:nonzero;stroke:none"
         id="path48" />
      <path
         d="M 2320.83,836.121 H 455.254 V 2550.25 H 2320.83 V 836.121"
         style="fill:#d9e9f6;fill-opacity:1;fill-rule:nonzero;stroke:none"
         id="path50" />
      <path
         d="M 2392.15,1605.95 H 402.66 v 128.86 h 1989.49 v -128.86"
         style="fill:#c7dcea;fill-opacity:1;fill-rule:nonzero;stroke:none"
         id="path52" />
      <path
         d="m 2135.18,1734.81 v 563.4 h 104.62 v -563.4 h -104.62"
         style="fill:#c7dcea;fill-opacity:1;fill-rule:nonzero;stroke:none"
         id="path54" />
      <path
         d="m 2153.09,1938.93 v 271.51 h 68.8 v -271.51 h -68.8"
         style="fill:#d9e9f6;fill-opacity:1;fill-rule:nonzero;stroke:none"
         id="path56" />
      <path
         d="m 2040.65,1734.81 v 728.63 h 94.53 v -728.63 h -94.53"
         style="fill:#afcddd;fill-opacity:1;fill-rule:nonzero;stroke:none"
         id="path58" />
      <path
         d="m 2056.83,1923.55 v 351.14 H 2119 v -351.14 h -62.17"
         style="fill:#d9e9f6;fill-opacity:1;fill-rule:nonzero;stroke:none"
         id="path60" />
      <path
         d="m 2056.83,1775.66 v 88.64 H 2119 v -88.64 h -62.17"
         style="fill:#d9e9f6;fill-opacity:1;fill-rule:nonzero;stroke:none"
         id="path62" />
      <path
         d="m 1898.08,1734.81 v 679.74 h 142.57 v -679.74 h -142.57"
         style="fill:#c7dcea;fill-opacity:1;fill-rule:nonzero;stroke:none"
         id="path64" />
      <path
         d="m 1922.49,1968.67 v 327.58 h 93.76 v -327.58 h -93.76"
         style="fill:#afcddd;fill-opacity:1;fill-rule:nonzero;stroke:none"
         id="path66" />
      <path
         d="m 1922.49,1772.92 v 82.69 h 93.76 v -82.69 h -93.76"
         style="fill:#afcddd;fill-opacity:1;fill-rule:nonzero;stroke:none"
         id="path68" />
      <path
         d="m 1898.08,1896.71 v 15.05 h 142.57 v -15.05 h -142.57"
         style="fill:#afcddd;fill-opacity:1;fill-rule:nonzero;stroke:none"
         id="path70" />
      <path
         d="m 1898.08,1928.08 v 15.04 h 142.57 v -15.04 h -142.57"
         style="fill:#afcddd;fill-opacity:1;fill-rule:nonzero;stroke:none"
         id="path72" />
      <path
         d="m 2239.8,1734.81 v 624.62 h 81.03 v -624.62 h -81.03"
         style="fill:#afcddd;fill-opacity:1;fill-rule:nonzero;stroke:none"
         id="path74" />
      <path
         d="m 2239.8,1782.91 v 32.93 h 81.03 v -32.93 h -81.03"
         style="fill:#c7dcea;fill-opacity:1;fill-rule:nonzero;stroke:none"
         id="path76" />
      <path
         d="m 2253.67,1984.25 v 301.01 h 53.29 v -301.01 h -53.29"
         style="fill:#c7dcea;fill-opacity:1;fill-rule:nonzero;stroke:none"
         id="path78" />
      <path
         d="m 2253.67,1857.46 v 75.99 h 53.29 v -75.99 h -53.29"
         style="fill:#c7dcea;fill-opacity:1;fill-rule:nonzero;stroke:none"
         id="path80" />
      <path
         d="m 2223.58,1828.19 c 0,-19.93 -16.16,-36.09 -36.09,-36.09 -19.94,0 -36.1,16.16 -36.1,36.09 0,19.94 16.16,36.11 36.1,36.11 19.93,0 36.09,-16.17 36.09,-36.11"
         style="fill:#d9e9f6;fill-opacity:1;fill-rule:nonzero;stroke:none"
         id="path82" />
      <path
         d="m 3420.61,3370.21 c -78.02,13.99 -195.01,-91.02 -146.39,-368.91 48.63,-277.88 150.53,-613.65 273.26,-611.34 122.73,2.32 113.47,257.04 78.73,458.51 -34.74,201.47 -54.58,494.66 -205.6,521.74"
         style="fill:#fc7808;fill-opacity:1;fill-rule:nonzero;stroke:none"
         id="path84" />
      <path
         d="m 3382.98,3410.89 -10.27,32.88 c 28.26,3.26 55.48,9.94 81.34,19.53 17.64,-45.56 41.44,-79.64 78.44,-92.65 18.32,-6.51 40.92,-12.5 66.26,-17.12 -16.61,-37.34 -115.59,-253.62 -182.89,-228.11 -72.26,27.57 -9.24,195.22 -6.85,202.08 0.17,0.17 0.17,0.17 0.17,0.17 l -26.2,83.22"
         style="fill:#ffc8af;fill-opacity:1;fill-rule:nonzero;stroke:none"
         id="path86" />
      <path
         d="m 3035.22,2368.67 c -57.95,2.49 -115.23,5.46 -173.12,8.82 -81.73,4.74 -158.51,-2.84 -238.17,-20.37 -56.33,-12.4 -123.98,6.58 -166.01,45.95 -5.34,5.04 -10.38,10.39 -14.88,16.15 -0.21,0.31 -0.42,0.53 -0.63,0.84 -0.74,0.84 -1.37,1.79 -1.99,2.63 -44.79,58.3 -51.08,93.43 -31.57,112.93 19.82,19.82 49.91,-30.09 119.76,-11.64 34.39,9.13 94.76,41.09 94.76,41.09 -12.84,25.7 -31.32,55.47 -37.98,77.17 -5.05,16.42 -10.08,34.26 -4.21,50.41 0.58,1.59 1.29,3.18 2.46,4.41 1.41,1.49 3.39,2.31 5.36,2.89 17.68,5.19 31.81,-9.24 42.14,-21.53 13.44,-15.97 25.46,-33.75 40.56,-48.18 14.55,-13.9 34.72,-18.71 52.59,-26.75 18.55,-8.36 35.7,-19.43 48.48,-35.49 4.62,-5.8 8.64,-12.09 11.93,-18.74 l 60.51,8.6 155.51,22.02 c 0,0 0,-0.31 0.11,-0.94 l 34.39,-210.27"
         style="fill:#ffc8af;fill-opacity:1;fill-rule:nonzero;stroke:none"
         id="path88" />
      <path
         d="m 2977.81,2589.88 49.41,-253.18 c 0,0 421.03,26.69 531.62,54.26 110.6,27.57 117.22,274.57 -103,263.76 -220.21,-10.8 -478.03,-64.84 -478.03,-64.84"
         style="fill:#fc7808;fill-opacity:1;fill-rule:nonzero;stroke:none"
         id="path90" />
      <path
         d="m 3594.25,2409.88 -25.16,90.46 c 0,0 -355.85,104.21 -258.59,46.32 68.92,-41.03 128.11,-125.4 156.78,-171.13 38.36,5 70.57,10.19 91.56,15.43 13.42,3.34 25.28,9.97 35.41,18.92"
         style="fill:#232770;fill-opacity:1;fill-rule:nonzero;stroke:none"
         id="path92" />
      <path
         d="m 3329.9,3441.03 c 14.55,0 28.77,0.86 42.81,2.74 l 54.07,-50.82 c -9.93,-11.48 -120.83,-51.24 -217.61,-98.85 l -1.37,-0.85 c -39.9,61.47 -108.74,167.99 -144.53,267.48 65.24,-73.46 160.63,-119.7 266.63,-119.7"
         style="fill:#232770;fill-opacity:1;fill-rule:nonzero;stroke:none"
         id="path94" />
      <path
         d="m 3372.71,3443.77 c 0,0 45.07,11.48 74.39,24.04 l -38.09,-140.31 -36.3,116.27"
         style="fill:#232770;fill-opacity:1;fill-rule:nonzero;stroke:none"
         id="path96" />
      <path
         d="m 3454.05,3463.3 c -25.86,-9.59 -53.08,-16.27 -81.34,-19.53 -14.04,-1.88 -28.26,-2.74 -42.81,-2.74 -92.48,0 -176.9,35.28 -240.26,92.99 -9.25,8.39 -18.16,17.29 -26.37,26.71 -6.85,19.18 -12.51,38.02 -16.61,56.17 -35.11,159.09 119.01,350.2 119.01,350.2 0,0 112,-83.74 182.21,-183.57 0.17,0 0.17,-0.17 0.17,-0.17 23.46,-33.4 42.13,-68.33 50.52,-102.75 19.01,-77.92 32.02,-157.55 55.48,-217.31"
         style="fill:#ffc8af;fill-opacity:1;fill-rule:nonzero;stroke:none"
         id="path98" />
      <path
         d="m 4797.49,901.77 c -62.85,-9.93 -142.3,-16.27 -226.22,-20.211 l -785.34,2.57 -297.46,1.031 c 0,0 0.34,1.719 0.86,5.129 6.85,41.453 53.77,322.121 76.04,472.651 466.13,-78.26 1071.15,120.56 1127.14,139.57 64.39,-236.84 96.76,-522.139 104.98,-600.74"
         style="fill:#5e60f4;fill-opacity:1;fill-rule:nonzero;stroke:none"
         id="path100" />
      <path
         d="m 4602.95,1740.71 c -82.19,146.76 -124.32,238.72 -153.95,335.99 -39.44,108.9 -78.68,320.72 -78.68,320.72 l -836.13,-93.3 c 0,0 46.9,-241.52 59,-328.84 38.37,-285.61 -2.99,-435.86 -22.17,-573.12 -1.72,-11.65 -3.6,-24.84 -5.65,-39.22 466.13,-78.26 1071.15,120.56 1127.14,139.57 -25,91.61 -54.62,175.87 -89.56,238.2"
         style="fill:#fb5507;fill-opacity:1;fill-rule:nonzero;stroke:none"
         id="path102" />
      <path
         d="m 3802.89,1427.74 c -47.35,0 -96.39,1.06 -147.39,3.15 -2.76,0.12 -4.9,2.44 -4.79,5.2 0.11,2.76 2.34,4.96 5.2,4.8 319.92,-13.16 562.73,14.48 787.34,89.51 2.62,0.88 5.45,-0.55 6.32,-3.16 0.87,-2.62 -0.54,-5.45 -3.16,-6.33 -189.94,-63.44 -392.73,-93.17 -643.52,-93.17"
         style="fill:#fc7808;fill-opacity:1;fill-rule:nonzero;stroke:none"
         id="path104" />
      <path
         d="m 3987.32,2387.52 -201.9,-30.31 2.74,-17.13 -253.96,-35.96 c -25.86,93.5 -59.77,137.34 -130.66,178.1 -26.72,15.41 -50.69,27.91 -72.1,39.38 -74.84,40.25 -119.02,67.64 -148.99,158.92 -36.3,110.46 194.37,588.92 220.74,643.21 0.17,0 0.17,0.17 0.17,0.17 h 0.18 c 2.91,1.88 4.79,3.25 5.47,3.6 -2.39,-6.86 -52.43,-177.96 -10.37,-190.53 101.36,-30.3 183.5,179.22 200.11,216.56 50.7,-9.42 112,-13.71 170.91,-5.83 -76.2,-106.51 95.68,-455.09 103.56,-473.76 78.26,-183.06 164.62,-478.89 164.62,-478.89 l -50.52,-7.53"
         style="fill:#fb5507;fill-opacity:1;fill-rule:nonzero;stroke:none"
         id="path106" />
      <path
         d="m 3838.5,2104.87 c -66.16,2.84 -223.37,-7.67 -289.46,-3.84 -14.6,0.84 -29.23,1.36 -43.86,1.52 -66.81,0.75 -133.49,-6.03 -199.05,-18.77 -14.98,-2.91 -28.84,-8 -43.97,-10.41 -15.87,-2.54 -31.95,-3.77 -48.03,-3.69 -31.84,0.13 -81.96,5.22 -112.1,15.48 -5.99,2.03 -12.27,4.53 -15.93,9.68 -1.32,1.87 -2.25,4.22 -1.66,6.43 0.64,2.36 2.83,3.94 4.97,5.11 11.42,6.19 25.09,5.97 38.07,5.6 -21.13,4.72 -41.65,12.15 -60.9,22.05 -9.37,4.82 -21.88,14.87 -24.22,25.82 -1.05,4.91 0.93,10.77 5.57,12.64 -14.93,8.69 -42.26,27.16 -37.23,47.61 2.01,8.18 8.87,14.98 17.07,16.91 -5.51,5.98 -7.15,15.25 -4.02,22.76 1.11,2.64 2.79,5.09 5.08,6.82 4.68,3.52 11.02,3.53 16.86,3.38 17.76,-0.44 34.64,-4.13 52.26,-6.12 17.14,-1.95 54.93,1.77 71.58,6.16 39.26,10.42 107.01,45.15 107.01,45.15 -14.66,29.32 -35.76,63.32 -43.37,88.08 -5.76,18.74 -11.5,39.11 -4.8,57.54 0.66,1.82 1.47,3.63 2.81,5.04 1.61,1.7 3.87,2.63 6.11,3.29 20.19,5.93 36.31,-10.54 48.12,-24.57 15.33,-18.23 29.05,-38.52 46.29,-55 16.61,-15.86 39.63,-21.35 60.04,-30.54 21.17,-9.53 40.74,-22.17 55.34,-40.5 5.27,-6.63 9.85,-13.8 13.6,-21.4 l 69.08,9.81 269.36,39.06 c 0,0 0,-0.36 0.12,-1.09 l 39.26,-240.01"
         style="fill:#ffc8af;fill-opacity:1;fill-rule:nonzero;stroke:none"
         id="path108" />
      <path
         d="m 3227.57,2217.29 c -16.73,-5.34 -33.62,-9.92 -50.71,-13.66 -8.53,-1.99 -17.14,-3.58 -25.79,-5.18 -8.5,-1.38 -17.6,-3.07 -27.02,-2.48 -18.19,1.43 -35.4,6.06 -51.96,12.5 -16.27,6.58 -32.92,14.83 -44.32,28.54 13.93,-10.69 30.62,-15.92 46.87,-21.17 16.44,-4.74 33.36,-8.77 50,-9.89 8.05,-0.73 16.29,0.75 25.01,1.83 l 25.83,3.5 c 17.25,2.44 34.61,4.46 52.09,6.01"
         style="fill:#e8a289;fill-opacity:1;fill-rule:nonzero;stroke:none"
         id="path110" />
      <path
         d="m 3245.23,2165.98 c -16.13,-5.42 -32.48,-10.03 -49.02,-13.8 -16.59,-3.84 -33.11,-7.09 -50.44,-8.89 -18.24,-0.75 -34.89,2.99 -51.47,7.58 -16.38,4.78 -32.79,11.15 -46.37,21.62 15.49,-6.96 31.94,-10.45 48.25,-13.94 8.2,-1.53 16.39,-3.08 24.62,-4 8.16,-1.1 16.51,-1.8 24.2,-1.34 16.33,1.49 33.13,4.26 49.81,6.5 16.7,2.42 33.5,4.55 50.42,6.27"
         style="fill:#e8a289;fill-opacity:1;fill-rule:nonzero;stroke:none"
         id="path112" />
      <path
         d="m 3262.76,2121.96 c -13.99,-6.91 -28.56,-12.45 -43.55,-16.75 -7.51,-2.09 -15.12,-3.98 -22.93,-5.23 -7.8,-1.29 -15.76,-2.32 -24.35,-1.24 -15.98,2.42 -30.63,6.98 -45.49,11.55 -14.74,4.78 -29.3,10.08 -43.6,16.11 15.24,-2.88 30.36,-6.08 45.42,-9.33 14.98,-3.17 30.2,-6.82 44.8,-8.71 13.85,-0.87 29.32,2.49 44.18,5.15 15.03,2.86 30.15,5.85 45.52,8.45"
         style="fill:#e8a289;fill-opacity:1;fill-rule:nonzero;stroke:none"
         id="path114" />
      <path
         d="m 4435.42,2238.7 c -9.54,-34.05 -41.27,-61.16 -85.13,-82.67 -159.1,-78.2 -533.1,-82.55 -533.1,-82.55 l -2.85,17.7 -6.41,38.83 -37.09,227.61 252.4,51.62 c 0,0 -157.68,417.46 -219.93,563.07 -49.45,116.19 -106.93,287.55 -37.46,384.67 v 0.13 c 38.41,5.18 75.6,17.03 105.84,38.14 16.75,11.72 32.28,21.93 46.18,31.74 141.11,-2.45 239.86,-165.91 288.77,-280.46 25.33,-59.53 73.69,-177.21 115.5,-303.49 51.9,-156.91 137.93,-516.75 113.28,-604.34"
         style="fill:#fc7808;fill-opacity:1;fill-rule:nonzero;stroke:none"
         id="path116" />
      <path
         d="m 4551.25,1496.41 c -2.08,0 -4.01,1.29 -4.73,3.36 -28.56,82.16 -74.78,154.79 -119.48,225.03 -33.29,52.32 -67.72,106.41 -94.97,164.45 -20.54,43.76 -39.8,88.92 -58.43,132.6 -13.86,32.52 -28.21,66.16 -42.96,98.92 -1.13,2.52 -0.01,5.48 2.51,6.61 2.51,1.16 5.47,0.01 6.61,-2.51 14.79,-32.85 29.15,-66.53 43.04,-99.1 18.59,-43.59 37.81,-88.67 58.28,-132.26 26.98,-57.47 61.23,-111.29 94.35,-163.33 45.01,-70.74 91.55,-143.86 120.5,-227.13 0.91,-2.61 -0.48,-5.46 -3.08,-6.37 -0.55,-0.19 -1.1,-0.27 -1.64,-0.27"
         style="fill:#fc7808;fill-opacity:1;fill-rule:nonzero;stroke:none"
         id="path118" />
      <path
         d="m 3063.27,3560.73 c 37.28,-62.71 171.59,-179.65 215.58,-183.12 44,-3.47 175.2,85.69 175.2,85.69 l -256.24,240.77 -134.54,-143.34"
         style="fill:#ffc8af;fill-opacity:1;fill-rule:nonzero;stroke:none"
         id="path120" />
      <path
         d="m 3598.63,3352.85 c -3.81,0.72 -7.6,1.49 -11.37,2.29 -26.2,5.58 -52.41,13.1 -75.18,27.21 -30.7,19.04 -45.41,48.37 -58.03,80.95 -23.46,59.76 -36.47,139.39 -55.48,217.31 -33.57,137.34 -232.9,286.49 -232.9,286.49 0,0 -154.12,-191.11 -119.01,-350.2 4.1,-18.15 9.76,-36.99 16.61,-56.17 35.79,-99.49 104.63,-206.01 144.53,-267.48 5.72,-8.88 11.47,-17.74 17.12,-26.66 4.51,-7.12 8.44,-15.45 0.71,-22.3 -3.92,-3.49 -9.18,-4.97 -14.25,-6.35 -4.42,-1.2 -8.84,-2.4 -13.25,-3.6 -4.36,-1.19 -8.73,-2.38 -13.19,-3.04 -4.4,-0.66 -8.86,-0.79 -13.3,-0.89 -29.79,-0.69 -59.8,0.29 -88.93,6.56 -19.14,4.13 -38.17,13.44 -54.82,23.86 -25.39,15.86 -46.41,37.65 -62.25,62.98 -16.64,26.59 -27.65,56.35 -35.49,86.61 -8.81,34 -13.77,68.92 -17.23,103.84 -3.78,38.14 -5.72,76.43 -7.49,114.7 -1.83,39.55 -3.45,79.11 -6.22,118.61 -12.39,176.65 61.67,375.53 214.88,475.61 78.18,51.06 186.82,50.95 265.88,1.88 17.79,19.01 46.74,22.23 72.7,20.19 66.64,-5.23 129.42,-37.21 179.12,-81.91 64.29,-57.8 98.77,-134.1 145.44,-204.81 55.73,-84.46 141.33,-135.58 206.81,-210.88 60.35,-69.39 82.84,-154.92 42.52,-240.21 -69.05,-146.08 -285.65,-181.56 -427.93,-154.59"
         style="fill:#232770;fill-opacity:1;fill-rule:nonzero;stroke:none"
         id="path122" />
      <path
         d="m 3824.58,2921.2 140.88,-523.78 57.78,11.82 z"
         style="fill:#232770;fill-opacity:1;fill-rule:nonzero;stroke:none"
         id="path124" />
      <path
         d="m 4711.06,1429.4 c -5.86,24.69 -12.03,49.15 -18.55,73.11 -41.91,-14.23 -391.49,-129.22 -760.17,-153.31 238.1,-10.47 673.08,61.85 778.72,80.2"
         style="fill:#232770;fill-opacity:1;fill-rule:nonzero;stroke:none"
         id="path126" />
      <path
         d="m 3812,2105.36 -29.89,-0.29 8.23,132.91 z"
         style="fill:#232770;fill-opacity:1;fill-rule:nonzero;stroke:none"
         id="path128" />
      <path
         d="m 3020.85,2369.3 -21.52,110.33 3.16,-109.49 z"
         style="fill:#232770;fill-opacity:1;fill-rule:nonzero;stroke:none"
         id="path130" />
      <path
         d="m 2682.95,2453.44 -219.78,-55.05 -14.28,13.89 z"
         style="fill:#232770;fill-opacity:1;fill-rule:nonzero;stroke:none"
         id="path132" />
      <path
         d="m 2643.22,2535.49 c 0,0 30.85,-41.71 59.03,-49.04 l -28.94,-13.11 -30.09,62.15"
         style="fill:#e8a289;fill-opacity:1;fill-rule:nonzero;stroke:none"
         id="path134" />
      <path
         d="m 3899.46,2100.08 c -2.34,0 -4.43,1.65 -4.9,4.02 l -49.4,248.44 c -0.54,2.7 1.22,5.34 3.93,5.88 2.72,0.59 5.34,-1.22 5.88,-3.93 l 49.4,-248.44 c 0.54,-2.7 -1.23,-5.34 -3.93,-5.87 -0.33,-0.07 -0.66,-0.1 -0.98,-0.1"
         style="fill:#fb5507;fill-opacity:1;fill-rule:nonzero;stroke:none"
         id="path136" />
      <path
         d="m 3087.42,2372.87 c -2.29,0 -4.35,1.58 -4.88,3.91 l -45.96,204.28 c -0.61,2.7 1.08,5.38 3.78,5.98 2.7,0.6 5.36,-1.09 5.97,-3.78 l 45.97,-204.3 c 0.61,-2.68 -1.08,-5.36 -3.78,-5.97 -0.37,-0.08 -0.74,-0.12 -1.1,-0.12"
         style="fill:#fb5507;fill-opacity:1;fill-rule:nonzero;stroke:none"
         id="path138" />
      <path
         d="m 3420.42,3078.27 c -11.25,0 -22.77,1.28 -34.56,3.83 -2.7,0.59 -4.41,3.25 -3.82,5.95 0.58,2.69 3.27,4.39 5.94,3.82 101.07,-21.95 182.28,57.91 241.35,237.19 0.86,2.62 3.69,4.05 6.31,3.19 2.63,-0.87 4.05,-3.7 3.19,-6.32 -54.23,-164.57 -127.58,-247.66 -218.41,-247.66"
         style="fill:#fc7808;fill-opacity:1;fill-rule:nonzero;stroke:none"
         id="path140" />
      <path
         d="m 3226.84,3240.16 c 60.92,24.53 92.72,92.46 147.91,128.07 5.11,3.3 11.21,8.18 9.51,14.01 -1.93,6.62 -11.28,6.47 -18,4.89 -37.26,-8.71 -74.52,-17.42 -111.78,-26.13 -49.52,-11.58 -100.86,-24.02 -140.56,-55.8 -9.57,-7.67 -18.6,-16.78 -22.68,-28.34 -21.94,-62.14 106.3,-48.5 135.6,-36.7"
         style="fill:#232770;fill-opacity:1;fill-rule:nonzero;stroke:none"
         id="path142" />
      <path
         d="m 2100.89,2814.61 376.98,56.59 201.39,-415.88 -424.29,-74.62 -154.08,433.91"
         style="fill:#f0f5f7;fill-opacity:1;fill-rule:nonzero;stroke:none"
         id="path144" />
      <path
         d="m 2479.32,2873.94 -381.79,-57.3 155.79,-438.77 429.63,75.57 -203.63,420.5 z m -2.89,-5.49 199.13,-411.23 -418.94,-73.69 -152.35,429.06 372.16,55.86"
         style="fill:#f9fbfc;fill-opacity:1;fill-rule:nonzero;stroke:none"
         id="path146" />
      <path
         d="m 3786.76,1306.43 c 0,0 -44.61,56.58 23.94,174.1 68.55,117.52 210.01,145.81 216.54,130.57 6.53,-15.22 -71.82,-44.61 -93.58,-134.92 -21.76,-90.32 -24.67,-140.37 -51.87,-167.58 -27.2,-27.2 -64.2,-38.08 -95.03,-2.17"
         style="fill:#2270e0;fill-opacity:1;fill-rule:nonzero;stroke:none"
         id="path148" />
      <path
         d="m 3804.9,1323.89 c -0.39,0 -0.78,0.05 -1.16,0.15 -2.32,0.64 -3.68,3.04 -3.04,5.35 2,7.19 49.78,176.78 138.16,241.56 1.93,1.42 4.66,1 6.08,-0.94 1.42,-1.94 1,-4.67 -0.94,-6.08 -85.92,-62.98 -134.43,-235.12 -134.91,-236.86 -0.54,-1.92 -2.29,-3.18 -4.19,-3.18"
         style="fill:#3887fe;fill-opacity:1;fill-rule:nonzero;stroke:none"
         id="path150" />
      <path
         d="m 3739.91,1310.84 c 0,0 25.3,53.23 -50.73,134.51 -76.04,81.28 -194,78.15 -196.44,64.81 -2.44,-13.34 65.39,-22.54 99.15,-90.62 33.77,-68.08 45.19,-107.48 71.83,-124.24 26.64,-16.75 58.12,-18.71 76.19,15.54"
         style="fill:#2270e0;fill-opacity:1;fill-rule:nonzero;stroke:none"
         id="path152" />
      <path
         d="m 3700.36,1302.73 c -1.58,0.91 -2.33,3.22 -4.78,10.75 -27.61,84.79 -68.81,141.06 -122.46,167.35 -2.02,0.97 -2.82,3.39 -1.85,5.38 0.98,1.99 3.38,2.81 5.38,1.85 55.75,-27.22 98.26,-85.16 126.57,-172.09 0.98,-3.02 1.99,-6.13 2.45,-7.22 0.75,-0.9 1.1,-2.12 0.85,-3.35 -0.44,-2.18 -2.56,-3.58 -4.74,-3.15 -0.55,0.1 -1.01,0.25 -1.42,0.48"
         style="fill:#3887fe;fill-opacity:1;fill-rule:nonzero;stroke:none"
         id="path154" />
      <path
         d="m 3824.31,1310.84 c 0,0 -25.31,53.23 50.72,134.51 76.04,81.28 194.01,78.15 196.44,64.81 2.45,-13.34 -65.38,-22.54 -99.15,-90.62 -33.77,-68.08 -45.18,-107.48 -71.82,-124.24 -26.64,-16.75 -58.13,-18.71 -76.19,15.54"
         style="fill:#3887fe;fill-opacity:1;fill-rule:nonzero;stroke:none"
         id="path156" />
      <path
         d="m 3863.86,1302.73 c 1.57,0.91 2.33,3.22 4.78,10.75 27.61,84.79 68.8,141.06 122.46,167.35 2.02,0.97 2.82,3.39 1.84,5.38 -0.97,1.99 -3.38,2.81 -5.38,1.85 -55.74,-27.22 -98.26,-85.16 -126.56,-172.09 -0.99,-3.02 -2,-6.13 -2.46,-7.22 -0.75,-0.9 -1.09,-2.12 -0.84,-3.35 0.43,-2.18 2.55,-3.58 4.73,-3.15 0.56,0.1 1.02,0.25 1.43,0.48"
         style="fill:#2270e0;fill-opacity:1;fill-rule:nonzero;stroke:none"
         id="path158" />
      <path
         d="m 3793.16,1284.26 c 0,0 86.64,63.07 27.39,202.41 -59.25,139.35 -240.95,183.52 -250.28,167.61 -9.34,-15.91 62.19,-63.23 73.59,-165.99 11.39,-102.75 18.45,-154.5 44.68,-188.34 26.23,-33.85 65.56,-51.03 104.62,-15.69"
         style="fill:#3887fe;fill-opacity:1;fill-rule:nonzero;stroke:none"
         id="path160" />
      <path
         d="m 3749.64,1301.07 c -1.77,0.35 -3.23,1.96 -3.47,3.82 -0.1,0.74 -0.05,1.16 0.37,4.5 7.08,56.38 19.2,245.64 -122.23,313.53 -2.06,0.99 -2.93,3.46 -1.95,5.52 0.99,2.06 3.47,2.92 5.53,1.94 146.42,-70.28 134.12,-264.25 126.86,-322.02 -0.2,-1.55 -0.33,-2.56 -0.36,-2.97 0.31,-2.26 -1.3,-4.05 -3.57,-4.35 -0.4,-0.05 -0.8,-0.04 -1.18,0.03"
         style="fill:#2270e0;fill-opacity:1;fill-rule:nonzero;stroke:none"
         id="path162" />
      <path
         d="m 3691.19,989.75 h 162.61 c 40.25,0 72.87,32.62 72.87,72.87 v 235.5 h -308.36 v -235.5 c 0,-40.25 32.63,-72.87 72.88,-72.87"
         style="fill:#a5b7c6;fill-opacity:1;fill-rule:nonzero;stroke:none"
         id="path164" />
      <path
         d="m 1736.56,2465.69 c 100.87,-91.18 148.13,-248.01 201.46,-378.46 62.86,-153.77 122.02,-310.16 182.1,-465.66 19.02,-49.23 38.26,-99.39 44.33,-152.49 7.09,-62.11 -8.09,-142.91 -59.6,-170.44 -57.65,-30.81 -125.31,-29.9 -183.96,6.01 -112.33,68.77 -173.45,203.27 -217.82,335.64 -35.78,106.74 -76.12,211.88 -114.34,317.57 -33.17,91.7 -66.76,185.34 -74.42,283.57 -7.89,101.07 30.65,277.26 139.9,266.89 29.57,-2.81 57.4,-20.24 81.45,-41.82 0.3,-0.26 0.6,-0.53 0.9,-0.81"
         style="fill:#9962ef;fill-opacity:1;fill-rule:nonzero;stroke:none"
         id="path166" />
      <path
         d="M 1658.23,1855.03 1646,1801.68 c 19.62,-53.57 38.93,-107.28 57.07,-161.39 5.69,-17 11.69,-34.02 18.01,-50.94 20.35,71.7 79.22,288.31 83.04,406.94 4.63,143.57 -89.94,266.31 -89.94,266.31 l -55.95,-407.57"
         style="fill:#232770;fill-opacity:1;fill-rule:nonzero;stroke:none"
         id="path168" />
      <path
         d="m 1859.01,1548.58 c 51.12,36.76 133.73,66.42 193.51,54.82 100.25,-19.46 192.69,-79.22 281.61,-126.84 110.36,-59.11 214.04,-143.94 312.69,-221.23 3.39,-2.66 6.87,-5.42 9.02,-9.16 3.14,-5.47 2.97,-12.17 2.41,-18.45 -5.16,-57.81 -37.45,-112.63 -85.51,-145.18 -11.99,-8.13 -28.27,-17.71 -43.21,-14.97 -17.7,3.24 -35.78,10.83 -53.23,15.64 -8.79,2.43 -17.78,4.82 -26.88,4.28 -7.16,-0.42 -14.07,-2.64 -21.09,-4.14 -36.3,-7.76 -73.72,3.8 -108.57,16.56 -55.62,20.37 -109.97,44.17 -162.67,71.22 -26.61,13.66 -52.8,28.14 -78.51,43.43 -24.04,14.3 -50.19,25.52 -74.62,39.81 -20,11.68 -39.71,23.89 -59.07,36.61 -30.82,20.24 -61.17,42.11 -84.57,70.6 -28.49,34.72 -55.89,93.6 -39.56,138.5 7.34,20.14 21.04,36.13 38.25,48.5"
         style="fill:#9962ef;fill-opacity:1;fill-rule:nonzero;stroke:none"
         id="path170" />
      <path
         d="m 1606.62,1495.15 c 34.76,88.01 69.19,176.55 98.64,256.01 43.49,117.13 76.38,214.4 84.59,260.47 30.15,169.19 -93.84,415.44 -93.84,415.44 -37.85,-13.35 -120.56,51.38 -120.56,51.38 l -55.83,-82.54 c -218.85,-43.67 -313.89,180.83 -306.02,210.97 1.89,7.2 9.77,22.61 20.73,41.96 l -1.72,1.03 c -224.16,3.42 -365.778,-138.03 -398.317,-174.17 76.035,60.97 161.488,81.01 267.657,38.54 245.57,-98.29 -4.45,-498.17 -58.05,-603.14 -20.52,-40.17 -46.923,-87.21 -71.712,-130 -123.571,-21.15 -243.426,-63.86 -352.231,-126.15 l -53.371,-60.54 c -45.16,-41.3 -68.309,-102.77 -72.707,-163.81 -4.402,-61.05 8.383,-122.11 25.988,-180.74 6.051,-20.13 12.824,-40.09 20.617,-59.62 -104.91,27.32 -151.312,66.29 -176.785,130.4 C 304.281,1161.89 230.473,969.242 230.473,969.242 H 1381.25 c 0,0 46.59,86.648 89.23,190.088 l 136.14,335.82"
         style="fill:#8338ea;fill-opacity:1;fill-rule:nonzero;stroke:none"
         id="path172" />
      <path
         d="m 1284.02,1153.38 -787.305,199.9 c 4.574,-34.96 12.996,-69.6 23.152,-103.42 6.051,-20.13 12.824,-40.09 20.617,-59.62 -104.91,27.32 -151.312,66.29 -176.785,130.4 -14.187,-37.92 -29.195,-77.75 -43.832,-116.45 22.883,-17.47 90.656,-47.58 291.672,-68.45 298.727,-30.99 672.481,17.64 672.481,17.64"
         style="fill:#232770;fill-opacity:1;fill-rule:nonzero;stroke:none"
         id="path174" />
      <path
         d="m 2170.1,1315.32 c -0.04,-0.46 -0.1,-0.93 -0.19,-1.38 -0.64,-3.22 -3.08,-6.32 -6.35,-6.64 0.21,-5.16 -0.3,-10.6 -3.13,-14.94 -2.83,-4.32 -8.54,-7.11 -13.35,-5.22 -1.34,0.54 -2.62,1.41 -4.06,1.42 -1.77,0.02 -3.26,-1.22 -4.76,-2.15 -5.21,-3.29 -11.85,-3.32 -17.92,-2.26 -12.8,2.23 -22.35,9.73 -33.47,15.66 -10.9,5.83 -21.76,11.75 -33.08,16.72 -23.37,10.28 -49.02,16.02 -74.12,8.6 -78.49,-23.26 -113.78,-96.48 -175.89,-105.07 -61.98,-8.72 -115.37,16.26 -115.37,16.26 23.66,63.7 33.84,155.67 37.27,194.92 l 1.45,-0.13 c 0,0 153.96,36.47 177.08,43.22 42.56,12.55 95.81,21 125.42,5.94 17.37,-8.8 33.04,-21.51 47.8,-34.06 37.58,-31.94 79.3,-73.1 91.56,-122.57 0.68,-2.72 1.33,-5.54 1.11,-8.32"
         style="fill:#ffc8af;fill-opacity:1;fill-rule:nonzero;stroke:none"
         id="path176" />
      <path
         d="m 1951.46,1391.93 c 22.1,1.99 44.26,2.3 66.46,1.72 5.54,-0.13 11.11,-0.3 16.69,-0.69 2.79,-0.22 5.6,-0.48 8.43,-0.8 l 4.33,-0.61 c 2.22,-0.5 3.63,-1.16 5.03,-1.81 10.68,-5.34 19.34,-12.02 28.44,-18.61 17.73,-13.53 34.71,-27.99 49.82,-44.62 3.73,-4.21 7.35,-8.54 10.66,-13.22 2.98,-4.73 7.08,-9.52 6.74,-16.81 -0.32,-3.08 -1.52,-6.36 -3.82,-8.7 -2.27,-2.35 -5.21,-3.61 -8.05,-4.26 -5.75,-1.3 -11.41,-0.62 -16.82,0.54 5.51,-0.09 11.14,0.23 16.05,2.01 5.04,1.74 8.1,5.88 7.71,10.73 0.04,4.03 -3.62,8.6 -6.89,12.6 -3.44,4.08 -7.27,7.93 -11.2,11.66 -15.84,14.91 -32.83,28.88 -50.2,42.14 -8.59,6.6 -17.68,13.23 -26.52,18.27 -1.06,0.6 -2.2,1.05 -2.66,1.23 l -3.84,0.68 -8.04,1.08 -16.32,1.87 c -21.91,2.06 -43.92,3.76 -66,5.6"
         style="fill:#e8a289;fill-opacity:1;fill-rule:nonzero;stroke:none"
         id="path178" />
      <path
         d="m 1955.54,1428.53 c 24.12,3.28 48.54,2.08 72.74,0.18 6.07,-0.5 12.14,-1.07 18.21,-2.03 5.93,-0.92 12.46,-1.94 18.55,-4.39 11.82,-4.81 22.31,-11.35 32.42,-18.44 20.03,-14.28 37.65,-32.34 51.74,-52.19 7.06,-10 13.77,-20.86 16.56,-33.34 1.17,-6.39 0.77,-12.87 -1.22,-18.88 -1.9,-5.96 -6.17,-11.47 -11.98,-13.56 10.62,6.7 11.69,20.84 8.45,31.25 -3.43,11.01 -10.37,20.76 -17.9,29.84 -15.32,18.44 -32.01,35.1 -51.47,48.75 -9.52,6.94 -19.68,13.25 -30.15,17.82 -9.95,4.21 -22.5,5.39 -34.12,7.56 -11.85,1.89 -23.8,3.4 -35.77,4.61 -11.96,1.5 -23.95,2.45 -36.06,2.82"
         style="fill:#e8a289;fill-opacity:1;fill-rule:nonzero;stroke:none"
         id="path180" />
      <path
         d="m 1955.54,1463.64 c 18.48,1.88 37,2.86 55.55,2.73 9.28,0.09 18.55,-0.36 27.89,-0.89 4.66,-0.26 9.35,-0.84 14.06,-1.42 4.99,-1.05 8.96,-0.79 15.46,-4.27 4.6,-3.45 7.26,-6.63 10.74,-9.95 l 9.73,-9.94 c 6.32,-6.77 12.71,-13.44 18.81,-20.4 12.41,-13.71 24.28,-27.93 35.63,-42.61 -14.16,12 -27.9,24.4 -41.22,37.17 l -19.94,19.18 -9.86,9.64 c -3.2,3.01 -6.82,6.77 -9.63,8.73 -0.6,0.4 -2.8,1.06 -4.74,1.56 -2.04,0.48 -4.28,0.82 -6.41,1.24 -4.45,0.65 -8.92,1.17 -13.47,1.66 -9.06,1.05 -18.22,1.7 -27.38,2.53 -18.35,1.44 -36.76,3.05 -55.22,5.04"
         style="fill:#e8a289;fill-opacity:1;fill-rule:nonzero;stroke:none"
         id="path182" />
      <path
         d="m 2959.92,1075.33 c -1.57,-6.99 -4.82,-12.91 -10.37,-17.15 -17.33,-13.68 -33.78,-5.73 -51.97,8.33 -27.1,20.81 -58,55.12 -101.3,51.48 -72.45,-6.13 -116.28,-63.47 -171.85,-59.79 -40.29,2.58 -105.89,21.84 -109.07,70.91 -1.81,27.84 12.55,61.7 27.39,84.65 31.97,49.42 84.94,42.66 136.57,44.38 26.01,0.85 52.18,1.09 78.13,3.17 39.26,3.27 87.1,1.06 110.14,-17.35 31.08,-24.76 102.98,-121.69 92.33,-168.63"
         style="fill:#ffc8af;fill-opacity:1;fill-rule:nonzero;stroke:none"
         id="path184" />
      <path
         d="m 1211.22,2598.05 c 12.6,-36.88 57.81,-96.34 105.41,-158.93 50.22,-66.03 107.13,-140.89 144.92,-212.76 52.42,-99.7 83.48,-185.42 98.74,-232.98 18.81,48.64 47.38,144.03 46.09,272.15 -1.45,143.9 -52.6,308.58 -163.58,352.07 -89.04,34.9 -197.24,-4.92 -231.58,-19.55 z m 341.13,-688.53 -9.39,36.75 c -0.29,1.18 -31.06,119.86 -107.96,266.12 -36.63,69.67 -92.74,143.47 -142.26,208.58 -59.7,78.51 -106.86,140.53 -113.99,183.1 l -1.83,10.96 9.96,4.95 c 5.98,2.97 147.8,72.22 266.87,25.55 132.49,-51.92 181.19,-236.99 182.63,-379.7 1.99,-197.72 -62.97,-318.06 -65.74,-323.09 l -18.29,-33.22"
         style="fill:#5e60f4;fill-opacity:1;fill-rule:nonzero;stroke:none"
         id="path186" />
      <path
         d="m 1717.96,1456.36 c 2.28,-1.45 4.27,-3.25 5.8,-5.54 2.83,-4.24 3.57,-9.5 4.07,-14.57 3.06,-31.14 -5.38,-64.44 -10.68,-95.27 -6.46,-37.61 -12.18,-79.14 -26.53,-114.6 -1.96,-4.82 -4.32,-9.72 -8.41,-12.93 -3.67,-2.86 -8.34,-4.08 -12.91,-4.93 -34.22,-6.38 -72.59,2.81 -102.15,-15.55 -8.77,-5.45 -16.05,-12.99 -24.55,-18.86 -22.49,-15.51 -46.69,-11.75 -72.12,-14.78 -153.27,-17.98 -372.64,-33.73 -593.035,-15.41 -363.558,30.13 -469.73,65.92 -513.746,176.72 -4.793,11.65 -8.726,24.15 -12.328,37.68 -23.461,89.73 -0.683,235.12 61.82,406.19 0.172,0.35 0.344,0.86 0.344,1.2 35.449,97.1 83.57,202.59 143.336,310.65 93.672,169.7 177.238,319.21 276.906,398.84 0.172,0.16 0.344,0.34 0.516,0.5 76.035,60.97 161.488,81.01 267.657,38.54 245.57,-98.3 -4.45,-498.17 -58.05,-603.14 -24.74,-48.48 -51.775,-95.8 -79.177,-142.82 -28.391,-48.72 -62.555,-93.48 -88.77,-143.92 12.149,-2.88 24.297,-5.75 36.449,-8.62 0.696,-11.73 1.387,-23.45 2.086,-35.18 0,-7.56 163.822,-30.62 180.682,-32.1 61.35,-5.4 122.59,-13.17 183.85,-19.58 46.02,-4.81 92.03,-9.58 138.06,-14.32 44.03,-4.54 88.44,-7.55 132.02,-15.38 5.05,-0.91 10.09,-1.86 15.13,-2.86 5.23,-1.03 10.54,-2.15 15.18,-4.76 3.87,-2.17 7.11,-5.3 10.83,-7.71 8.66,-5.59 19.3,-6.95 29.52,-8.29 27.3,-3.6 54.48,-8.11 81.48,-13.53 5.74,-1.16 11.88,-2.61 16.72,-5.67"
         style="fill:#9962ef;fill-opacity:1;fill-rule:nonzero;stroke:none"
         id="path188" />
      <path
         d="m 1519.62,2395.91 c 0,0 69.54,11.41 101.76,33.42 32.22,22 -3.14,154.03 -50.88,148.22 -47.74,-5.81 -55.84,-145.91 -55.84,-145.91 l 4.96,-35.73"
         style="fill:#b18df7;fill-opacity:1;fill-rule:nonzero;stroke:none"
         id="path190" />
      <path
         d="m 1608.45,2469.85 c -39.37,119.26 -137.79,237.36 -233.89,296.41 -96.1,59.05 -318.55,28.07 -380.865,-2.57 -62.312,-30.63 332.235,-276.86 332.235,-276.86 l 168.09,-96.54 81.43,30.93 33,48.63"
         style="fill:#b18df7;fill-opacity:1;fill-rule:nonzero;stroke:none"
         id="path192" />
      <path
         d="m 1284.16,2731.72 c -2.74,12.5 31.67,100.12 49.48,192.94 20.29,105.73 32.1,207.71 103.23,285.92 70.24,77.23 153.8,155.71 264.45,159.57 26.19,0.91 54.05,-8.25 69.66,-29.31 29.37,27.03 76.64,17.05 112.4,-0.66 97.21,-48.14 271.05,-302.52 272.73,-308.77 1.78,-6.63 9.98,-84.91 -43.22,-155.15 -37.57,-49.59 -92.51,-71.98 -134.56,-117.83 4.86,34.73 9.72,69.46 14.58,104.19 10.46,74.74 -41.04,94.26 -92.31,134.47 -6.31,4.95 -96.11,74.57 -92.93,80.04 -0.01,-0.01 -69.19,-119.01 -94.36,-125.69 -25,-6.68 -60.28,30.13 -68.68,26.88 -8.38,-3.43 -34.07,-58.74 -53.59,-79.29 -19.53,-20.72 -38.02,-48.12 -58.06,-36.3 -20.03,11.64 1.72,40.76 20.04,73.12 18.49,32.37 -25,93.84 -60.28,88.71 -26.49,-3.86 -51.48,-35.73 -64.82,-56.32 -18.13,-27.99 -34.44,-78.5 -12.74,-109.03 0.98,-1.38 2.11,-2.89 1.95,-4.58 -0.14,-1.36 -1.09,-2.47 -2,-3.49 -21.37,-23.96 -43.3,-47.4 -65.76,-70.33 -11.08,-11.3 -22.24,-25.66 -35.07,-34.92 -2.89,-2.09 -30.08,-14.69 -29.8,-15.54 0,0.01 -0.17,0.52 -0.34,1.37"
         style="fill:#232770;fill-opacity:1;fill-rule:nonzero;stroke:none"
         id="path194" />
      <path
         d="m 2029.6,2913.76 c -9.25,-52.74 -27.57,-116.62 -63.19,-180.66 -69.53,-124.33 -181.01,-241.29 -239.92,-286.85 -13.18,-10.1 -23.63,-16.78 -30.48,-19.18 -37.85,-13.35 -120.56,51.38 -120.56,51.38 l -55.83,-82.54 c -218.85,-43.67 -313.89,180.83 -306.02,210.97 1.89,7.2 9.76,22.61 20.73,41.96 41.11,72.46 86.75,142.2 130.99,212.75 21.68,34.59 42.13,69.83 61.74,105.29 11.66,21.1 39.84,54.05 65.68,57.68 35.28,5.14 78.77,-56.34 60.28,-88.71 -18.32,-32.36 -40.07,-61.48 -20.04,-73.12 20.04,-11.82 38.53,15.58 58.06,36.3 19.52,20.55 45.21,75.86 53.6,79.29 8.39,3.25 43.67,-33.56 68.67,-26.88 25.17,6.68 94.36,125.69 94.36,125.69 0,0 121.24,-116.62 220.39,-162.69 0.51,-0.34 1.03,-0.51 1.54,-0.68"
         style="fill:#ffc8af;fill-opacity:1;fill-rule:nonzero;stroke:none"
         id="path196" />
      <path
         d="m 1575.45,2478.45 -55.83,-82.54 c -43.32,76.88 -103.26,202.75 -107.03,210.63 69.36,-73.46 162.86,-128.09 162.86,-128.09"
         style="fill:#e8a289;fill-opacity:1;fill-rule:nonzero;stroke:none"
         id="path198" />
      <path
         d="m 1526.52,2951.83 c -0.33,12.54 -8.47,25.26 -20.63,28.32 -7.8,1.97 -16.15,-0.11 -23.31,-3.77 -19.55,-10.01 -31.33,-30.56 -39.35,-51.01 -3.64,-9.29 -6.77,-19.07 -6.22,-29.03 0.55,-9.96 5.47,-20.2 14.39,-24.67 3.34,-1.67 7.06,-2.46 10.77,-2.91 5.5,-0.65 11.24,-0.53 16.34,1.62 5.1,2.14 9.45,6.63 10.31,12.1 1.88,12.07 -12.95,22.6 -9.83,34.42 1.65,6.22 8.24,10.27 14.68,10.49 7.79,0.28 15.94,-8 22.79,-3.89 7.24,4.34 10.26,20.83 10.06,28.33"
         style="fill:#e8a289;fill-opacity:1;fill-rule:nonzero;stroke:none"
         id="path200" />
      <path
         d="m 1427.06,2966.88 c -33.97,-59.58 -22.4,-112.62 -22.4,-112.62 l -120.64,-121.88 71.76,219.14 71.28,15.36"
         style="fill:#232770;fill-opacity:1;fill-rule:nonzero;stroke:none"
         id="path202" />
      <path
         d="m 1404.66,2854.26 c 8.69,-36.47 68.32,-63.68 68.32,-63.68 0,0 -64.26,-71.82 -86.26,-60.23 -22,11.6 17.94,123.91 17.94,123.91"
         style="fill:#e8a289;fill-opacity:1;fill-rule:nonzero;stroke:none"
         id="path204" />
      <path
         d="m 1575.45,2478.45 c 0,0 -48.59,28.45 -101.68,71.8 l 78.5,-106.07 23.18,34.27"
         style="fill:#232770;fill-opacity:1;fill-rule:nonzero;stroke:none"
         id="path206" />
      <path
         d="m 1500.77,2390.29 c -33.58,42.51 -97.6,110.94 -174.84,174.5 -46.38,38.18 -142.41,128.53 -121.57,174.84 20.84,46.32 -172.52,49.79 -246.626,10.42 -74.101,-39.37 -131.996,-140.1 -114.629,-177.15 17.368,-37.05 40.915,-36.73 140.489,-22.65 99.576,14.1 224.806,-71.73 288.566,-106.07 140.43,-75.64 228.61,-53.89 228.61,-53.89"
         style="fill:#b18df7;fill-opacity:1;fill-rule:nonzero;stroke:none"
         id="path208" />
      <path
         d="m 1475.29,1949.98 h 165.96 V 1656.1 l -165.96,-13.7 v 307.58"
         style="fill:#f0f5f7;fill-opacity:1;fill-rule:nonzero;stroke:none"
         id="path210" />
      <path
         d="m 1491.56,1933.7 v -273.63 l 133.43,11.02 v 262.61 z m -5,-279.06 v 284.06 h 143.43 v -272.22 l -143.43,-11.84"
         style="fill:#c3d3dd;fill-opacity:1;fill-rule:nonzero;stroke:none"
         id="path212" />
      <path
         d="m 1530.29,1904.23 h 63.68 v -82.63 l -63.68,-1.77 v 84.4"
         style="fill:#c3d3dd;fill-opacity:1;fill-rule:nonzero;stroke:none"
         id="path214" />
      <path
         d="m 1498.45,1738.32 122.73,6.31 v -11.55 l -122.73,-8.09 v 13.33"
         style="fill:#c3d3dd;fill-opacity:1;fill-rule:nonzero;stroke:none"
         id="path216" />
      <path
         d="m 1498.45,1764.37 122.73,3.8 v -11.56 l -122.73,-5.57 v 13.33"
         style="fill:#c3d3dd;fill-opacity:1;fill-rule:nonzero;stroke:none"
         id="path218" />
      <path
         d="m 1498.45,1713.43 122.73,9.2 v -11.56 l -122.73,-10.97 v 13.33"
         style="fill:#c3d3dd;fill-opacity:1;fill-rule:nonzero;stroke:none"
         id="path220" />
      <path
         d="m 1239.33,2649.93 c -55.81,56.69 -87.46,93.56 -60.45,109.77 27.02,16.21 105.14,-27.32 105.14,-27.32 l -44.69,-82.45"
         style="fill:#9962ef;fill-opacity:1;fill-rule:nonzero;stroke:none"
         id="path222" />
      <path
         d="m 1576.32,1217.77 c -0.41,0 -0.83,0.05 -1.25,0.16 -2.67,0.68 -4.28,3.41 -3.6,6.08 19.22,74.87 29.4,152.02 30.25,229.31 0.02,2.76 2.2,4.96 5.05,4.94 2.77,-0.03 4.98,-2.29 4.95,-5.06 -0.86,-78.08 -11.14,-156.03 -30.56,-231.67 -0.58,-2.25 -2.61,-3.76 -4.84,-3.76"
         style="fill:#8338ea;fill-opacity:1;fill-rule:nonzero;stroke:none"
         id="path224" />
      <path
         d="m 2442.62,1121.85 c -2.37,0 -4.48,1.7 -4.91,4.11 -12.42,69.03 41.74,155.17 107.31,170.7 2.68,0.7 5.38,-1.02 6.02,-3.71 0.63,-2.69 -1.03,-5.38 -3.72,-6.02 -59.85,-14.18 -111.14,-96 -99.77,-159.2 0.49,-2.72 -1.32,-5.32 -4.04,-5.81 -0.3,-0.04 -0.59,-0.07 -0.89,-0.07"
         style="fill:#8338ea;fill-opacity:1;fill-rule:nonzero;stroke:none"
         id="path226" />
      <path
         d="m 2658.21,989.75 h -929.77 v 37.11 h 929.77 v -37.11"
         style="fill:#a5b7c6;fill-opacity:1;fill-rule:nonzero;stroke:none"
         id="path228" />
      <path
         d="m 2658.21,989.75 h 775.64 v 37.11 h -775.64 v -37.11"
         style="fill:#232770;fill-opacity:1;fill-rule:nonzero;stroke:none"
         id="path230" />
      <path
         d="m 2914.94,1887.61 737.26,-30.74 -271.96,-830.01 h -747.41 l 282.11,860.75"
         style="fill:#a5b7c6;fill-opacity:1;fill-rule:nonzero;stroke:none"
         id="path232" />
      <path
         d="m 2940.32,1887.61 747.79,-32.28 -254.26,-828.47 h -775.64 l 282.11,860.75"
         style="fill:#758d9e;fill-opacity:1;fill-rule:nonzero;stroke:none"
         id="path234" />
      <path
         d="m 2891.89,1134.15 c -15.17,-36.43 -44.82,-58.75 -66.22,-49.83 -21.4,8.9 -26.46,45.67 -11.29,82.1 15.18,36.43 44.82,58.75 66.23,49.84 21.4,-8.92 26.45,-45.67 11.28,-82.11"
         style="fill:#a5b7c6;fill-opacity:1;fill-rule:nonzero;stroke:none"
         id="path236" />
      <path
         d="M 1554.22,836.121 H 150.355 V 989.75 H 1554.22 V 836.121"
         style="fill:#5e60f4;fill-opacity:1;fill-rule:nonzero;stroke:none"
         id="path238" />
      <path
         d="M 1554.22,836.121 H 4608.75 V 989.75 H 1554.22 V 836.121"
         style="fill:#232770;fill-opacity:1;fill-rule:nonzero;stroke:none"
         id="path240" />
      <path
         d="M 1151.67,1108.1 H 414.883 v -10.87 h 40.82 v -96.61 h -40.82 v -10.87 h 40.82 7.914 688.053 c 32.69,0 59.18,26.49 59.18,59.18 0,32.67 -26.49,59.17 -59.18,59.17"
         style="fill:#3887fe;fill-opacity:1;fill-rule:nonzero;stroke:none"
         id="path242" />
      <path
         d="m 781.055,1097.23 c 26.636,0 48.3,-21.67 48.3,-48.3 0,-26.64 -21.664,-48.31 -48.3,-48.31 H 438.633 c 13.894,32.2 13.894,64.41 0,96.61 h 342.422"
         style="fill:#f9f8f7;fill-opacity:1;fill-rule:nonzero;stroke:none"
         id="path244" />
      <path
         d="M 448.313,1061.69 H 827.59 v 0.01 c -0.328,1.18 -0.699,2.34 -1.113,3.5 H 447.844 c 0.164,-1.18 0.336,-2.34 0.469,-3.51 z m 372.562,14.52 c -0.832,1.2 -1.699,2.37 -2.633,3.5 H 444.809 c 0.324,-1.16 0.597,-2.34 0.879,-3.5 z M 447.844,1032.66 H 826.48 c 0.411,1.14 0.782,2.31 1.11,3.49 v 0 H 448.313 c -0.133,-1.16 -0.305,-2.33 -0.469,-3.49 z m 1.164,14.52 H 829.27 c 0.015,0.57 0.085,1.15 0.085,1.75 0,0.58 -0.07,1.16 -0.085,1.74 H 449.008 c 0.019,-1.17 0.019,-2.33 0,-3.49 z m -4.199,-29.04 h 373.437 c 0.918,1.11 1.777,2.26 2.594,3.45 0.012,0.02 0.023,0.03 0.035,0.05 H 445.688 c -0.282,-1.17 -0.555,-2.33 -0.879,-3.5"
         style="fill:#e9e5d9;fill-opacity:1;fill-rule:nonzero;stroke:none"
         id="path246" />
      <path
         d="M 1230.51,1226.46 H 493.727 v -10.88 h 40.816 v -96.61 h -40.816 v -10.87 h 40.816 7.918 688.049 c 32.68,0 59.18,26.49 59.18,59.18 0,32.68 -26.5,59.18 -59.18,59.18"
         style="fill:#fb5507;fill-opacity:1;fill-rule:nonzero;stroke:none"
         id="path248" />
      <path
         d="m 859.895,1215.59 c 26.636,0 48.304,-21.67 48.304,-48.31 0,-26.64 -21.668,-48.31 -48.304,-48.31 H 517.477 c 13.894,32.2 13.894,64.41 0,96.62 h 342.418"
         style="fill:#f9f8f7;fill-opacity:1;fill-rule:nonzero;stroke:none"
         id="path250" />
      <path
         d="M 527.152,1180.05 H 906.43 v 0 c -0.325,1.18 -0.7,2.34 -1.114,3.5 H 526.68 c 0.172,-1.17 0.34,-2.34 0.472,-3.5 z m 372.559,14.51 c -0.824,1.21 -1.699,2.38 -2.625,3.51 H 523.652 c 0.317,-1.18 0.594,-2.34 0.879,-3.51 z M 526.68,1151.01 h 378.64 c 0.41,1.15 0.785,2.31 1.11,3.49 v 0.01 H 527.152 c -0.132,-1.17 -0.3,-2.33 -0.472,-3.5 z m 1.172,14.52 h 380.257 c 0.02,0.58 0.09,1.16 0.09,1.75 0,0.58 -0.07,1.16 -0.09,1.74 H 527.852 c 0.019,-1.16 0.019,-2.33 0,-3.49 z m -4.2,-29.04 h 373.434 v 0 c 0.918,1.11 1.777,2.27 2.598,3.45 0.007,0.02 0.023,0.03 0.035,0.05 H 524.531 c -0.285,-1.17 -0.562,-2.33 -0.879,-3.5"
         style="fill:#e9e5d9;fill-opacity:1;fill-rule:nonzero;stroke:none"
         id="path252" />
      <path
         d="M 1181.6,1344.8 H 444.809 v -10.86 h 40.816 v -96.62 h -40.816 v -10.86 h 40.816 7.922 688.053 c 32.68,0 59.17,26.49 59.17,59.17 0,32.68 -26.49,59.17 -59.17,59.17"
         style="fill:#ffbf0b;fill-opacity:1;fill-rule:nonzero;stroke:none"
         id="path254" />
      <path
         d="m 810.977,1333.94 c 26.636,0 48.304,-21.67 48.304,-48.31 0,-26.64 -21.668,-48.31 -48.304,-48.31 H 468.559 c 13.898,32.21 13.898,64.41 0,96.62 h 342.418"
         style="fill:#f9f8f7;fill-opacity:1;fill-rule:nonzero;stroke:none"
         id="path256" />
      <path
         d="m 478.238,1298.4 h 379.274 v 0 c -0.324,1.19 -0.699,2.35 -1.11,3.49 H 477.766 c 0.168,-1.16 0.336,-2.32 0.472,-3.49 z m 372.559,14.52 c -0.832,1.2 -1.699,2.37 -2.629,3.5 H 474.73 c 0.325,-1.17 0.602,-2.34 0.883,-3.5 z m -373.031,-43.55 h 378.636 c 0.414,1.14 0.786,2.3 1.11,3.49 h 0.004 -379.278 c -0.136,-1.17 -0.304,-2.33 -0.472,-3.49 z m 1.164,14.51 h 380.265 c 0.02,0.58 0.086,1.16 0.086,1.75 0,0.59 -0.066,1.17 -0.086,1.75 H 478.93 c 0.019,-1.17 0.019,-2.33 0,-3.5 z m -4.2,-29.04 h 373.438 v 0 c 0.918,1.12 1.777,2.27 2.598,3.46 0.011,0.01 0.019,0.03 0.031,0.04 H 475.613 c -0.281,-1.16 -0.558,-2.33 -0.883,-3.5"
         style="fill:#e9e5d9;fill-opacity:1;fill-rule:nonzero;stroke:none"
         id="path258" />
      <path
         d="M 1506.92,989.75 H 1293.8 c -22.28,22.28 -34.78,34.77 -57.06,57.06 v 260.83 h 327.25 v -260.83 c -22.29,-22.29 -34.78,-34.78 -57.07,-57.06"
         style="fill:#f9f8f7;fill-opacity:1;fill-rule:nonzero;stroke:none"
         id="path260" />
      <path
         d="m 1236.74,1287.15 h -51.47 c -4.26,0 -8.43,-1.73 -11.45,-4.75 -3.01,-3.01 -4.74,-7.18 -4.74,-11.45 V 1165.4 c 0.01,-41.01 33.24,-74.25 74.26,-74.26 v 32.39 c -23.12,0.03 -41.83,18.76 -41.88,41.87 v 89.36 h 35.28 v 32.39 0"
         style="fill:#f9f8f7;fill-opacity:1;fill-rule:nonzero;stroke:none"
         id="path262" />
    </g>
  </g>
</svg>
