<svg width="667" height="667" viewBox="0 0 667 667" fill="none" xmlns="http://www.w3.org/2000/svg">
<g clip-path="url(#clip0_6_2)">
<path d="M0 666.667H666.667V6.00815e-05H0V666.667Z" fill="#CFEFEF"/>
<path d="M157.037 564.434H509.629C563.893 515.956 598.065 445.456 598.065 366.964C598.065 220.756 479.54 102.232 333.333 102.232C187.125 102.232 68.6016 220.756 68.6016 366.964C68.6016 445.456 102.773 515.956 157.037 564.434Z" fill="#70CFD1"/>
<path d="M378.479 513.204C388.972 510.945 399.604 512.225 410.171 512.061C423.917 511.848 437.671 512.013 451.42 512.008C453.973 512.007 456.547 511.849 458.885 513.192C458.911 521.825 458.936 530.46 458.963 539.092C459.929 541.839 458.189 542.084 456.211 542.024C432.372 541.288 408.528 541.993 384.689 541.652C382.292 541.619 379.917 541.463 378.367 539.21C378.316 536.04 378.265 532.869 378.215 529.699C378.304 524.2 378.391 518.701 378.479 513.204Z" fill="#2679A3"/>
<path d="M481.529 552.155C481.263 563.964 481.263 563.959 469.523 563.959C434.861 563.956 400.2 563.967 365.54 563.953C354.535 563.948 356.023 564.644 355.92 554.567C355.913 553.779 355.875 552.992 355.852 552.204C356.687 550.997 476.664 550.42 481.261 552.281L481.529 552.155Z" fill="#2679A3"/>
<path d="M481.261 552.281C443.459 552.32 405.659 552.304 367.864 552.231C366.1 552.227 357.616 552.208 355.852 552.204C359.871 549.667 364.1 547.12 368.54 544.588C371.873 542.691 375.152 540.898 378.367 539.21C402.413 539.214 458.961 539.093 458.961 539.093C458.961 539.093 474.529 546.698 481.261 552.281Z" fill="#2685B3"/>
<path d="M578.613 295.129H267.655C263.559 295.129 260.208 298.48 260.208 302.577V508.175C260.208 512.269 263.559 515.621 267.655 515.621H578.613C582.709 515.621 586.06 512.269 586.06 508.175V302.577C586.06 298.48 582.709 295.129 578.613 295.129Z" fill="#2685B5"/>
<path d="M565.303 321.387V491.952C565.303 496.048 561.951 499.399 557.856 499.399H281.587C277.491 499.399 274.139 496.048 274.139 491.952V321.387C274.139 317.291 277.491 313.94 281.587 313.94H557.856C561.951 313.94 565.303 317.291 565.303 321.387Z" fill="#2F3053"/>
<path d="M490.82 499.399H416.165L295.959 313.94H364.141L490.82 499.399Z" fill="#535E7F"/>
<path d="M535.019 499.399H516.271L386.539 313.94H405.691L535.019 499.399Z" fill="#535E7F"/>
<path d="M557.856 499.399H550.649L432.189 313.94H455.031L565.303 470.604V491.952C565.303 496.048 561.951 499.399 557.856 499.399Z" fill="#535E7F"/>
<path d="M111.184 449.207C110.798 432.572 113.357 415.14 112.963 397.953C161.853 398.423 210.745 398.135 259.637 398.136C267.543 398.136 282.279 394.256 287.153 404.924C289.653 410.395 288.624 438.089 285.721 443.539C280.297 453.721 267.291 450.123 259.104 450.123C232.031 450.12 204.957 450.123 177.884 450.121C164.301 450.12 150.719 450.12 137.137 450.116C132.914 450.115 114.472 453.941 111.184 449.207Z" fill="white"/>
<path d="M279.775 447.892C291.484 446.591 291.652 413.159 285.468 406.052C276.789 396.079 129.296 406.237 113.016 401.576C97.5546 397.148 109.44 395.644 118.956 395.64C132.932 395.633 275.196 391.773 286.304 398.457C297.001 404.895 297.952 432.148 293.323 443.099C286.079 460.229 260.828 453.792 247.16 453.792C209.487 453.792 171.925 453.797 134.243 453.796C130.763 453.795 93.7656 455.092 109.315 448.083C114.796 445.611 187.803 448.076 215.293 448.075C228.251 448.075 273.781 450.853 279.775 447.892Z" fill="#2F3053"/>
<path d="M524.093 431.639C524.093 431.639 527.811 442.207 528.111 443.775C528.591 446.291 531.008 444.077 530.649 448.069C530.465 450.12 526.389 450.945 526.389 450.945L520.063 482.204L435.701 480.793L433.045 462.199C433.045 462.199 429.412 453.7 428.428 450.277C427.791 448.052 425.937 449.347 425.792 445.741C425.741 444.467 429.565 443.676 429.863 442.737C431.305 438.217 433.693 430.223 433.693 430.223L524.093 431.639Z" fill="white"/>
<path d="M448.328 564.561H507.664L509.628 539.315C509.628 539.315 484.593 539.314 478.808 539.314C467.497 539.312 444.873 539.31 444.873 539.31L448.048 564.575L448.328 564.561Z" fill="white"/>
<path d="M445.152 539.417C443.453 527.031 441.535 514.389 439.377 501.508C438.144 494.152 436.863 486.899 435.539 479.749C463.855 479.68 492.169 479.611 520.483 479.541C516.764 500.705 513.045 521.871 509.325 543.035C502.836 544.485 495.052 545.653 486.232 545.847C469.027 546.222 454.851 542.732 445.152 539.417Z" fill="#F68C54"/>
<path d="M208.648 130.115C205.229 131.635 200.629 133.109 198.611 130.703C194.641 125.973 202.307 108.211 209.153 96.9199C220.159 78.7706 229.156 77.172 230.517 64.6826C230.853 61.6066 230.995 55.4333 234.777 51.616C236.629 49.748 239.699 48.1146 240.925 49.2719C244.069 52.2386 233.021 73.6119 231.261 78.0786C224.209 95.9826 219.22 113.945 208.648 130.115Z" fill="#F9A988"/>
<path d="M145.681 134.487C149.099 136.007 153.699 137.48 155.719 135.075C159.688 130.345 152.023 112.583 145.176 101.292C134.169 83.1427 125.173 81.5427 123.811 69.0547C123.476 65.9787 123.335 59.8053 119.552 55.988C117.7 54.12 114.63 52.4867 113.404 53.644C110.259 56.6093 121.308 77.984 123.067 82.4493C130.12 100.355 135.109 118.317 145.681 134.487Z" fill="#F9A988"/>
<path d="M157.38 202.761C165.128 200.497 174.473 198.363 185.171 197.097C195.509 195.875 204.799 195.736 212.661 196.08C210.297 207.652 209.845 215.693 209.911 221.036C209.932 222.847 210.069 228.351 209.843 236.085C209.523 247.009 209.064 249.497 207.952 266.132C205.809 298.212 206.368 316.419 200.817 317.708C199.656 317.977 197.779 317.599 194.821 314.215C194.601 309.112 194.311 301.285 194.152 291.697C193.86 274.055 194.347 270.505 193.519 262.291C192.428 251.453 188.911 230.831 184.153 230.697C178.955 230.552 174.323 254.781 173.868 257.215C168.028 288.497 175.168 312.905 167.809 315.549C167.272 315.743 166.383 315.917 165.077 315.549C163.524 315.227 161.969 314.905 160.416 314.584C160.257 311.652 160.035 307.321 159.803 302.08C159.221 288.969 159.001 279.017 158.815 272.347C158.053 244.991 157.408 204.539 157.38 202.761Z" fill="#2F3053"/>
<path d="M160.747 208.537C155.769 209.117 157.147 206.237 157.38 202.761C157.801 196.472 158.084 190.18 158.365 183.885C158.625 178.076 158.889 172.265 159.319 166.463C160.144 155.307 154.336 145.577 148.764 139.916C145.255 136.348 143.401 132.691 142.379 130.12C146.26 126.587 150.141 123.055 154.024 119.521C157.824 126.36 161.515 128.056 164.167 128.353C167.711 128.752 169.028 126.609 177.464 124.24C183.629 122.509 184.795 123.128 188.396 121.609C193.015 119.661 196.164 116.505 198.351 113.419C203.853 117.128 209.356 120.839 214.859 124.547C213.167 127.917 211.541 130.543 210.369 132.316C208.073 135.792 206.723 137.205 205.889 139.988C205.355 141.772 205.217 143.745 205.463 146.445C206.036 152.761 206.424 159.089 206.92 165.411C208.175 181.416 206.631 179.925 208.597 186.863C211.893 198.485 218.083 201.963 215.716 205.187C212.581 209.457 202.481 202.309 184.837 206.005C176.979 207.651 168.764 207.605 160.747 208.537Z" fill="#F04A29"/>
<path d="M160.268 313.511V323.645C160.268 323.645 183.036 327.103 182.048 321.669C181.06 316.236 165.384 314.065 165.384 314.065L160.268 313.511Z" fill="#2F3053"/>
<path d="M194.821 314.215V324.349C194.821 324.349 217.588 327.807 216.6 322.373C215.612 316.94 199.937 314.769 199.937 314.769L194.821 314.215Z" fill="#2F3053"/>
<path d="M170.067 117.365C168.568 117.037 164.129 115.861 161.696 111.964C161.184 111.143 160.204 109.779 160.416 108.015C160.6 106.493 161.881 105.403 163.153 102.815C168.139 92.6787 178.813 85.1947 184.621 98.2614C189.063 108.253 186.235 111.756 182.999 118.715C182.021 120.817 184.545 121.209 184.593 123.483C184.657 126.4 182.732 130.127 180.165 130.616C177.276 131.168 172.283 127.86 171.129 127.901L170.877 127.84C170.436 127.539 170.867 126.208 170.98 125.619C171.329 123.796 171.387 121.111 170.067 117.365Z" fill="#F9A988"/>
<path d="M183.853 93.3547C174.233 97.0267 170.289 98.2587 169.168 98.324C169.071 98.3294 168.703 98.3307 168.38 98.5747C167.379 99.332 167.66 101.376 167.765 102.107C169.004 110.704 169.957 117.307 168.015 118.541C167.068 119.141 165.593 118.369 165.208 118.167C163.337 117.188 163.192 115.208 161.399 111.945C160.78 110.819 159.985 109.576 158.953 108.285C158.505 107.959 152.677 103.933 153.703 98.3053C154.356 94.7213 155.515 91.6573 159.864 90.628C162.04 90.1133 164.644 89.4467 166.141 87.2387C167.475 86.188 168.659 84.756 170.171 84.164C170.957 83.8547 175.596 81.7427 179.744 84.444C182.609 86.308 184.175 89.7614 183.853 93.3547Z" fill="#F04A29"/>
<path d="M171.585 105.525C172.683 107.765 171.916 110.393 169.871 111.395C167.827 112.396 165.279 111.393 164.181 109.155C163.084 106.915 163.852 104.287 165.896 103.285C167.941 102.283 170.488 103.287 171.585 105.525Z" fill="#F9A988"/>
<path d="M171.387 73.3813C166.728 77.0106 164.497 80.5266 163.324 83.1613C162.268 85.5306 162.101 87.1106 160.319 88.8386C158.279 90.8146 156.361 90.7026 152.611 92.3479C150.795 93.1453 148.135 94.4693 145.045 96.6386C147.099 98.7053 149.153 100.772 151.207 102.839L165.424 95.8973C169.188 90.1426 172.953 84.388 176.719 78.6333C174.941 76.8826 173.164 75.1319 171.387 73.3813Z" fill="#3D728E"/>
<path d="M150.515 78.6426L139.204 99.5C146.78 96.2973 154.355 93.0934 161.931 89.8907C166.487 82.256 171.044 74.624 175.601 66.9907L150.515 78.6426Z" fill="#3B5578"/>
<path d="M153.419 95.8106C154.076 97.412 154.912 98.0853 155.155 98.2627C156.16 99 157.359 98.44 158.537 99.436C159.832 100.531 164.063 106.004 159.797 106.539C157.736 106.796 154.639 102.169 154.339 100.385C154.252 99.864 154.277 99.5213 154.069 98.9026C153.6 97.5066 152.749 96.9546 151.556 95.6413C150.123 94.0666 149.248 93.288 149.269 92.3106C149.299 91.0746 150.793 89.0187 151.32 87.8907C152.175 86.0573 153.015 84.2186 153.856 82.38C153.811 82.4773 154.949 80.0573 155.316 80.188C155.355 80.2027 155.427 80.2573 155.429 80.5746C155.44 82.2973 153.524 87.1186 153.524 87.1186C152.287 90.2306 152.477 93.5146 153.419 95.8106Z" fill="#F9B328"/>
<path d="M361.707 268.575H533.215C535.956 241.852 518.861 220.737 500.341 218.965C482.165 217.225 468.663 234.695 467.748 235.915C468.453 231.552 466.785 227.305 463.609 225.341C459.22 222.625 452.165 224.401 448.897 230.397C441.887 217.377 428.448 209.945 416.112 211.761C399.549 214.2 385.959 233.167 390.511 254.305C382.723 251.267 374.22 252.313 368.373 257.224C363.633 261.205 362.173 266.439 361.707 268.575Z" fill="#F6FCFD"/>
<path d="M260.819 188.224L333.695 184.767L336.913 173.273C336.789 171.38 336.472 166.315 332.315 163.159C327.817 159.744 322.52 161.105 321.741 161.32C316.42 162.783 312.412 167.881 311.627 174.193C311.481 169.803 309.536 166.12 307.029 165.457C303.843 164.613 298.545 168.333 297.375 175.572C296.829 174.043 293.72 165.795 285.316 162.643C284.868 162.475 273.968 158.549 268.871 164.537C266.932 166.816 265.725 170.653 267.032 173.733C269.145 178.717 276.929 179.564 276.687 180.629C276.435 181.731 268.471 179.205 263.821 183.113C261.913 184.717 260.819 188.224 260.819 188.224Z" fill="#F6FCFD"/>
<path d="M153.384 294.861H105.589C104.825 287.415 109.589 281.531 114.75 281.037C119.815 280.552 123.578 285.42 123.833 285.76C123.636 284.544 124.102 283.361 124.986 282.813C126.209 282.056 128.175 282.552 129.086 284.223C131.04 280.595 134.784 278.523 138.223 279.029C142.839 279.709 146.625 284.995 145.357 290.885C147.528 290.039 149.897 290.331 151.527 291.699C152.847 292.808 153.253 294.267 153.384 294.861Z" fill="#F6FCFD"/>
<path d="M445.231 175.2C444.404 177.92 442.564 179.88 440.791 181.253H373.989C372.457 179.188 370.976 176.64 370.337 173.893C369.483 170.2 369.816 164.695 372.417 163.468C376.617 161.495 384.524 171.667 386.709 170.013C388.164 168.92 384.617 164.468 386.417 159.893C388.004 155.84 393.351 152.893 396.603 153.96C400.323 155.188 402.564 162.067 401.323 171.613C402.124 169.161 403.549 167.361 405.231 166.92C407.791 166.24 411.709 168.521 413.763 173.2C413.043 168.627 414.549 164.307 417.671 161.987C420.137 160.147 424.337 159.028 427.203 160.787C431.111 163.2 429.483 169.135 432.564 170.32C436.084 171.68 440.191 164.627 443.391 166C445.656 166.987 446.284 171.695 445.231 175.2Z" fill="#F6FCFD"/>
<path d="M138.333 508.28C138.387 503.387 142.507 499.305 147.36 499.347C152.36 499.387 156.067 503.305 156.013 508.493C156.427 514.053 151.027 517.453 146.987 517.253C142.053 517.013 138.28 513.213 138.333 508.28ZM125.8 488.44V526.16H332.387V488.44H125.8Z" fill="#2F3053"/>
<path d="M146.987 517.253C142.053 517.013 138.28 513.213 138.333 508.28C138.387 503.387 142.507 499.305 147.36 499.347C152.36 499.387 156.067 503.305 156.013 508.493C156.427 514.053 151.027 517.453 146.987 517.253ZM147.533 497.48C141.28 497.4 136.427 502.04 136.373 508.16C136.307 514.347 141.04 519.227 147.147 519.267C153.333 519.305 158.013 514.68 158.147 508.387C158.293 502.507 153.467 497.56 147.533 497.48Z" fill="#F68C54"/>
<path d="M257.839 495.625H324.304V518.977H257.839V495.625Z" fill="white"/>
<path d="M316.22 500.385H319.813V515.655H316.22V500.385Z" fill="#F68C54"/>
<path d="M306.939 500.385H310.532V515.655H306.939V500.385Z" fill="#F68C54"/>
<path d="M297.657 500.385H301.251V515.655H297.657V500.385Z" fill="#F68C54"/>
<path d="M288.377 500.385H291.969V515.655H288.377V500.385Z" fill="#F68C54"/>
<path d="M106.71 453.144H217.279V490.863H106.71V453.144Z" fill="#277EA7"/>
<path d="M269.203 453.144H276.556V490.863H269.203V453.144Z" fill="#277EA7"/>
<path d="M313.295 453.144V490.863H284.779V453.144H313.295Z" fill="#277EA7"/>
<path d="M259.683 453.144V490.863H251.46V453.144H259.683Z" fill="#277EA7"/>
<path d="M251.46 453.144V490.863H217.279V453.144H251.46Z" fill="#FEFBFD"/>
<path d="M269.203 453.144V490.863H259.683V453.144H269.203Z" fill="#FEFBFD"/>
<path d="M284.779 453.144V490.863H276.556V453.144H284.779Z" fill="#FEFBFD"/>
<path d="M135.132 453.103V490.821H126.909V453.103H135.132Z" fill="#FEFBFD"/>
<path d="M327.781 544.16C327.728 549.053 323.608 553.133 318.755 553.093C313.755 553.053 310.048 549.133 310.101 543.947C309.688 538.386 315.088 534.986 319.128 535.186C324.061 535.427 327.835 539.227 327.781 544.16ZM340.315 564V526.28H133.728V564H340.315Z" fill="#F04A29"/>
<path d="M319.128 535.186C324.061 535.427 327.835 539.227 327.781 544.16C327.728 549.053 323.608 553.133 318.755 553.093C313.755 553.053 310.048 549.133 310.101 543.947C309.688 538.386 315.088 534.986 319.128 535.186ZM318.581 554.96C324.835 555.04 329.688 550.4 329.741 544.28C329.808 538.093 325.075 533.213 318.968 533.173C312.781 533.133 308.101 537.76 307.968 544.053C307.821 549.933 312.648 554.88 318.581 554.96Z" fill="#2F3053"/>
<path d="M208.276 556.813H141.811V533.463H208.276V556.813Z" fill="#F6FBE4"/>
<path d="M149.895 552.053H146.301V536.785H149.895V552.053Z" fill="#F68C54"/>
<path d="M159.175 552.053H155.583V536.785H159.175V552.053Z" fill="#F68C54"/>
<path d="M168.456 552.053H164.864V536.785H168.456V552.053Z" fill="#F68C54"/>
<path d="M177.737 552.053H174.145V536.785H177.737V552.053Z" fill="#F68C54"/>
<path d="M264.519 327.564C264.904 347.769 262.345 368.94 262.739 389.816C213.848 389.245 164.956 389.596 116.065 389.596C108.159 389.596 93.424 394.307 88.5489 381.349C86.0489 374.704 87.0786 341.067 89.9812 334.448C95.4046 322.081 108.411 326.452 116.597 326.453C143.671 326.455 170.745 326.453 197.819 326.455C211.401 326.455 224.983 326.456 238.565 326.46C242.788 326.461 261.229 321.815 264.519 327.564Z" fill="white"/>
<path d="M97.0104 331.836C85.3156 333.568 85.5355 375.249 91.8021 384.052C100.596 396.407 247.964 382.367 264.297 388.028C279.809 393.404 267.943 395.389 258.427 395.483C244.452 395.623 102.238 401.759 91.0541 393.528C80.2817 385.603 79.0156 351.633 83.5183 337.939C90.5625 316.515 115.887 324.305 129.554 324.177C167.225 323.827 204.785 323.472 242.467 323.123C245.945 323.091 282.925 321.128 267.459 330.013C262.007 333.145 188.976 330.751 161.485 331.008C148.528 331.131 102.968 328.088 97.0104 331.836Z" fill="#F04A29"/>
<path d="M210.92 396.989H232.339C232.127 394.849 231.915 392.708 231.703 390.567C228.104 390.18 224.505 389.792 220.907 389.404C218.208 389.784 211.236 391.035 209.42 394.927C209.303 395.18 209.239 395.375 209.264 395.607C209.328 396.183 209.937 396.636 210.92 396.989Z" fill="#277EA7"/>
<path d="M221.849 374.961L220.907 389.404C220.28 389.427 219.364 389.491 218.268 389.677C215.995 390.067 212.867 391.001 212.909 391.667C212.94 392.172 214.793 392.363 215.743 392.475C218.873 392.847 224.092 392.892 231.703 390.567L231.567 379.108L221.849 374.961Z" fill="#7E3C38"/>
<path d="M304.904 336.129C298.872 336.036 268.199 333.048 268.199 333.048C252.327 339.432 236.453 345.816 220.581 352.2C221.004 360.232 221.427 368.263 221.849 376.295C225.088 377.516 228.328 378.736 231.567 379.957C231.564 373.247 231.563 366.533 231.561 359.823C248.571 359.719 265.581 359.615 282.589 359.511C282.147 384.572 281.26 434.693 281.26 434.693C282.804 434.735 284.395 434.812 286.028 434.933C289.664 435.203 293.08 435.655 296.252 436.219C296.464 426.188 297.548 418.291 298.149 413.26C299.732 400.024 302.581 383.273 307.651 369.217C308.569 366.669 311.12 360.112 310.304 351.72C309.627 344.757 306.911 339.387 304.904 336.129Z" fill="#277EA7"/>
<path d="M304.925 291.405C305.052 286.337 304.784 284.167 306.04 280.664C307.465 276.689 310.059 273.311 313.696 270.42C315.591 268.915 317.1 266.812 319.025 265.368C324.18 261.501 323.955 256.149 323.432 250.171C322.899 244.057 321.345 238.215 320.54 232.196C319.944 230.993 318.996 231.153 318.02 231.412C317.647 231.587 317.36 231.869 317.152 232.251C316.968 232.635 316.843 233.041 316.76 233.465C315.915 239.519 314.929 245.563 315.132 251.731C315.216 254.319 300.076 264.263 293.768 267.084C292.503 267.651 291.212 268.133 290.068 268.969C286.009 272.943 285.604 272.94 279.52 268.887C274.585 267.385 271.16 264.025 268.633 259.121C266.44 254.865 263.528 251.084 260.661 247.333C258.885 245.009 256.985 227.045 255.513 220.981C255.169 219.567 254.932 217.987 253.397 217.369C252.56 217.148 251.775 217.243 251.064 217.817C248.956 227.895 247.899 238.073 251.115 248.035C253.108 254.204 254.999 269.107 264.967 280.595C266.547 282.416 267.536 283.267 268.655 284.644C268.655 284.645 269.411 285.613 270.068 286.588C270.935 287.876 274.965 295.289 272.769 306.487C270.005 320.584 259.695 328.851 262.231 331.708C262.475 331.981 264.685 333.976 270.021 335.755C270.021 335.755 289.797 343.305 304.871 336.983C305.161 336.861 305.965 336.527 306.519 335.673C307.149 334.703 307.188 333.492 307.064 332.449C306.597 328.525 302.937 319.416 301.903 315.265C300.032 307.759 304.527 307.541 304.925 291.405Z" fill="#F68C54"/>
<path d="M315.56 221.065C315.309 221.665 313.788 225.471 315.489 229.155C316.125 230.531 317.004 231.443 317.659 231.996C318.113 232.027 318.645 232.063 319.1 232.095C319.58 232.128 320.06 232.161 320.54 232.195C320.611 229.517 320.839 226.829 320.708 224.161C320.539 220.693 319.555 220.149 319.175 219.951C317.733 219.195 315.799 220.856 315.56 221.065Z" fill="#7E3C38"/>
<path d="M281.336 243.629C279.14 246.489 277.499 249.516 277.836 253.536C278.047 256.039 278.233 257.996 280.673 259.464C281.809 260.147 282.219 261 282.468 261.471C283.603 263.609 280.215 268.005 279.52 268.887C280.896 272.036 283.801 273.695 286.357 273.061C288.749 272.469 289.925 270.089 290.12 269.679C287.451 267.119 288.537 263.793 288.603 260.676C289.753 255.661 289.259 250.972 286.459 246.667C285.177 244.697 283.811 243.083 281.336 243.629Z" fill="#7E3C38"/>
<path d="M254.836 217.848C255.073 216.083 255.273 214.633 255.415 213.628C256.031 209.207 256.295 207.645 255.409 206.608C255.317 206.499 254.744 205.917 253.948 205.808C252.607 205.624 251.517 207.335 251.221 207.84L251.153 207.959C250.139 209.784 249.007 217.497 251.559 218.739C252 218.953 252.975 219.181 254.836 217.848Z" fill="#7E3C38"/>
<path d="M304.911 263.045C301.721 267.604 295.807 270.773 290.068 268.969C281.529 266.287 280.239 254.756 280.129 253.636C280.039 252.705 279.081 241.229 286.437 236.795C292.509 233.136 300.413 236.584 304.46 242.244C308.587 248.016 309.247 256.848 304.911 263.045Z" fill="#2F3053"/>
<path d="M308.476 286.847C306.768 291.732 301.741 306.105 291.891 306.632C282.891 307.113 274.399 295.796 274.096 286.293C274.031 284.233 273.817 280.516 275.941 277.997C277.441 276.217 278.951 276.391 280.972 274.125C281.248 273.816 283.213 271.567 283.823 268.595C285.047 262.629 279.964 257.864 281.14 256.427C282.356 254.94 287.3 260.649 291.891 259.464C299.107 257.599 298.713 240.467 302.104 240.203C306.083 239.895 316.247 264.628 308.476 286.847Z" fill="#2F3053"/>
<path d="M308.401 237.116C308.401 243.328 303.821 248.363 298.171 248.363C292.52 248.363 287.94 243.328 287.94 237.116C287.94 230.905 292.52 225.869 298.171 225.869C303.821 225.869 308.401 230.905 308.401 237.116Z" fill="#2F3053"/>
<path d="M272.604 453.119H295.288V446.609C290.907 446.069 286.525 445.528 282.143 444.988C276.38 444.535 272.032 446.392 271.269 449.292C271.215 449.5 270.907 450.748 271.487 451.921C271.737 452.428 272.111 452.815 272.604 453.119Z" fill="#277EA7"/>
<path d="M282.957 434.752C282.915 438.175 282.872 441.596 282.829 445.019C281.769 444.732 280.075 444.433 278.056 444.792C276.797 445.015 274.34 445.683 274.381 446.252C274.46 447.353 283.781 447.728 291.912 446.987C293.316 446.86 294.481 446.717 295.288 446.609C294.717 442.985 294.147 439.361 293.576 435.737C291.723 435.265 289.528 434.869 287.052 434.732C285.577 434.649 284.207 434.671 282.957 434.752Z" fill="#7E3C38"/>
<path d="M379.207 528.535C370.635 532.855 357.128 539.641 350.408 542.975L347.061 535.828L377.927 525.801L379.207 528.535Z" fill="#2685B3"/>
<path d="M383.207 537.055C375.768 540.788 362.355 547.534 354.395 551.495L352.528 547.508L381.888 534.241L383.207 537.055Z" fill="#2685B3"/>
<path d="M386.528 544.108L363.768 552.868L384.848 543.348L385.941 542.855L386.528 544.108Z" fill="white"/>
<path d="M342.255 436.953C328.507 436.547 318.473 444.673 315.38 447.179C307.115 453.872 303.191 461.811 301.471 466.015C297.629 485.147 303.329 497.532 318.089 509.011C327.316 516.187 340.109 519.333 345.221 531.492C354.107 531.839 370.797 525.195 375.075 519.215C372.549 510.333 374.043 501.699 377.549 493.531C380.519 486.613 381.472 479.633 380.737 472.3C379.585 460.817 364.867 437.621 342.255 436.953Z" fill="#F68C54"/>
<path d="M375.075 519.215C376.028 521.409 376.98 523.604 377.932 525.8C368.191 530.832 358.595 536.316 347.06 535.829C346.447 534.384 345.835 532.937 345.221 531.492C347.199 530.967 348.337 530.087 348.957 529.061C353.583 521.397 332.196 500.533 321.713 490.868C335.465 483.885 349.216 476.903 362.969 469.919C359.86 484.505 360.795 495.7 361.957 502.54C364.108 515.204 367.868 517.845 370.052 518.732C371.931 519.495 373.772 519.417 375.075 519.215Z" fill="#F8D37B"/>
<path d="M386.715 544.415C378.555 548.521 364.821 555.428 357.54 559.041C356.995 558.175 356.608 557.201 356.448 556.161C356.408 556.015 356.381 555.855 356.367 555.708L363.675 552.908L363.768 552.868C371.051 549.307 378.333 545.745 385.617 542.184C385.983 542.927 386.349 543.671 386.715 544.415Z" fill="#2685B3"/>
<path d="M387.568 551.015C387.235 552.695 386.528 554.281 385.568 555.508C380.621 561.748 373.248 564.668 365.448 563.895C364.195 563.761 362.861 563.361 361.635 562.721L387.568 551.015Z" fill="#2685B3"/>
<path d="M357.719 496.321C360.297 506.404 362.309 516.611 364.468 526.781C364.916 528.887 365.353 531.393 362.987 532.291C360.619 533.189 359.32 530.969 358.148 529.168C352.88 521.069 347.388 513.104 342.552 504.732C338.837 498.304 356.079 489.9 357.719 496.321Z" fill="#F68C54"/>
<path d="M381.888 534.241C372.179 538.79 362.469 543.337 352.759 547.885C351.975 546.249 351.192 544.612 350.408 542.975C354.972 540.655 359.549 538.336 364.14 536.019C369.112 533.509 374.073 531.016 379.025 528.535C379.979 530.437 380.933 532.339 381.888 534.241Z" fill="#2F3053"/>
<path d="M383.207 537.055C375.768 540.788 362.355 547.534 354.395 551.495L356.367 555.708C358.705 554.964 361.871 553.892 365.611 552.44C365.611 552.44 366.324 552.163 367.035 551.879C373.064 549.471 384.197 543.752 385.941 542.855C385.029 540.921 384.119 538.988 383.207 537.055Z" fill="#2F3053"/>
<path d="M387.568 551.015L361.635 562.721C359.995 561.868 358.515 560.615 357.54 559.041C364.821 555.428 378.555 548.521 386.715 544.415C387.821 546.268 388.033 548.721 387.568 551.015Z" fill="#2F3053"/>
</g>
<defs>
<clipPath id="clip0_6_2">
<rect width="666.667" height="666.667" fill="white"/>
</clipPath>
</defs>
</svg>
