<svg width="550" height="128" viewBox="0 0 550 128" fill="none" xmlns="http://www.w3.org/2000/svg">
<path d="M153.73 79.91H142.75C138.25 79.91 134.77 78.74 132.31 76.4C129.61 73.85 128.26 69.98 128.26 64.79C128.26 58.73 129.565 54.425 132.175 51.875C134.455 49.625 138.04 48.5 142.93 48.5H153.73V53.81H143.02C140.65 53.81 138.835 54.44 137.575 55.7C136.345 56.93 135.73 58.82 135.73 61.37H153.73V66.725H135.595C135.595 69.635 136.285 71.72 137.665 72.98C138.835 74.06 140.62 74.6 143.02 74.6H153.73V79.91ZM186.504 67.58V69.155C186.504 72.245 185.859 74.615 184.569 76.265C182.469 78.935 178.659 80.27 173.139 80.27C166.989 80.27 162.954 78.755 161.034 75.725C160.104 74.255 159.639 71.855 159.639 68.525V48.5H165.984V67.4C165.954 68 165.939 68.495 165.939 68.885C165.939 70.715 166.299 72.125 167.019 73.115C168.129 74.645 170.169 75.41 173.139 75.41C175.779 75.41 177.609 74.825 178.629 73.655C179.649 72.485 180.159 70.4 180.159 67.4V48.5H186.504V67.58ZM221.299 79.91H214.189L207.259 67.58H199.429V79.91H193.039V48.5H209.104C212.704 48.5 215.359 49.175 217.069 50.525C218.989 52.025 219.949 54.5 219.949 57.95C219.949 60.29 219.484 62.165 218.554 63.575C217.504 65.165 215.899 66.215 213.739 66.725L221.299 79.91ZM213.514 58.04C213.514 56.51 213.034 55.46 212.074 54.89C211.114 54.32 209.584 54.035 207.484 54.035H199.474V62.135H207.529C209.629 62.135 211.039 61.97 211.759 61.64C212.929 61.1 213.514 59.9 213.514 58.04ZM254.672 64.205C254.672 70.145 253.082 74.48 249.902 77.21C247.292 79.46 243.707 80.585 239.147 80.585C236.777 80.585 234.722 80.315 232.982 79.775C230.252 78.935 228.107 77.435 226.547 75.275C224.567 72.545 223.577 68.825 223.577 64.115C223.577 59.615 224.387 56.075 226.007 53.495C227.357 51.365 229.337 49.835 231.947 48.905C233.897 48.215 236.267 47.87 239.057 47.87C243.497 47.87 246.947 48.725 249.407 50.435C251.477 51.875 252.932 53.96 253.772 56.69C254.372 58.67 254.672 61.175 254.672 64.205ZM247.697 64.25C247.697 60.14 246.872 57.185 245.222 55.385C243.842 53.885 241.802 53.135 239.102 53.135C236.432 53.135 234.332 54.065 232.802 55.925C231.272 57.755 230.507 60.485 230.507 64.115C230.507 67.565 230.927 70.085 231.767 71.675C233.057 74.135 235.502 75.365 239.102 75.365C242.252 75.365 244.517 74.345 245.897 72.305C247.097 70.535 247.697 67.85 247.697 64.25ZM286.762 58.715C286.762 62.855 285.202 65.75 282.082 67.4C280.162 68.42 277.762 68.93 274.882 68.93C274.612 68.93 274.372 68.93 274.162 68.93C273.952 68.93 273.772 68.915 273.622 68.885H265.612V79.91H259.177V48.5H273.352C278.242 48.5 281.692 49.31 283.702 50.93C285.742 52.55 286.762 55.145 286.762 58.715ZM279.652 58.715C279.652 56.945 279.127 55.73 278.077 55.07C277.057 54.38 275.437 54.035 273.217 54.035H265.612V63.395H273.577C277.627 63.395 279.652 61.835 279.652 58.715ZM320.369 79.91H313.304L310.379 72.35H296.699L293.954 79.91H287.249L300.299 48.5H307.094L320.369 79.91ZM308.264 66.86L303.494 54.44L298.814 66.86H308.264ZM361.231 66.95H342.556V79.91H336.076V65.51C336.076 61.52 336.241 58.745 336.571 57.185C337.171 54.365 338.461 52.28 340.441 50.93C342.841 49.31 346.471 48.5 351.331 48.5H361.231V53.81H350.746C347.866 53.81 345.751 54.545 344.401 56.015C343.171 57.335 342.556 59.225 342.556 61.685H361.231V66.95ZM392.608 67.58V69.155C392.608 72.245 391.963 74.615 390.673 76.265C388.573 78.935 384.763 80.27 379.243 80.27C373.093 80.27 369.058 78.755 367.138 75.725C366.208 74.255 365.743 71.855 365.743 68.525V48.5H372.088V67.4C372.058 68 372.043 68.495 372.043 68.885C372.043 70.715 372.403 72.125 373.123 73.115C374.233 74.645 376.273 75.41 379.243 75.41C381.883 75.41 383.713 74.825 384.733 73.655C385.753 72.485 386.263 70.4 386.263 67.4V48.5H392.608V67.58ZM426.907 70.55C426.907 73.28 426.322 75.365 425.152 76.805C423.472 78.875 420.442 79.91 416.062 79.91H398.692V74.42H415.027C416.737 74.42 417.982 74.195 418.762 73.745C419.722 73.175 420.202 72.215 420.202 70.865C420.202 69.485 419.812 68.51 419.032 67.94C418.282 67.34 417.082 67.04 415.432 67.04H407.737C404.317 67.04 401.767 66.35 400.087 64.97C398.287 63.5 397.387 61.16 397.387 57.95C397.387 54.68 398.257 52.295 399.997 50.795C401.767 49.265 404.512 48.5 408.232 48.5H425.377V53.99H409.267C405.787 53.99 404.047 55.4 404.047 58.22C404.047 59.39 404.437 60.275 405.217 60.875C405.997 61.445 407.032 61.73 408.322 61.73H416.962C420.022 61.73 422.242 62.135 423.622 62.945C425.812 64.235 426.907 66.77 426.907 70.55ZM438.719 79.91H432.014V48.5H438.719V79.91ZM474.487 64.205C474.487 70.145 472.897 74.48 469.717 77.21C467.107 79.46 463.522 80.585 458.962 80.585C456.592 80.585 454.537 80.315 452.797 79.775C450.067 78.935 447.922 77.435 446.362 75.275C444.382 72.545 443.392 68.825 443.392 64.115C443.392 59.615 444.202 56.075 445.822 53.495C447.172 51.365 449.152 49.835 451.762 48.905C453.712 48.215 456.082 47.87 458.872 47.87C463.312 47.87 466.762 48.725 469.222 50.435C471.292 51.875 472.747 53.96 473.587 56.69C474.187 58.67 474.487 61.175 474.487 64.205ZM467.512 64.25C467.512 60.14 466.687 57.185 465.037 55.385C463.657 53.885 461.617 53.135 458.917 53.135C456.247 53.135 454.147 54.065 452.617 55.925C451.087 57.755 450.322 60.485 450.322 64.115C450.322 67.565 450.742 70.085 451.582 71.675C452.872 74.135 455.317 75.365 458.917 75.365C462.067 75.365 464.332 74.345 465.712 72.305C466.912 70.535 467.512 67.85 467.512 64.25ZM506.261 79.91H498.836L485.336 56.06V79.91H478.991V48.5H487.226L500.096 71.18V48.5H506.261V79.91Z" fill="white"/>
<path d="M55.6158 36.6935C55.3554 36.9752 53.1985 39.85 51.2903 42.4218C50.7237 43.2039 48.486 46.2338 46.2887 49.186C44.1126 52.1266 41.8536 55.1682 41.287 55.9503C38.4922 59.7294 28.9322 72.6543 16.9665 88.7569C14.2951 92.3574 14.109 92.8747 14.962 94.4238C15.5229 95.4424 15.7365 95.629 16.6142 95.8647C17.6025 96.1502 17.7534 96.1224 22.5234 94.2701C25.2187 93.2284 27.8716 92.2101 28.4285 92.014C29.3585 91.6402 29.4243 91.6592 29.5889 92.26C29.7004 92.6134 30.0116 93.6313 30.2973 94.5525C30.55 95.4643 31.0556 96.7346 31.3945 97.35C31.9787 98.411 31.9851 98.5735 31.5352 100.121C30.7312 102.887 31.5831 104.685 34.1356 105.548C35.5447 106.044 35.7529 106.372 36.3836 109.177C37.0047 112.016 37.1272 115.156 36.7323 118.111C36.3353 121.013 36.3702 121.63 36.927 121.987C37.5284 122.375 39.8675 122.497 41.4192 122.196C43.0675 121.869 43.8648 121.153 44.5421 119.314C45.7533 116.131 44.6722 112.357 40.87 106.458L39.0544 103.613L39.0281 102.107C39.0074 99.9058 38.2 98.6911 36.2596 97.9343C35.4009 97.6328 35.2979 97.496 34.6542 96.0251C33.3317 93.0199 32.971 90.453 33.8 89.9964C34.9266 89.3761 41.4354 87.0088 42.1495 86.9474C42.6044 86.9182 43.2728 87.0756 43.6724 87.298C44.0506 87.5322 45.7336 89.4817 47.7225 92.037C52.7616 98.4714 54.3808 100.456 54.9047 100.804C55.539 101.201 57.0609 101.248 57.7198 100.885C58.0174 100.721 58.9943 99.8791 59.8723 99.0084C64.0657 94.9017 69.8819 90.9246 75.3311 88.3941C82.3905 85.1152 89.0234 83.4262 96.5296 82.971C98.2407 82.8585 99.9145 82.6282 100.255 82.4409C101.36 81.8322 101.756 80.84 101.989 78.1949C102.398 73.6554 103.978 68.5262 106.493 63.6846C109.542 57.8019 115.408 50.6448 121.043 45.9374C122.737 44.5348 123.63 43.49 123.431 43.1293C123.186 42.6836 115.702 42.8776 110.014 43.4654C103.569 44.138 92.6193 46.4895 88.6188 48.0286C87.6134 48.4164 87.54 48.4844 87.845 48.7866C90.8476 51.724 90.5053 52.4103 86.8254 50.7585L84.7703 49.8437L81.7645 51.2776C78.9947 52.6368 78.7513 52.7985 78.6736 53.3115C78.547 54.2385 80.2395 56.1551 83.9552 59.2806C86.6944 61.5886 86.5742 62.125 83.4468 61.2752C81.8889 60.8609 81.2576 60.8213 80.79 61.0788C79.9609 61.5354 79.0661 61.4197 78.9791 60.8592C78.959 60.6213 79.111 60.344 79.3448 60.2153C79.5787 60.0865 79.7658 59.8729 79.7711 59.7317C79.8009 59.3834 77.5577 58.3785 77.3844 58.6675C77.1824 59.0553 75.5298 59.2739 75.3428 58.9344C75.2494 58.7646 75.3546 58.4025 75.5938 58.1325L76.0297 57.6159L75.0733 57.0363C72.9046 55.7139 72.9588 55.7117 69.8967 57.0937C66.8655 58.431 66.2385 58.4997 65.6892 57.5023C65.1634 56.5474 65.8139 55.9679 68.9514 54.5721L71.6096 53.4125L72.0372 51.573L72.4553 49.7665L71.6455 49.604C70.5743 49.4195 70.6924 48.829 71.9987 48.082C72.8277 47.6255 72.9818 47.4023 73.1956 46.4826L73.4031 45.4004L72.5551 45.3696C71.3701 45.3307 71.384 44.8529 72.5915 44.0774C73.3855 43.5572 73.7171 43.1533 74.2052 42.0273C75.4503 39.1568 76.427 38.8679 76.2999 41.4545C76.1239 44.4553 76.4334 48.4885 76.9114 49.6081C77.1843 50.2045 77.519 50.7116 77.6603 50.7167C77.8346 50.7314 79.3407 50.0956 81.0263 49.3333L84.1213 47.9609L84.4458 46.5377C84.7511 45.1804 85.5443 43.2502 85.8206 43.0981C86.1182 42.9342 86.5675 44.1525 86.7033 45.4053C86.7658 46.1728 86.94 46.7407 87.1047 46.7882C87.2577 46.8146 88.4396 46.4957 89.7256 46.0641C97.6659 43.3787 109.398 41.039 119.265 40.1413C120.931 39.998 122.303 39.8233 122.334 39.7786C122.332 39.7245 120.358 38.1014 117.916 36.1826C115.495 34.2521 113.185 32.3714 112.801 31.9747C111.872 30.9927 111.711 29.6434 112.442 28.3556C112.737 27.834 115.769 23.1776 119.149 17.9973C122.85 12.392 125.423 8.20971 125.574 7.62874C126.025 5.83169 124.198 3.82296 122.432 4.18719C121.979 4.27057 118.417 5.90051 114.518 7.82604C110.608 9.73034 105.6 12.1563 103.373 13.2441C99.196 15.2677 95.0402 17.2795 72.4759 28.322C65.1677 31.9039 58.4239 35.2026 57.5173 35.6188C56.6224 36.0563 55.7508 36.5362 55.6158 36.6935Z" fill="white"/>
</svg>
