<?xml version="1.0" encoding="UTF-8" standalone="no"?>
<svg
   xmlns:dc="http://purl.org/dc/elements/1.1/"
   xmlns:cc="http://creativecommons.org/ns#"
   xmlns:rdf="http://www.w3.org/1999/02/22-rdf-syntax-ns#"
   xmlns:svg="http://www.w3.org/2000/svg"
   xmlns="http://www.w3.org/2000/svg"
   viewBox="0 0 1000 666.66669"
   height="666.66669"
   width="1000"
   xml:space="preserve"
   id="svg2"
   version="1.1"><metadata
     id="metadata8"><rdf:RDF><cc:Work
         rdf:about=""><dc:format>image/svg+xml</dc:format><dc:type
           rdf:resource="http://purl.org/dc/dcmitype/StillImage" /></cc:Work></rdf:RDF></metadata><defs
     id="defs6"><clipPath
       id="clipPath28"
       clipPathUnits="userSpaceOnUse"><path
         id="path26"
         d="m 4669.13,2143.04 -90.91,132.99 65.7,159.48 c 0,0 95.81,65.55 80.68,206.75 l 216.82,136.15 c 0,0 -40.33,-307.6 95.82,-438.71 l 25.21,-176.49 -237,-45.38 -156.32,25.21" /></clipPath><clipPath
       id="clipPath98"
       clipPathUnits="userSpaceOnUse"><path
         id="path96"
         d="m 3286.83,2291.39 89.53,130.97 -30.89,215.87 c 0,0 -71.78,92.42 -99.64,170.81 l -227.18,108.1 c 0,0 38.62,-168.77 -95.47,-297.89 l -23.72,-308 233.42,-44.69 153.95,24.83" /></clipPath><clipPath
       id="clipPath148"
       clipPathUnits="userSpaceOnUse"><path
         id="path146"
         d="m 6307.57,2328.33 -89.4,130.79 30.84,215.56 c 0,0 71.68,92.29 99.5,170.57 l 226.86,107.94 c 0,0 -54.87,-160.66 79.02,-289.6 l 40,-315.43 -233.08,-44.62 -153.74,24.79" /></clipPath><clipPath
       id="clipPath154"
       clipPathUnits="userSpaceOnUse"><path
         id="path152"
         d="m 6470.6,2715.71 c -53.72,0.01 -104.12,29.47 -135.6,53.54 38.03,-17.65 78.35,-27.44 116.32,-27.44 48.19,-0.01 92.62,15.75 123.91,51.18 2.1,-7.39 4.57,-14.88 7.43,-22.43 -35.46,-40.51 -74.57,-54.85 -112.06,-54.85" /></clipPath><clipPath
       id="clipPath216"
       clipPathUnits="userSpaceOnUse"><path
         id="path214"
         d="m 1351.09,2279.19 90.91,132.99 -65.7,159.48 c 0,0 -95.8,65.56 -80.67,206.75 l -216.84,136.15 c 0,0 40.34,-307.6 -95.806,-438.71 l -25.214,-176.48 237,-45.39 156.32,25.21" /></clipPath><clipPath
       id="clipPath264"
       clipPathUnits="userSpaceOnUse"><path
         id="path262"
         d="m 1835.88,1404.37 -64.87,21.63 c 0,0 -40.2,145.69 -51.01,156.5 -10.81,10.81 -103.82,-39.63 -136.25,-61.25 -32.43,-21.62 -7.33,-73.63 3.49,-95.25 10.81,-21.63 97.29,-97.3 140.53,-64.87 l 75.68,-97.29 c 0,0 43.24,54.05 32.43,140.53" /></clipPath></defs><g
     transform="matrix(1.3333333,0,0,-1.3333333,0,666.66667)"
     id="g10"><g
       transform="scale(0.1)"
       id="g12"><path
         id="path14"
         style="fill:#fde8e8;fill-opacity:1;fill-rule:nonzero;stroke:none"
         d="M 0,0 H 7500 V 5000 H 0 Z" /><path
         id="path16"
         style="fill:#162741;fill-opacity:1;fill-rule:nonzero;stroke:none"
         d="m 4667.18,2463.76 c 39.93,32.2 99.69,40.43 149.35,42.33 48.48,1.85 104.87,-1.58 147.21,-27.55 5.29,-3.25 10.14,5.06 4.86,8.31 -45.17,27.7 -106.36,31.31 -157.96,28.59 -51,-2.69 -109.41,-11.93 -150.27,-44.87 -4.81,-3.89 2.03,-10.66 6.81,-6.81" /><path
         id="path18"
         style="fill:#180a0c;fill-opacity:1;fill-rule:nonzero;stroke:none"
         d="m 4727.63,2627.95 c 0,0 -92.28,-16.77 -109.06,33.56 -7.34,22.02 -19.49,21.56 -32.95,21.1 -17.31,-0.59 -36.78,-1.18 -50.93,46.01 -12.04,40.12 -33.67,38.02 -53.88,35.93 -22.05,-2.29 -42.41,-4.57 -46.79,47.95 -8.39,100.66 -8.39,117.44 -33.55,134.22 -25.17,16.78 -33.56,75.5 0,92.27 33.55,16.78 16.78,75.5 0,109.05 -16.78,33.56 -8.39,67.11 50.33,83.89 58.72,16.78 58.72,83.89 67.11,125.83 8.39,41.94 67.11,16.78 100.66,33.55 33.56,16.78 8.39,50.34 67.11,41.95 25.17,-3.6 38.01,11.3 50.41,26.19 16.53,19.86 32.28,39.72 75.41,15.75 34.61,-19.22 62.16,-19.06 85.9,-18.9 28.05,0.19 50.77,0.38 73.49,-31.43 20.29,-28.41 46.48,-27.37 71.91,-26.32 27.12,1.12 53.38,2.23 70.7,-32.4 33.55,-67.11 125.83,-8.39 125.83,-83.89 0,-75.5 0,-92.28 33.55,-117.44 33.55,-25.16 33.55,-83.88 25.17,-117.44 -8.39,-33.55 33.55,-92.27 8.38,-125.83 -25.16,-33.55 -58.72,-41.94 -58.72,-92.27 0,-50.34 -41.94,-50.34 -67.1,-58.72 -25.17,-8.39 -16.78,-83.89 -50.34,-67.11 -16.15,8.08 -26.47,-9.12 -36.58,-26.32 -10.88,-18.53 -21.52,-37.06 -38.92,-24.01 -33.55,25.17 -327.14,-25.17 -327.14,-25.17" /><path
         id="path20"
         style="fill:#d64f46;fill-opacity:1;fill-rule:nonzero;stroke:none"
         d="m 4669.13,2143.04 -90.91,132.99 65.7,159.48 c 0,0 95.81,65.55 80.68,206.75 l 216.82,136.15 c 0,0 -40.33,-307.6 95.82,-438.71 l 25.21,-176.49 -237,-45.38 -156.32,25.21" /><g
         id="g22"><g
           clip-path="url(#clipPath28)"
           id="g24"><path
             id="path30"
             style="fill:#d3463e;fill-opacity:1;fill-rule:nonzero;stroke:none"
             d="m 4804.67,2512.63 c -37.15,0 -66.93,26.4 -84.13,46.67 1.89,8.56 3.37,17.56 4.35,27.03 23.12,-24.49 48.19,-39.25 76.72,-39.25 25.86,0 54.56,12.13 87.23,40.13 18.96,16.25 34.8,30.95 48.03,44.15 0,-0.01 0,0.01 0,-0.01 -48.11,-90.87 -94.05,-118.72 -132.2,-118.72" /></g></g><path
         id="path32"
         style="fill:#d64f46;fill-opacity:1;fill-rule:nonzero;stroke:none"
         d="m 4625.41,3023.5 c 0,0 -49.39,-172.87 16.47,-304.58 65.85,-131.71 131.71,-230.49 246.96,-131.71 115.24,98.78 115.24,139.94 115.24,139.94 0,0 41.16,16.47 65.86,65.86 24.7,49.39 -24.7,107.01 -49.39,74.09 0,0 -57.63,16.46 -41.16,57.62 16.46,41.16 -8.24,172.87 -24.7,172.87 0,0 -62.25,-110.44 -174.62,-56.97 -14.97,7.13 -30.71,-9.47 -48.82,-26.07 -27.75,-25.43 -61.09,-50.85 -105.84,8.95" /><path
         id="path34"
         style="fill:#6d2323;fill-opacity:1;fill-rule:nonzero;stroke:none"
         d="m 4789.65,2736.98 c -8.41,6.19 -16.82,12.38 -25.23,18.57 -2.51,1.89 -5.62,4.11 -6.96,7.91 -0.44,1.25 -0.6,2.52 -0.6,3.73 0.01,2.26 0.53,4.37 0.99,6.26 11.24,45.53 22.48,91.06 33.72,136.58 l 4.18,-1.03 c -11.24,-45.53 -22.48,-91.05 -33.72,-136.58 -0.46,-1.86 -0.86,-3.66 -0.86,-5.23 l 0.36,-2.33 c 0.69,-2.14 2.91,-4 5.45,-5.84 8.41,-6.19 16.82,-12.38 25.23,-18.57 v 0 l -2.56,-3.47" /><path
         id="path36"
         style="fill:#ffffff;fill-opacity:1;fill-rule:nonzero;stroke:none"
         d="m 4711.85,2706.57 c 8.23,0 98.78,-32.93 181.1,0 0,0 -24.7,-82.32 -90.55,-82.32 -65.86,0 -90.55,82.32 -90.55,82.32" /><path
         id="path38"
         style="fill:#f8a168;fill-opacity:1;fill-rule:nonzero;stroke:none"
         d="m 5045.05,2342.38 c 0,0 -175.37,-252.1 -482.27,21.92 l -57.43,-2495.82 10.96,-153.449 767.25,76.719 -238.51,2550.63" /><path
         id="path40"
         style="fill:#e1e8ef;fill-opacity:1;fill-rule:nonzero;stroke:none"
         d="m 4820.41,1184.94 c 21.91,493.24 252.48,703.21 175.75,1207.41 0,0 65.77,-32.88 120.58,-87.68 0,0 235.21,-23.01 311.94,-187.42 76.72,-164.42 175.37,-756.29 153.45,-854.95 -21.92,-98.64 -306.91,-197.29 -306.91,-197.29 l 134.83,-1234.248 c 0,0 -140.18,-32.973 -327.52,-56.02 C 5015.98,35.1094 4805.39,847.16 4820.41,1184.94" /><path
         id="path42"
         style="fill:#e1e8ef;fill-opacity:1;fill-rule:nonzero;stroke:none"
         d="m 4190.12,1919.95 c 21.91,230.18 181.29,297.03 334.73,395.67 0,0 65.77,87.69 120.57,120.57 0,0 -60.72,-592.97 -5.92,-1108.11 39.34,-369.779 41.77,-1339.4003 13.62,-1572.529 -126.56,7.101 -246.6,28.929 -339.15,75.211 l 62.48,1223.288 c 0,0 -131.53,-32.88 -186.33,54.81 -54.81,87.68 -21.93,580.92 0,811.09" /><path
         id="path44"
         style="fill:#d64f46;fill-opacity:1;fill-rule:nonzero;stroke:none"
         d="m 4997.5,1163.33 c -29.86,-7.43 -79.28,-16.18 -55.27,-8.69 48.33,15.08 -110.12,-13.12 -121.82,30.3 -6.39,23.67 -59.16,-99.94 2.09,-156.19 18.05,-16.58 156.79,-7.58 167.74,14.35 l 43.85,21.91 c 0,0 -25.63,43.52 -36.59,98.32" /><path
         id="path46"
         style="fill:#9eabda;fill-opacity:1;fill-rule:nonzero;stroke:none"
         d="m 5279.12,1068.85 c -66.41,-26.12 -135.5,-42.28 -206.63,-48.13 -5.23,-0.43 -5.28,-8.65 0,-8.21 71.83,5.9 141.72,22.03 208.81,48.41 4.87,1.91 2.75,9.87 -2.18,7.93" /><path
         id="path48"
         style="fill:#9eabda;fill-opacity:1;fill-rule:nonzero;stroke:none"
         d="m 5076.41,1020.58 c -13.89,5.67 -26.06,29.14 -34.12,41.38 -8.28,12.61 -15.89,25.72 -22.31,39.38 -15.3,32.6 -22.7,67.39 -20.12,103.39 0.38,5.28 -7.84,5.25 -8.21,0 -2.81,-39.11 6.01,-76.49 23.23,-111.61 9.33,-19.02 20.78,-36.85 33.34,-53.89 7.54,-10.24 13.98,-21.66 26.01,-26.58 4.89,-2.01 7.02,5.94 2.18,7.93" /><path
         id="path50"
         style="fill:#9eabda;fill-opacity:1;fill-rule:nonzero;stroke:none"
         d="m 4996.46,1202.35 c 69.25,31.83 137.08,66.62 203.1,104.72 26.51,15.29 57.25,29.63 80.52,49.68 18.31,15.77 20.7,38.33 20.08,61.23 -1.92,70.8 -14.12,141.92 -30.96,210.58 -9.05,36.91 -19.77,73.4 -31.74,109.47 -5.49,16.54 -11.26,32.99 -17.25,49.34 -7.3,19.94 -19.25,41.44 -17.5,63.17 0.43,5.27 -7.79,5.24 -8.22,0 -2.38,-29.39 16.26,-60.48 25.82,-87.71 11.56,-32.88 22.09,-66.11 31.37,-99.71 18.84,-68.15 32.41,-137.9 38.06,-208.42 2.78,-34.71 9.78,-75.1 -23.04,-97.7 -27.91,-19.21 -58.37,-35.59 -87.82,-52.29 -60.78,-34.45 -123.09,-66.09 -186.57,-95.26 -4.79,-2.2 -0.62,-9.29 4.15,-7.1" /><path
         id="path52"
         style="fill:#9eabda;fill-opacity:1;fill-rule:nonzero;stroke:none"
         d="m 4443.2,1292.06 c -56.47,-17.99 -45.73,120.03 -45.78,150.28 -0.07,52.29 6.1,103.06 14.51,154.57 16.48,100.79 25.95,202.43 35.15,304.08 0.48,5.26 -7.74,5.23 -8.22,0 -5.78,-63.91 -11.57,-127.83 -19.24,-191.55 -7.33,-60.88 -19.6,-121.13 -26.31,-182.04 -6.57,-59.6 -4.39,-120.06 -1.21,-179.81 1.58,-29.64 13.13,-76.24 53.28,-63.46 5.03,1.6 2.88,9.54 -2.18,7.93" /><path
         id="path54"
         style="fill:#9eabda;fill-opacity:1;fill-rule:nonzero;stroke:none"
         d="m 4498.01,1094.19 c -39.59,-21.65 -82.92,-30.53 -126.83,-38.8 -5.19,-0.98 -3,-8.9 2.18,-7.92 44.59,8.4 88.65,17.67 128.8,39.62 4.64,2.54 0.5,9.64 -4.15,7.1" /><path
         id="path56"
         style="fill:#300e11;fill-opacity:1;fill-rule:nonzero;stroke:none"
         d="m 4709.47,2896.91 c 0,-15.32 -5.64,-27.74 -12.6,-27.74 -6.97,0 -12.61,12.42 -12.61,27.74 0,15.32 5.64,27.73 12.61,27.73 6.96,0 12.6,-12.41 12.6,-27.73" /><path
         id="path58"
         style="fill:#300e11;fill-opacity:1;fill-rule:nonzero;stroke:none"
         d="m 4896.04,2896.91 c 0,-15.32 -5.64,-27.74 -12.6,-27.74 -6.97,0 -12.61,12.42 -12.61,27.74 0,15.32 5.64,27.73 12.61,27.73 6.96,0 12.6,-12.41 12.6,-27.73" /><path
         id="path60"
         style="fill:#180a0c;fill-opacity:1;fill-rule:nonzero;stroke:none"
         d="m 4850.77,2960.04 c 22.44,13.09 50.31,8.83 67.96,-10.21 3.31,-3.58 8.65,1.78 5.34,5.35 -19.87,21.46 -51.87,26.11 -77.12,11.4 -4.2,-2.45 -0.4,-9 3.82,-6.54" /><path
         id="path62"
         style="fill:#180a0c;fill-opacity:1;fill-rule:nonzero;stroke:none"
         d="m 4661.17,2949.04 c 19.38,16.5 44.64,21.52 68.93,14.14 4.67,-1.41 6.66,5.89 2,7.3 -26.96,8.19 -54.86,2.14 -76.27,-16.09 -3.71,-3.16 1.66,-8.49 5.34,-5.35" /><path
         id="path64"
         style="fill:#0f1626;fill-opacity:1;fill-rule:nonzero;stroke:none"
         d="m 4326.23,1880.82 c 20.18,10.09 141.19,-55.47 141.19,-55.47 l 267.27,-680.75 -115.99,15.14 c 0,0 -312.64,711 -292.47,721.08" /><path
         id="path66"
         style="fill:#d64f46;fill-opacity:1;fill-rule:nonzero;stroke:none"
         d="m 4442.21,1284.23 c 0,0 61.54,35.77 92.79,53.27 0,0 82.5,51.25 78.12,116.76 -0.74,10.94 92.15,-104.27 59.26,-170.03 -32.88,-65.76 -131.52,-43.84 -131.52,-43.84 l -98.65,-76.73 v 120.57" /><path
         id="path68"
         style="fill:#9eabda;fill-opacity:1;fill-rule:nonzero;stroke:none"
         d="m 4494.66,1200.44 c 8.55,-22.82 17.9,-47.1 16.16,-71.95 -1.54,-22.11 -24.93,-60.37 -52.04,-30.95 -10.89,11.83 -9.87,29.63 -10.45,44.55 -1.79,45.43 -5.97,96.22 5.01,140.59 1.27,5.13 -6.65,7.33 -7.93,2.18 -9.86,-39.89 -6.04,-81.92 -5.55,-122.64 0.31,-25.47 -3.79,-63.71 22.29,-79.36 20.09,-12.05 41.93,0.87 51,20.2 14.87,31.66 0.73,69.44 -10.57,99.57 -1.84,4.91 -9.79,2.78 -7.92,-2.19" /><path
         id="path70"
         style="fill:#9eabda;fill-opacity:1;fill-rule:nonzero;stroke:none"
         d="m 4514.06,2299.85 c -26.7,-53.58 -53.39,-107.16 -80.08,-160.75 -1.19,-2.39 0.22,-5.87 3.27,-5.68 19.15,1.12 38.28,1.57 57.45,0.84 9.05,-0.35 19.77,-0.12 28.68,-1.87 13.72,-2.69 12.97,-1.4 11.52,-15.01 -3.64,-34.37 -20.39,-71.62 -33.37,-103.37 -0.48,-1.17 0.09,-2.85 0.98,-3.67 25.25,-23.5 33.56,-64.36 45.1,-95.87 11.31,-30.91 30.16,-65.77 27.65,-99.39 -0.37,-4.86 7.2,-4.83 7.56,0 2.06,27.6 -10.16,52.9 -19.46,78.3 -10.8,29.5 -20.37,59.84 -32.76,88.71 -3.41,7.93 -8.09,14.84 -12.15,22.33 -7.84,14.44 -3.71,21.73 1.86,37.15 10.79,29.89 19.18,60.44 25.76,91.51 0.56,2.62 -1.13,4.49 -3.64,4.79 -35.05,4.15 -69.95,5.19 -105.18,3.11 1.09,-1.9 2.17,-3.79 3.27,-5.7 26.69,53.59 53.38,107.17 80.08,160.76 2.15,4.34 -4.37,8.17 -6.54,3.81" /><path
         id="path72"
         style="fill:#9eabda;fill-opacity:1;fill-rule:nonzero;stroke:none"
         d="m 5115.84,2283.18 c 28.1,-69.9 34.73,-144.84 18.97,-218.56 2.31,0.3 4.6,0.6 6.92,0.91 -11.66,15.17 -25.18,25.41 -43.04,32.43 -3.86,1.51 -5.87,-3.76 -3.68,-6.32 27.53,-32.27 -2.84,-81.98 -18.18,-113.01 -15.37,-31.05 -32.29,-61.29 -48.91,-91.69 -31.86,-58.26 -62.26,-117.27 -79.52,-181.72 -1.26,-4.7 6.03,-6.71 7.29,-2.01 21.64,80.8 64.33,152.49 103.69,225.54 17.25,32 36.18,64.84 47.76,99.44 7.99,23.88 10.39,48.67 -6.79,68.8 -1.22,-2.11 -2.45,-4.22 -3.67,-6.33 15.97,-6.27 28,-15.25 38.52,-28.95 1.78,-2.33 6.15,-2.63 6.91,0.91 16.02,74.98 9.64,151.38 -18.98,222.58 -1.78,4.45 -9.11,2.51 -7.29,-2.02" /><path
         id="path74"
         style="fill:#162741;fill-opacity:1;fill-rule:nonzero;stroke:none"
         d="m 4963.74,2478.54 c 39.93,-27.08 57.57,-74.12 70.19,-118.72 14.32,-50.63 21.71,-103.05 23.78,-155.6 4.15,-104.91 -12.08,-209.37 -34.87,-311.48 -1.35,-6.02 7.92,-8.6 9.28,-2.55 24.23,108.57 41.28,220.18 34.32,331.7 -3.33,53.34 -12.19,106.52 -28.32,157.52 -13.14,41.53 -32.47,82.31 -69.52,107.44 -5.13,3.48 -9.96,-4.86 -4.86,-8.31" /><path
         id="path76"
         style="fill:#162741;fill-opacity:1;fill-rule:nonzero;stroke:none"
         d="m 4637.87,1953.76 c -31.17,85.28 -44.93,179.08 -46.28,269.7 -1.19,80.69 11.48,183.24 75.59,240.3 4.64,4.13 -2.19,10.91 -6.81,6.81 -63.23,-56.29 -78.32,-156.19 -78.47,-236.2 -0.17,-94.72 14.14,-194.1 46.69,-283.17 2.11,-5.77 11.41,-3.28 9.28,2.56" /><path
         id="path78"
         style="fill:#c8e5f8;fill-opacity:1;fill-rule:nonzero;stroke:none"
         d="m 4671.28,1950.7 c 0,-19.48 -15.79,-35.27 -35.27,-35.27 -19.49,0 -35.28,15.79 -35.28,35.27 0,19.49 15.79,35.28 35.28,35.28 19.48,0 35.27,-15.79 35.27,-35.28" /><path
         id="path80"
         style="fill:#162741;fill-opacity:1;fill-rule:nonzero;stroke:none"
         d="m 4655.24,1950.7 c 0,-10.62 -8.61,-19.24 -19.23,-19.24 -10.63,0 -19.24,8.62 -19.24,19.24 0,10.63 8.61,19.24 19.24,19.24 10.62,0 19.23,-8.61 19.23,-19.24" /><path
         id="path82"
         style="fill:#162741;fill-opacity:1;fill-rule:nonzero;stroke:none"
         d="m 4857.34,1651.91 c -30.53,61.69 26.75,124.3 69.57,162.62 31.42,28.11 66.39,53.56 103.16,74.3 -2.36,0.96 -4.72,1.91 -7.07,2.88 11.35,-38.19 18.75,-78.27 22.06,-117.93 4.19,-50.01 5.25,-131.48 -55.04,-148.73 -5.95,-1.7 -3.42,-10.99 2.55,-9.28 44.88,12.84 59.45,58.99 62.75,101.04 3.77,47.99 -3.88,97.13 -14.49,143.85 -2.55,11.26 -5.26,22.53 -8.55,33.61 -0.89,3 -4.33,4.41 -7.07,2.87 -27.76,-15.67 -54.15,-34.29 -79.13,-54.02 -40.32,-31.85 -83.28,-71.25 -100.79,-121.03 -8.81,-25.04 -8.07,-51.14 3.75,-75.03 2.75,-5.55 11.05,-0.68 8.3,4.85" /><path
         id="path84"
         style="fill:#c8e5f8;fill-opacity:1;fill-rule:nonzero;stroke:none"
         d="m 4866.88,1649.28 c 0,5.31 -4.3,9.62 -9.61,9.62 -5.32,0 -9.62,-4.31 -9.62,-9.62 0,-5.32 4.3,-9.62 9.62,-9.62 5.31,0 9.61,4.3 9.61,9.62" /><path
         id="path86"
         style="fill:#c8e5f8;fill-opacity:1;fill-rule:nonzero;stroke:none"
         d="m 4998.36,1620.41 c 0,5.31 -4.31,9.62 -9.62,9.62 -5.31,0 -9.62,-4.31 -9.62,-9.62 0,-5.31 4.31,-9.62 9.62,-9.62 5.31,0 9.62,4.31 9.62,9.62" /><path
         id="path88"
         style="fill:#a22c3a;fill-opacity:1;fill-rule:nonzero;stroke:none"
         d="m 2899.17,2964.99 c 5.03,5.85 -150.79,108.28 -95.83,183.09 56.68,77.15 -95.4,114.98 88.57,291.26 28.75,27.55 75.02,21.01 119.9,14.48 45.82,-6.67 90.19,-13.34 113.03,16.23 45.21,58.54 226.05,105.37 231.07,-17.56 5.03,-122.93 105.5,-35.12 130.61,-152.2 25.12,-117.08 -135.63,-316.12 -210.98,-245.87 -75.35,70.25 -376.37,-89.43 -376.37,-89.43" /><path
         id="path90"
         style="fill:#f47167;fill-opacity:1;fill-rule:nonzero;stroke:none"
         d="m 3286.83,2291.39 89.53,130.97 -30.89,215.87 c 0,0 -71.78,92.42 -99.64,170.81 l -227.18,108.1 c 0,0 38.62,-168.77 -95.47,-297.89 l -23.72,-308 233.42,-44.69 153.95,24.83" /><g
         id="g92"><g
           clip-path="url(#clipPath98)"
           id="g94"><path
             id="path100"
             style="fill:#f3635b;fill-opacity:1;fill-rule:nonzero;stroke:none"
             d="m 3123.56,2679.32 c -40.18,0 -82.22,16.45 -119.65,63.88 6.62,18.47 11.2,36.48 14.28,53.48 6.71,-7.45 14.08,-15.22 22.18,-23.31 32.36,-32.36 71.04,-46.89 109.45,-46.89 40.29,0.01 80.29,16 112.34,44.17 4.07,-8.37 8.42,-16.7 12.91,-24.89 -28.34,-24.76 -87.57,-66.44 -151.51,-66.44" /></g></g><path
         id="path102"
         style="fill:#f47167;fill-opacity:1;fill-rule:nonzero;stroke:none"
         d="m 3340.19,3215.78 c 0,0 24.22,-191.86 -17.44,-346.61 -35.29,-131.1 -186.57,-191.61 -282.38,-95.8 -86.32,86.31 -90.78,136.72 -90.78,136.72 0,0 -42.45,16.99 -67.93,67.93 -25.47,50.95 37.68,102.95 67.94,42.43 0,0 16.98,53.36 0,95.81 -16.98,42.46 28.4,171.45 45.39,171.45 0,0 91.37,60.02 191.61,-20.17 50.43,-40.34 105.9,-60.51 153.59,-51.76" /><path
         id="path104"
         style="fill:#903a32;fill-opacity:1;fill-rule:nonzero;stroke:none"
         d="m 3170.78,2920.23 -2.63,3.58 c 8.67,6.38 17.34,12.77 26.02,19.16 2.61,1.89 4.9,3.81 5.62,6.01 l 0.36,2.41 c 0.01,1.62 -0.41,3.48 -0.88,5.4 -11.6,46.96 -23.19,93.92 -34.79,140.88 l 4.32,1.07 c 11.59,-46.97 23.19,-93.93 34.78,-140.89 0.48,-1.95 1.01,-4.13 1.02,-6.46 0,-1.25 -0.16,-2.56 -0.61,-3.85 -1.39,-3.92 -4.59,-6.21 -7.19,-8.15 -8.67,-6.39 -17.34,-12.78 -26.02,-19.16" /><path
         id="path106"
         style="fill:#ffffff;fill-opacity:1;fill-rule:nonzero;stroke:none"
         d="m 3231.99,2890.29 c -6.77,0 -81.12,-27.04 -148.71,0 0,0 20.27,-67.59 74.35,-67.59 54.08,0 74.36,67.59 74.36,67.59" /><path
         id="path108"
         style="fill:#300e11;fill-opacity:1;fill-rule:nonzero;stroke:none"
         d="m 3253.49,3085.2 c 0,-15.8 5.82,-28.61 13,-28.61 7.18,0 13.01,12.81 13.01,28.61 0,15.8 -5.83,28.6 -13.01,28.6 -7.18,0 -13,-12.8 -13,-28.6" /><path
         id="path110"
         style="fill:#300e11;fill-opacity:1;fill-rule:nonzero;stroke:none"
         d="m 3061.04,3085.2 c 0,-15.8 5.82,-28.61 13,-28.61 7.18,0 13,12.81 13,28.61 0,15.8 -5.82,28.6 -13,28.6 -7.18,0 -13,-12.8 -13,-28.6" /><path
         id="path112"
         style="fill:#a22c3a;fill-opacity:1;fill-rule:nonzero;stroke:none"
         d="m 3113.52,3160.22 c -27.4,15.98 -62.39,10.99 -83.99,-12.33 -6.61,-7.14 4.06,-17.86 10.7,-10.7 17.09,18.45 43.87,22.67 65.66,9.97 8.42,-4.92 16.05,8.15 7.63,13.06" /><path
         id="path114"
         style="fill:#a22c3a;fill-opacity:1;fill-rule:nonzero;stroke:none"
         d="m 3311.41,3147.08 c -23.06,19.64 -53.13,26.38 -82.24,17.53 -9.29,-2.82 -5.33,-17.42 4.02,-14.58 23.74,7.21 48.51,2.54 67.52,-13.65 7.38,-6.28 18.13,4.37 10.7,10.7" /><path
         id="path116"
         style="fill:#359990;fill-opacity:1;fill-rule:nonzero;stroke:none"
         d="m 3131.45,279.551 c 39.37,-65.621 31.36,-199.3596 62.18,-311.7424 206.62,12.7617 433.28,23.33202 433.28,23.33202 L 3552.96,1026.76 3365.62,922.93 3084.61,967.602 2640.9,676.73 c 0,0 -78.88,-715.1714 -39.44,-734.8784 15.36,-7.6797 237.79,-2.9414 426.11,6.9804 36.66,158.84 51.07,418.738 103.88,330.719" /><path
         id="path118"
         style="fill:#359990;fill-opacity:1;fill-rule:nonzero;stroke:none"
         d="m 2261.28,1800.96 c 0,0 87.5,446.25 236.25,568.75 148.75,122.49 411.24,227.49 428.74,262.49 l 210,-262.49 c 0,0 157.5,183.74 210,279.99 0,0 70,-78.75 201.24,-122.5 131.25,-43.75 376.21,-132.7 481.21,-745.2 0,0 -399.96,-83.32 -443.71,-118.32 0,0 -20,-1004.078 41.25,-1144.078 l -105,52.5 -61.24,262.5 c 0,0 -17.5,-280 -70,-315 -52.5,-35 -787.49,0 -787.49,0 0,0 26.25,1036.368 0,1228.868 0,0 -192.5,43.74 -341.25,52.49" /><path
         id="path120"
         style="fill:#f47167;fill-opacity:1;fill-rule:nonzero;stroke:none"
         d="m 2309.41,1796.58 c 0,0 -26.25,-367.49 52.5,-463.74 78.74,-96.25 603.74,-148.75 1216.23,122.5 v 113.75 c 0,0 -826.86,-74.37 -949.36,21.88 0,0 -17.5,78.75 -26.25,157.5 0,0 -166.25,43.74 -293.12,48.11" /><path
         id="path122"
         style="fill:#f47167;fill-opacity:1;fill-rule:nonzero;stroke:none"
         d="m 3582.51,1669.72 c 0,0 192.5,87.49 341.25,96.24 0,0 17.5,-454.99 -87.5,-551.24 -105,-96.25 -861.53,-88.66 -1034.51,43.17 l 772.01,271.83 v 43.75 l 8.75,96.25" /><path
         id="path124"
         style="fill:#f14b3a;fill-opacity:1;fill-rule:nonzero;stroke:none"
         d="m 2700.07,1251.01 c 218.9,0.84 517.57,50.12 842.37,189.9 16.8,7.23 27.78,23.72 27.78,42.05 v 87.05 h -9.86 v -87.05 c 0,-14.35 -8.6,-27.31 -21.82,-32.99 -323.53,-139.25 -621.03,-188.28 -838.51,-189.1 l 0.04,-9.86" /><path
         id="path126"
         style="fill:#41bfaf;fill-opacity:1;fill-rule:nonzero;stroke:none"
         d="m 3627.37,521.801 -103.97,51.988 -64.79,277.711 -1.05,-16.75 c 0,-0.008 -0.27,-4.352 -0.85,-12.07 -2.03,-26.989 -7.83,-95.008 -18.85,-160.008 -5.5,-32.5 -12.32,-64.25 -20.57,-89.66 -8.2,-25.43 -18.12,-44.473 -28.64,-51.364 -3.62,-2.476 -12.65,-5.019 -25.53,-6.968 -38.78,-5.969 -113.16,-8.18 -200.6,-8.168 -116.61,0 -256.59,3.886 -367.41,7.777 -55.41,1.941 -103.52,3.883 -137.79,5.34 -34.26,1.461 -54.62,2.43 -54.67,2.43 l -0.24,-4.918 c 0.02,0 326.68,-15.559 560.11,-15.559 58.36,0 110.9,0.969 151.09,3.406 20.09,1.223 37.1,2.801 50.26,4.821 13.19,2.07 22.39,4.39 27.52,7.742 14.2,9.64 24.92,33.988 34.08,65.347 27.19,93.993 36.99,251.461 37.01,251.551 l -2.46,0.153 -2.4,-0.563 61.51,-263.629 106.03,-53.012 2.21,4.403" /><path
         id="path128"
         style="fill:#33baa9;fill-opacity:1;fill-rule:nonzero;stroke:none"
         d="m 2687.38,2037.15 c 5.05,0 277.35,20.16 277.35,20.16 v -60.5 h -262.22 l -15.13,40.34" /><path
         id="path130"
         style="fill:#41bfaf;fill-opacity:1;fill-rule:nonzero;stroke:none"
         d="m 2607.33,1744.69 c -3.46,61.1 -3.1,122.18 1.1,183.23 0.33,4.85 -7.23,4.83 -7.56,0 -4.2,-61.05 -4.57,-122.13 -1.1,-183.23 0.27,-4.85 7.84,-4.88 7.56,0" /><path
         id="path132"
         style="fill:#41bfaf;fill-opacity:1;fill-rule:nonzero;stroke:none"
         d="m 3583.77,1665.77 c -3.57,64.43 -7.14,128.84 -10.71,193.26 -0.27,4.85 -7.84,4.88 -7.56,0 3.57,-64.42 7.14,-128.83 10.71,-193.26 0.26,-4.84 7.83,-4.87 7.56,0" /><path
         id="path134"
         style="fill:#162741;fill-opacity:1;fill-rule:nonzero;stroke:none"
         d="m 6606.21,2735.38 c -41.2,33.22 -102.86,41.72 -154.13,43.68 -50.02,1.91 -108.2,-1.64 -151.9,-28.44 -5.47,-3.35 -10.46,5.23 -5.01,8.57 46.61,28.59 109.75,32.32 162.99,29.52 52.64,-2.78 112.91,-12.31 155.07,-46.31 4.98,-4.02 -2.09,-11 -7.02,-7.02" /><path
         id="path136"
         style="fill:#5487ce;fill-opacity:1;fill-rule:nonzero;stroke:none"
         d="m 6458.19,268.352 c -38.46,-64.11 -30.63,-194.77 -60.75,-304.5512 -201.85,12.4687 -423.28,22.8008 -423.28,22.8008 l 72.25,1011.7074 183.01,-101.438 274.53,43.649 433.46,-284.161 c 0,0 77.06,-698.6481 38.54,-717.9176 -15.01,-7.5 -232.31,-2.8594 -416.27,6.8203 C 6523.86,100.43 6509.79,354.34 6458.19,268.352" /><path
         id="path138"
         style="fill:#180a0c;fill-opacity:1;fill-rule:nonzero;stroke:none"
         d="m 6229.7,3315.96 c 0,0 -14.08,143.58 205.52,166.11 219.59,22.51 335.02,-121.06 256.19,-368.82 l -95.72,-95.72 -337.84,168.92 -28.15,129.51" /><path
         id="path140"
         style="fill:#d64f46;fill-opacity:1;fill-rule:nonzero;stroke:none"
         d="m 6307.57,2328.33 -89.4,130.79 30.84,215.56 c 0,0 71.68,92.29 99.5,170.57 l 226.86,107.94 c 0,0 -54.87,-160.66 79.02,-289.6 l 40,-315.43 -233.08,-44.62 -153.74,24.79" /><g
         id="g142"><g
           clip-path="url(#clipPath148)"
           id="g144"><g
             clip-path="url(#clipPath154)"
             id="g150"><path
               id="path156"
               style="fill:#d3463e;fill-opacity:1;fill-rule:nonzero;stroke:none"
               d="m 6335,2715.71 h 247.66 v 77.2773 H 6335 Z" /></g></g></g><path
         id="path158"
         style="fill:#d64f46;fill-opacity:1;fill-rule:nonzero;stroke:none"
         d="m 6229.93,3317.28 c 0,0 -27.04,-214.23 19.47,-387.03 39.42,-146.39 208.34,-213.96 315.33,-106.98 96.38,96.38 101.35,152.67 101.35,152.67 0,0 47.42,18.96 75.85,75.85 28.45,56.89 -42.07,114.95 -75.85,47.39 0,0 -18.96,59.57 0,106.98 18.96,47.41 -11.27,106.98 -33.79,129.5 0,0 -45.04,45.05 -180.18,-28.15 -27.69,-15 -54.82,0.29 -84.79,15.58 -38.65,19.71 -82.02,39.43 -137.39,-5.81" /><path
         id="path160"
         style="fill:#300e11;fill-opacity:1;fill-rule:nonzero;stroke:none"
         d="m 6326.75,3171.47 c 0,-17.64 -6.51,-31.94 -14.52,-31.94 -8.02,0 -14.52,14.3 -14.52,31.94 0,17.64 6.5,31.94 14.52,31.94 8.01,0 14.52,-14.3 14.52,-31.94" /><path
         id="path162"
         style="fill:#300e11;fill-opacity:1;fill-rule:nonzero;stroke:none"
         d="m 6541.65,3171.47 c 0,-17.64 -6.5,-31.94 -14.52,-31.94 -8.02,0 -14.52,14.3 -14.52,31.94 0,17.64 6.5,31.94 14.52,31.94 8.02,0 14.52,-14.3 14.52,-31.94" /><path
         id="path164"
         style="fill:#180a0c;fill-opacity:1;fill-rule:nonzero;stroke:none"
         d="m 6483.04,3255.24 c 30.6,17.84 69.67,12.27 93.79,-13.77 7.37,-7.96 -4.54,-19.94 -11.95,-11.94 -19.08,20.6 -48.99,25.31 -73.32,11.12 -9.4,-5.48 -17.92,9.11 -8.52,14.59" /><path
         id="path166"
         style="fill:#180a0c;fill-opacity:1;fill-rule:nonzero;stroke:none"
         d="m 6262.07,3240.57 c 25.75,21.93 59.33,29.45 91.84,19.58 10.37,-3.15 5.94,-19.46 -4.5,-16.29 -26.5,8.05 -54.17,2.84 -75.4,-15.24 -8.23,-7.01 -20.23,4.88 -11.94,11.95" /><path
         id="path168"
         style="fill:#ee2564;fill-opacity:1;fill-rule:nonzero;stroke:none"
         d="m 6986.68,2245.21 c -12.72,-10.55 -25.45,-21.1 -38.17,-31.64 -6.83,-5.66 -5.85,-17.36 0,-23.22 6.76,-6.76 16.36,-5.67 23.22,0 12.72,10.55 25.45,21.09 38.17,31.63 6.83,5.67 5.86,17.37 0,23.23 -6.76,6.75 -16.36,5.67 -23.22,0" /><path
         id="path170"
         style="fill:#d64f46;fill-opacity:1;fill-rule:nonzero;stroke:none"
         d="m 7254.65,1849.09 c 0,0 25.53,-357.37 -51.06,-450.97 -76.57,-93.59 -587.1,-144.64 -1182.72,119.13 v 110.61 c 0,0 804.08,-72.32 923.21,21.27 0,0 17.01,76.58 25.53,153.16 0,0 161.66,42.54 285.04,46.8" /><path
         id="path172"
         style="fill:#d64f46;fill-opacity:1;fill-rule:nonzero;stroke:none"
         d="m 6030,1737.07 c 0,0 -202.8,87.17 -347.45,95.67 0,0 -14.8,-455.88 87.31,-549.49 102.11,-93.59 837.81,-86.21 1006.01,41.98 l -750.74,264.34 v 42.55 l 4.87,104.95" /><path
         id="path174"
         style="fill:#5487ce;fill-opacity:1;fill-rule:nonzero;stroke:none"
         d="m 7301.45,1853.35 c 0,0 -85.09,433.94 -229.74,553.07 -144.65,119.12 -399.91,221.23 -416.93,255.26 l -204.21,-255.26 c 0,0 -153.16,178.69 -204.21,272.28 0,0 -68.08,-76.58 -195.71,-119.12 -127.63,-42.54 -365.87,-110.62 -467.98,-706.23 0,0 399.91,-93.6 442.46,-127.64 0,0 8.5,-1097.628 -51.06,-1233.78 l 102.11,51.062 59.56,255.258 c 0,0 17.02,-272.281 68.07,-306.32 51.05,-34.032 765.8,0 765.8,0 0,0 -25.53,1123.17 0,1310.36 0,0 187.19,42.54 331.84,51.06" /><path
         id="path176"
         style="fill:#180a0c;fill-opacity:1;fill-rule:nonzero;stroke:none"
         d="m 6659.33,3131.87 c 0,0 -60.81,-173.46 -111.5,-162.2 -50.67,11.26 -157.65,39.42 -197.07,5.63 -39.41,-33.79 -121.08,60.39 -121.08,60.39 0,0 5.49,-216.78 97.07,-262.46 91.58,-45.68 198.56,-45.68 254.87,27.52 56.31,73.2 106.98,106.99 84.46,174.55 -8.9,26.71 11.26,140.77 -6.75,156.57" /><path
         id="path178"
         style="fill:#ffffff;fill-opacity:1;fill-rule:nonzero;stroke:none"
         d="m 6350.76,2931.31 c 7.55,0 90.58,-30.19 166.06,0 0,0 -22.65,-75.48 -83.03,-75.48 -60.38,0 -83.03,75.48 -83.03,75.48" /><path
         id="path180"
         style="fill:#6d2323;fill-opacity:1;fill-rule:nonzero;stroke:none"
         d="m 6421.98,2991.18 c -2.85,0.12 -5.69,0.19 -8.48,0.21 -7.82,5.75 -15.64,11.51 -23.45,17.26 -2.9,2.17 -6.48,4.73 -8.03,9.11 -0.5,1.44 -0.68,2.9 -0.68,4.3 0.01,2.6 0.6,5.03 1.13,7.21 12.95,52.44 25.9,104.87 38.84,157.31 l 4.82,-1.18 c -12.94,-52.45 -25.89,-104.88 -38.84,-157.32 -0.53,-2.14 -1,-4.21 -0.99,-6.02 0,-0.98 0.13,-1.86 0.41,-2.69 0.8,-2.46 3.36,-4.61 6.28,-6.72 9.68,-7.13 19.37,-14.26 29.05,-21.39 l -0.06,-0.08" /><path
         id="path182"
         style="fill:#180a0c;fill-opacity:1;fill-rule:nonzero;stroke:none"
         d="m 6419.1,2987.26 c -1.87,1.38 -3.74,2.75 -5.6,4.13 2.79,-0.02 5.63,-0.09 8.48,-0.21 l -2.88,-3.92" /><path
         id="path184"
         style="fill:#316bb3;fill-opacity:1;fill-rule:nonzero;stroke:none"
         d="m 5975.92,500.609 103.64,51.813 60.1,257.59 -2.45,0.578 -2.52,-0.16 c 0.01,-0.039 4.28,-68.469 14.98,-141.25 5.36,-36.399 12.31,-73.879 21.18,-104.508 8.95,-30.641 19.42,-54.453 33.34,-63.902 5.04,-3.301 14.03,-5.559 26.92,-7.579 38.53,-5.921 111.18,-8.039 196.72,-8.05 228.05,0.011 547.17,15.211 547.19,15.211 l -0.24,5.027 c -0.05,-0.008 -19.94,-0.949 -53.41,-2.379 -100.42,-4.27 -322.66,-12.82 -493.54,-12.82 -56.95,0 -108.21,0.949 -147.3,3.32 -19.54,1.18 -36.04,2.73 -48.65,4.672 -12.58,1.887 -21.39,4.379 -24.9,6.789 -11.72,7.641 -22.62,30.84 -31.3,61.109 -13.15,45.399 -22.16,106.641 -27.86,156.45 -2.85,24.91 -4.88,46.972 -6.19,62.812 -1.31,15.828 -1.91,25.387 -1.91,25.41 l -1.07,17.11 -63.46,-271.993 -101.52,-50.75 2.25,-4.5" /><path
         id="path186"
         style="fill:#162741;fill-opacity:1;fill-rule:nonzero;stroke:none"
         d="m 6300.18,2750.62 c -41.21,-27.93 -59.41,-76.48 -72.43,-122.5 -14.79,-52.26 -22.42,-106.36 -24.56,-160.58 -4.25,-108.26 12.48,-216.06 36,-321.43 1.39,-6.22 -8.17,-8.87 -9.57,-2.63 -25.01,112.04 -42.61,227.21 -35.42,342.3 3.44,55.05 12.58,109.92 29.23,162.55 13.55,42.86 33.5,84.94 71.74,110.86 5.3,3.6 10.27,-5 5.01,-8.57" /><path
         id="path188"
         style="fill:#162741;fill-opacity:1;fill-rule:nonzero;stroke:none"
         d="m 6636.46,2209.07 c 32.17,88.01 46.36,184.81 47.75,278.32 1.24,83.27 -11.84,189.09 -78,247.99 -4.77,4.25 2.27,11.25 7.02,7.02 65.26,-58.09 80.83,-161.17 80.99,-243.75 0.18,-97.74 -14.59,-200.29 -48.18,-292.21 -2.18,-5.95 -11.78,-3.38 -9.58,2.63" /><path
         id="path190"
         style="fill:#c8e5f8;fill-opacity:1;fill-rule:nonzero;stroke:none"
         d="m 6601.98,2205.93 c 0,-20.11 16.3,-36.41 36.41,-36.41 20.1,0 36.4,16.3 36.4,36.41 0,20.1 -16.3,36.39 -36.4,36.39 -20.11,0 -36.41,-16.29 -36.41,-36.39" /><path
         id="path192"
         style="fill:#162741;fill-opacity:1;fill-rule:nonzero;stroke:none"
         d="m 6618.54,2205.93 c 0,-10.97 8.88,-19.86 19.85,-19.86 10.97,0 19.85,8.89 19.85,19.86 0,10.96 -8.88,19.85 -19.85,19.85 -10.97,0 -19.85,-8.89 -19.85,-19.85" /><path
         id="path194"
         style="fill:#162741;fill-opacity:1;fill-rule:nonzero;stroke:none"
         d="m 6409.97,1897.59 c 31.51,63.66 -27.6,128.26 -71.79,167.81 -32.42,29 -68.5,55.27 -106.44,76.67 2.42,1 4.85,1.98 7.28,2.97 -11.71,-39.41 -19.34,-80.77 -22.76,-121.69 -4.32,-51.61 -5.42,-135.68 56.81,-153.49 6.13,-1.74 3.52,-11.32 -2.64,-9.57 -46.32,13.25 -61.36,60.87 -64.77,104.26 -3.88,49.53 4.02,100.24 14.97,148.46 2.63,11.62 5.42,23.24 8.82,34.67 0.92,3.1 4.47,4.57 7.3,2.96 28.64,-16.16 55.88,-35.37 81.65,-55.74 41.61,-32.87 85.94,-73.53 104.01,-124.9 9.08,-25.84 8.33,-52.77 -3.87,-77.42 -2.83,-5.72 -11.39,-0.71 -8.57,5.01" /><path
         id="path196"
         style="fill:#c8e5f8;fill-opacity:1;fill-rule:nonzero;stroke:none"
         d="m 6400.13,1894.86 c 0,5.48 4.44,9.93 9.93,9.93 5.48,0 9.92,-4.45 9.92,-9.93 0,-5.48 -4.44,-9.93 -9.92,-9.93 -5.49,0 -9.93,4.45 -9.93,9.93" /><path
         id="path198"
         style="fill:#c8e5f8;fill-opacity:1;fill-rule:nonzero;stroke:none"
         d="m 6264.45,1865.08 c 0,5.49 4.45,9.93 9.93,9.93 5.48,0 9.93,-4.44 9.93,-9.93 0,-5.48 -4.45,-9.92 -9.93,-9.92 -5.48,0 -9.93,4.44 -9.93,9.92" /><path
         id="path200"
         style="fill:#70a4dd;fill-opacity:1;fill-rule:nonzero;stroke:none"
         d="m 6674.53,1993.88 151.07,25.17 v -70.49 h -156.1 l 5.03,45.32" /><path
         id="path202"
         style="fill:#316bb3;fill-opacity:1;fill-rule:nonzero;stroke:none"
         d="m 6030.36,1727.06 c 4.51,64.99 13.83,129.32 27.91,192.92 1.06,4.74 -6.23,6.76 -7.27,2.01 -14.24,-64.28 -23.63,-129.27 -28.2,-194.93 -0.33,-4.85 7.22,-4.83 7.56,0" /><path
         id="path204"
         style="fill:#316bb3;fill-opacity:1;fill-rule:nonzero;stroke:none"
         d="m 6975.51,1797.5 c -0.98,50.39 -0.05,100.72 2.77,151.04 0.27,4.86 -7.28,4.84 -7.56,0 -2.82,-50.32 -3.74,-100.65 -2.77,-151.04 0.1,-4.85 7.65,-4.87 7.56,0" /><path
         id="path206"
         style="fill:#f7956a;fill-opacity:1;fill-rule:nonzero;stroke:none"
         d="m 1147.25,3359.11 c 0,0 37.33,100.88 143.46,84.83 106.14,-16.04 153.64,-178.91 218.59,-227.65 64.94,-48.73 81.97,-180.36 54.66,-246.9 -27.33,-66.54 121.16,-154.54 38.06,-249.52 -83.1,-94.99 83.84,-255.42 -92.81,-345.47 -176.65,-90.07 -673.569,-56.95 -713.062,133.38 -39.492,190.33 47.473,217.13 -13.468,279.6 -60.938,62.47 -12.75,309.2 68.922,344.99 81.675,35.79 84.226,370.34 295.648,226.74" /><path
         id="path208"
         style="fill:#f47268;fill-opacity:1;fill-rule:nonzero;stroke:none"
         d="m 1351.09,2279.19 90.91,132.99 -65.7,159.48 c 0,0 -95.8,65.56 -80.67,206.75 l -216.84,136.15 c 0,0 40.34,-307.6 -95.806,-438.71 l -25.214,-176.48 237,-45.39 156.32,25.21" /><g
         id="g210"><g
           clip-path="url(#clipPath216)"
           id="g212"><path
             id="path218"
             style="fill:#f3645a;fill-opacity:1;fill-rule:nonzero;stroke:none"
             d="m 1215.55,2648.78 c -38.15,0 -84.09,27.83 -132.21,118.74 0.01,-0.01 0.01,-0.01 0.01,-0.01 13.23,-13.21 29.07,-27.89 48.04,-44.15 32.67,-28.01 61.37,-40.13 87.23,-40.13 28.53,0 53.59,14.76 76.71,39.25 0.98,-9.47 2.46,-18.47 4.36,-27.02 -17.21,-20.28 -46.98,-46.68 -84.14,-46.68" /></g></g><path
         id="path220"
         style="fill:#f47268;fill-opacity:1;fill-rule:nonzero;stroke:none"
         d="m 1394.8,3159.65 c 0,0 49.4,-172.87 -16.46,-304.58 -65.85,-131.71 -131.71,-230.5 -246.95,-131.71 -115.25,98.78 -115.25,139.94 -115.25,139.94 0,0 -41.16,16.47 -65.859,65.86 -24.695,49.39 24.699,107.01 49.391,74.09 0,0 57.628,16.46 41.158,57.62 -16.46,41.16 6.37,156.24 22.83,156.24 0,0 79.25,-83.72 191.62,-30.25 16.46,7.83 34.78,-6.34 54.65,-20.52 25.9,-18.47 54.43,-36.95 84.87,-6.69" /><path
         id="path222"
         style="fill:#913b32;fill-opacity:1;fill-rule:nonzero;stroke:none"
         d="m 1230.57,2873.13 -2.55,3.47 c 8.41,6.19 16.81,12.38 25.22,18.57 2.54,1.84 4.76,3.7 5.46,5.84 l 0.35,2.33 c 0,1.56 -0.4,3.37 -0.86,5.23 -11.24,45.53 -22.48,91.06 -33.72,136.58 l 4.18,1.04 c 11.24,-45.53 22.48,-91.06 33.72,-136.59 0.46,-1.89 0.98,-4 0.99,-6.26 0,-1.22 -0.16,-2.48 -0.59,-3.73 -1.35,-3.8 -4.46,-6.02 -6.98,-7.91 -8.4,-6.19 -16.81,-12.38 -25.22,-18.57" /><path
         id="path224"
         style="fill:#ffffff;fill-opacity:1;fill-rule:nonzero;stroke:none"
         d="m 1308.37,2842.72 c -8.23,0 -98.78,-32.93 -181.1,0 0,0 24.7,-82.31 90.55,-82.31 65.86,0 90.55,82.31 90.55,82.31" /><path
         id="path226"
         style="fill:#300e11;fill-opacity:1;fill-rule:nonzero;stroke:none"
         d="m 1310.75,3033.06 c 0,-15.32 5.65,-27.73 12.61,-27.73 6.96,0 12.61,12.41 12.61,27.73 0,15.32 -5.65,27.74 -12.61,27.74 -6.96,0 -12.61,-12.42 -12.61,-27.74" /><path
         id="path228"
         style="fill:#300e11;fill-opacity:1;fill-rule:nonzero;stroke:none"
         d="m 1124.17,3033.06 c 0,-15.32 5.65,-27.73 12.61,-27.73 6.97,0 12.61,12.41 12.61,27.73 0,15.32 -5.64,27.74 -12.61,27.74 -6.96,0 -12.61,-12.42 -12.61,-27.74" /><path
         id="path230"
         style="fill:#180a0c;fill-opacity:1;fill-rule:nonzero;stroke:none"
         d="m 1173.27,3102.72 c -25.25,14.73 -57.25,10.07 -77.13,-11.39 -3.3,-3.57 2.04,-8.93 5.35,-5.35 17.64,19.04 45.52,23.3 67.96,10.22 4.21,-2.46 8.03,4.07 3.82,6.52" /><path
         id="path232"
         style="fill:#180a0c;fill-opacity:1;fill-rule:nonzero;stroke:none"
         d="m 1364.39,3090.54 c -21.4,18.23 -49.31,24.28 -76.27,16.09 -4.65,-1.42 -2.67,-8.71 2.01,-7.29 24.28,7.37 49.52,2.37 68.91,-14.15 3.69,-3.14 9.07,2.19 5.35,5.35" /><path
         id="path234"
         style="fill:#15233a;fill-opacity:1;fill-rule:nonzero;stroke:none"
         d="M 907.344,998.371 791.363,-282.449 H 1991.5 L 1683.91,837 1502.37,1068.96 907.344,998.371" /><path
         id="path236"
         style="fill:#f2535a;fill-opacity:1;fill-rule:nonzero;stroke:none"
         d="m 1016.13,2566.62 224.03,-201.71 151.28,181.54 c 0,0 119.81,-1054.99 69.99,-1291.45 -49.83,-236.46 40.94,-291.93 40.94,-291.93 L 1462.03,837 c 0,0 -262.22,-115.969 -519.389,-25.199 -257.172,90.758 73.489,1754.819 73.489,1754.819" /><path
         id="path238"
         style="fill:#e1e8ef;fill-opacity:1;fill-rule:nonzero;stroke:none"
         d="m 1361.88,1630.03 c 0,0 39.64,-1710.78 100.15,-1766.249 60.51,-55.472 574.86,70.5901 574.86,70.5901 0,0 -347.94,1092.8689 -307.6,1635.6389 40.34,542.77 -367.41,60.02 -367.41,60.02" /><path
         id="path240"
         style="fill:#afc2d2;fill-opacity:1;fill-rule:nonzero;stroke:none"
         d="m 1746.94,1091.66 c 0,0 -30.26,156.32 22.69,214.31 52.95,57.99 108.42,-42.86 108.42,-42.86 l -131.11,-171.45" /><path
         id="path242"
         style="fill:#e1e8ef;fill-opacity:1;fill-rule:nonzero;stroke:none"
         d="M 776.234,1421.94 C 776.234,1416.9 660.254,4.96875 660.254,4.96875 599.746,-206.82 826.66,-90.8281 877.09,4.96875 927.516,100.781 1008.61,1175.23 1015.97,1376.76 c 7.36,201.51 -239.736,45.18 -239.736,45.18" /><path
         id="path244"
         style="fill:#e1e8ef;fill-opacity:1;fill-rule:nonzero;stroke:none"
         d="m 1341.01,2617.05 c 0,0 62.44,-228.9 30.01,-520.79 -32.43,-291.89 10.81,-854.04 10.81,-854.04 l 400,108.1 54.05,54.05 c 0,0 -43.24,-281.07 -86.49,-313.5 0,0 378.38,10.81 302.7,367.56 -75.67,356.76 -237.83,799.99 -356.75,897.29 -118.92,97.3 -289.47,207.27 -354.33,261.33" /><path
         id="path246"
         style="fill:#e1e8ef;fill-opacity:1;fill-rule:nonzero;stroke:none"
         d="m 1056.03,2615.18 c 0,0 -108.116,-75.68 -162.167,-140.54 0,0 -183.781,-118.92 -248.648,-216.22 -64.863,-97.3 -216.211,-767.56 -227.024,-832.42 -10.808,-64.87 108.11,-227.03 454.051,-291.89 l 64.863,129.73 h 75.675 c 0,0 21.62,670.26 0,832.42 -21.624,162.16 10.81,486.48 43.25,518.92" /><path
         id="path248"
         style="fill:#9eabda;fill-opacity:1;fill-rule:nonzero;stroke:none"
         d="m 891.609,2450.67 c -21.75,-66 -47.129,-130.33 -76.355,-193.4 -0.984,-2.13 -0.297,-4.94 2.262,-5.56 24.64,-6.02 57.445,-12.6 78.336,-27.1 28.539,-19.82 22.101,-34.25 14.211,-65.42 -8.129,-32.12 -23.708,-68.52 -25.18,-101.35 -1.328,-29.59 17.187,-55.91 27.414,-82.84 17.082,-45.01 29.582,-91.25 39.07,-138.41 0.961,-4.76 8.25,-2.74 7.293,2.01 -12.078,60.03 -32.484,114.79 -52.758,172.23 -22.703,64.32 8.75,135.65 25.016,199.94 0.41,1.62 -0.27,3.43 -1.738,4.28 -17.328,9.99 -34.934,19.15 -53.512,26.57 -36.727,14.68 -53,12.21 -34.305,55.12 21.657,49.72 40.571,100.44 57.543,151.93 1.528,4.63 -5.777,6.61 -7.297,2" /><path
         id="path250"
         style="fill:#9eabda;fill-opacity:1;fill-rule:nonzero;stroke:none"
         d="m 1500.35,2456.87 c 19.58,-44.13 32.3,-89.16 35.97,-137.5 3.82,-50.32 -24.72,-25.1 -59.98,-19.39 -2.38,0.38 -4.79,-0.98 -4.79,-3.65 0.03,-42.83 0.95,-85.64 3.33,-128.4 3.13,-56.52 -18.02,-89.38 -42.86,-137.86 -36.42,-71.11 -66.33,-144.96 -90.95,-220.95 -1.5,-4.64 5.81,-6.62 7.3,-2 30.77,94.95 70.18,186.66 119.49,273.5 4.47,7.86 16.37,23.61 18.32,32.38 4.57,20.5 -3.68,52.02 -4.68,73.25 -1.07,22.71 -6.16,50.99 -2.21,73.38 7.16,40.55 23.03,30.23 59.89,13.88 2.56,-1.14 5.65,0.16 5.69,3.26 0.74,64.49 -11.83,124.96 -37.99,183.92 -1.97,4.45 -8.49,0.61 -6.53,-3.82" /><path
         id="path252"
         style="fill:#9eabda;fill-opacity:1;fill-rule:nonzero;stroke:none"
         d="m 1826.6,1411.91 c 21.49,48.85 -4.63,117.43 -16.04,166.23 -18.47,78.96 -43.45,155.93 -73.66,231.16 -1.79,4.45 -9.11,2.51 -7.29,-2.01 23.22,-57.84 43.56,-116.67 59.93,-176.82 15.06,-55.36 54.27,-160.77 30.53,-214.74 -1.94,-4.41 4.57,-8.27 6.53,-3.82" /><path
         id="path254"
         style="fill:#15233a;fill-opacity:1;fill-rule:nonzero;stroke:none"
         d="m 1625.91,1459.77 c 0,-5.04 33.62,359.7 39.51,358.86 5.88,-0.84 21.01,-0.84 21.01,-0.84 l -40.35,-337.85 -20.17,-20.17" /><path
         id="path256"
         style="fill:#f47268;fill-opacity:1;fill-rule:nonzero;stroke:none"
         d="m 1835.88,1404.37 -64.86,21.63 c 0,0 -40.21,145.69 -51.02,156.5 -10.81,10.81 -103.82,-39.63 -136.25,-61.25 -32.43,-21.62 -7.33,-73.63 3.49,-95.25 10.81,-21.63 97.29,-97.3 140.53,-64.87 l 75.68,-97.29 c 0,0 43.24,54.05 32.43,140.53" /><g
         id="g258"><g
           clip-path="url(#clipPath264)"
           id="g260"><path
             id="path266"
             style="fill:#e1e8ef;fill-opacity:1;fill-rule:nonzero;stroke:none"
             d="m 1587.5,1548.75 c 19.3,0 19.34,30 0,30 -19.3,0 -19.34,-30 0,-30" /><path
             id="path268"
             style="fill:#f14b3e;fill-opacity:1;fill-rule:nonzero;stroke:none"
             d="m 1563.87,1462.59 c 24.15,12.11 48.31,24.22 72.46,36.33 2.59,1.29 0.32,5.17 -2.27,3.88 -24.15,-12.11 -48.31,-24.22 -72.46,-36.33 -2.59,-1.29 -0.32,-5.18 2.27,-3.88" /><path
             id="path270"
             style="fill:#f14b3e;fill-opacity:1;fill-rule:nonzero;stroke:none"
             d="m 1581.79,1437.98 c 27.82,10.98 54.66,23.91 80.55,38.9 2.51,1.45 0.24,5.34 -2.27,3.88 -25.56,-14.78 -51.99,-27.6 -79.47,-38.45 -2.67,-1.05 -1.51,-5.41 1.19,-4.33" /></g></g><path
         id="path272"
         style="fill:#316bb3;fill-opacity:1;fill-rule:nonzero;stroke:none"
         d="m 1043.5,918.621 212.04,558.799 647.31,-55.89 -345.97,-525.249 -513.38,22.34" /><path
         id="path274"
         style="fill:#f47268;fill-opacity:1;fill-rule:nonzero;stroke:none"
         d="m 939.391,1274.07 c 0,0 96.549,12 136.799,38.79 40.24,26.8 119.34,3.95 119.34,3.95 0,0 -6.73,-33.52 28.13,-50.97 34.85,-17.46 83.15,32.12 108.61,2.61 25.46,-29.52 -22.9,-166.26 -177.1,-152.75 -154.19,13.51 -249.354,77.94 -249.354,77.94 l 33.575,80.43" /><path
         id="path276"
         style="fill:#9eabda;fill-opacity:1;fill-rule:nonzero;stroke:none"
         d="m 751.555,1153.78 c 33.726,-15.51 67.566,-26.63 104.047,-34 1.769,-0.37 3.253,0.27 4.269,1.73 41.043,59.36 74.617,122.23 101.281,189.25 0.813,2.03 -0.914,3.98 -2.64,4.65 -56.942,22.29 -115.707,47.1 -162.012,88.2 -25.492,22.64 -48.961,49.41 -56.551,83.17 -6.273,27.89 2.809,55.24 2.246,83.92 -2.121,109.06 -3.695,224.14 54.953,320.82 2.536,4.17 -4.003,7.98 -6.527,3.82 -39.781,-65.56 -52.984,-143.54 -57.016,-219.17 -2.167,-40.66 3.422,-81.51 1.274,-121.92 -1.805,-33.9 -12.578,-57.75 3.172,-89.87 32.918,-67.1 105.195,-107.94 170.679,-136.69 17.872,-7.86 36.567,-9.26 38.532,-31.51 1.961,-22.24 -30.438,-66.64 -41.953,-87.62 -11.067,-20.15 -23.723,-53.92 -41.817,-68.55 -28.125,-22.73 -81.91,8.25 -108.121,20.29 -4.394,2.02 -8.242,-4.49 -3.816,-6.52" /><path
         id="path278"
         style="fill:#d64f46;fill-opacity:1;fill-rule:nonzero;stroke:none"
         d="m 4960,1151.25 c 0,0 -18.75,35 -55,41.25 -36.25,6.25 -57.5,51.25 -63.75,36.25 -6.25,-15 -10,-60 66.25,-77.5" /><path
         id="path280"
         style="fill:#d64f46;fill-opacity:1;fill-rule:nonzero;stroke:none"
         d="m 4535,1327.5 c 0,0 -14.17,21.67 5.83,52.5 20,30.83 5,73.33 16.67,69.17 11.67,-4.17 30,-42.5 7.5,-95 -22.5,-52.5 -30,-26.67 -30,-26.67" /></g></g></svg>